<svg width="51" height="51" viewBox="0 0 51 51" fill="none" xmlns="http://www.w3.org/2000/svg">
<g opacity="0.7">
<path d="M29.1239 31.9534C29.6132 32.5731 31.1089 33.8614 31.1089 33.8614C34.7129 33.7472 35.1905 30.7956 35.1905 30.7956C35.1905 25.5444 32.8421 19.2472 32.8421 19.2472C30.4938 17.4859 28.2596 17.5349 28.2596 17.5349L28.0313 19.3125M32.0757 30.0128C31.407 30.4531 30.771 30.763 30.2002 30.9748C29.3849 31.3174 28.6021 31.5456 27.8356 31.6761C26.27 31.9697 24.8349 31.8882 23.6119 31.6599C22.6823 31.4804 21.8832 31.2195 21.2146 30.9587C20.8395 30.8118 20.4318 30.6325 20.024 30.4042C19.9752 30.3715 19.9263 30.3552 19.8773 30.3226C19.8448 30.3063 19.8284 30.29 19.8121 30.2737C19.5186 30.1106 19.3555 29.9965 19.3555 29.9965M22.2094 31.9207C21.7202 32.5406 20.2245 33.8614 20.2245 33.8614C16.6204 33.7472 16.1429 30.7956 16.1429 30.7956C16.1429 25.5444 18.4912 19.2471 18.4912 19.2471C20.8395 17.4859 23.0737 17.5348 23.0737 17.5348L23.2368 19.2472M20.2245 20.9362C24.2624 18.734 27.0786 18.7272 31.1089 20.9362M22.6171 24.8252C21.6875 24.8252 20.9538 25.6406 20.9538 26.6353C20.9538 27.6302 21.7038 28.4456 22.6171 28.4456C23.5467 28.4456 24.2804 27.6302 24.2804 26.6353C24.2968 25.6406 23.5466 24.8252 22.6171 24.8252ZM28.5695 24.8252C27.6399 24.8252 26.906 25.6406 26.906 26.6353C26.906 27.6302 27.6563 28.4456 28.5695 28.4456C29.499 28.4456 30.2328 27.6302 30.2328 26.6353C30.2328 25.6406 29.499 24.8252 28.5695 24.8252Z" stroke="#4FB9AC" stroke-width="1.5" stroke-linecap="round" stroke-linejoin="round"/>
<path d="M5.66669 2.62988H45.6667V0.629883H5.66669V2.62988ZM48.6667 5.62988V45.6299H50.6667V5.62988H48.6667ZM45.6667 48.6299H5.66669V50.6299H45.6667V48.6299ZM2.66669 45.6299V5.62988H0.666687V45.6299H2.66669ZM5.66669 48.6299C4.00983 48.6299 2.66669 47.2867 2.66669 45.6299H0.666687C0.666687 48.3913 2.90526 50.6299 5.66669 50.6299V48.6299ZM48.6667 45.6299C48.6667 47.2867 47.3235 48.6299 45.6667 48.6299V50.6299C48.4281 50.6299 50.6667 48.3913 50.6667 45.6299H48.6667ZM45.6667 2.62988C47.3235 2.62988 48.6667 3.97303 48.6667 5.62988H50.6667C50.6667 2.86846 48.4281 0.629883 45.6667 0.629883V2.62988ZM5.66669 0.629883C2.90526 0.629883 0.666687 2.86846 0.666687 5.62988H2.66669C2.66669 3.97303 4.00983 2.62988 5.66669 2.62988V0.629883Z" fill="#4FB9AC"/>
</g>
</svg>
