<svg width="51" height="51" viewBox="0 0 51 51" fill="none" xmlns="http://www.w3.org/2000/svg">
<g opacity="0.7">
<path d="M22.9254 30.1928C19.7784 31.1841 19.9252 28.1736 18.6667 27.8432M27.9604 33.1299V28.9446C27.9604 28.2103 27.9806 27.6926 27.5408 27.2558C29.5901 27.0355 31.317 26.3052 31.317 22.8732C31.3142 21.9893 30.9624 21.1422 30.3383 20.5162C30.4855 20.137 30.5562 19.7323 30.5461 19.3256C30.536 18.9189 30.4454 18.5182 30.2795 18.1468C30.2795 18.1468 29.5085 17.9265 27.7272 19.0771C26.2294 18.6867 24.6564 18.6867 23.1586 19.0771C21.3765 17.9265 20.6063 18.1468 20.6063 18.1468C20.4404 18.5182 20.3498 18.9189 20.3397 19.3256C20.3296 19.7323 20.4003 20.137 20.5476 20.5162C20.2362 20.8285 19.9894 21.1991 19.8215 21.6068C19.6535 22.0145 19.5676 22.4514 19.5688 22.8923C19.5688 26.2993 21.2957 27.0105 23.345 27.2558C22.9111 27.6882 22.8814 28.4181 22.9254 29.018V33.1299" stroke="#4FB9AC" stroke-width="1.5" stroke-linecap="round" stroke-linejoin="round"/>
<path d="M5.33334 2.62988H45.3333V0.629883H5.33334V2.62988ZM48.3333 5.62988V45.6299H50.3333V5.62988H48.3333ZM45.3333 48.6299H5.33334V50.6299H45.3333V48.6299ZM2.33334 45.6299V5.62988H0.333344V45.6299H2.33334ZM5.33334 48.6299C3.67649 48.6299 2.33334 47.2867 2.33334 45.6299H0.333344C0.333344 48.3913 2.57192 50.6299 5.33334 50.6299V48.6299ZM48.3333 45.6299C48.3333 47.2867 46.9902 48.6299 45.3333 48.6299V50.6299C48.0948 50.6299 50.3333 48.3913 50.3333 45.6299H48.3333ZM45.3333 2.62988C46.9902 2.62988 48.3333 3.97303 48.3333 5.62988H50.3333C50.3333 2.86846 48.0948 0.629883 45.3333 0.629883V2.62988ZM5.33334 0.629883C2.57192 0.629883 0.333344 2.86846 0.333344 5.62988H2.33334C2.33334 3.97303 3.67649 2.62988 5.33334 2.62988V0.629883Z" fill="#4FB9AC"/>
</g>
</svg>
