<svg width="50" height="51" viewBox="0 0 50 51" fill="none" xmlns="http://www.w3.org/2000/svg">
<g opacity="0.7">
<mask id="path-3-inside-1_407_38367" fill="white">
<path d="M33.3023 21.8626L30.9287 24.1494C30.8649 26.4097 29.9695 28.6141 28.4497 30.2325C26.6695 32.1281 24.212 33.13 21.3427 33.13C18.5527 33.13 17.1146 31.7754 17.0548 31.7178C16.973 31.639 16.9149 31.5403 16.8867 31.4322C16.8586 31.3241 16.8614 31.2107 16.8948 31.104C16.9283 30.9974 16.9911 30.9014 17.0767 30.8265C17.1623 30.7515 17.2673 30.7003 17.3807 30.6783C18.063 30.5451 19.7566 30.0266 20.4774 29.0919C19.7047 28.6626 19.0185 28.1027 18.4517 27.4391C16.4465 25.0931 16.4891 22.145 16.8778 20.0849C16.8998 19.9686 16.956 19.8609 17.0397 19.7745C17.1235 19.6882 17.2313 19.6269 17.3502 19.5979C17.4692 19.5689 17.5943 19.5736 17.7105 19.6112C17.8268 19.6489 17.9294 19.718 18.0061 19.8103C18.028 19.8366 20.1292 22.3168 23.2606 23.1272V22.6591C23.2674 21.6728 23.6804 20.7295 24.4088 20.0365C25.1372 19.3435 26.1214 18.9575 27.1451 18.9634C27.8101 18.9723 28.4613 19.1472 29.0351 19.471C29.609 19.7949 30.0859 20.2566 30.4191 20.8111H32.8503C32.9767 20.8111 33.1003 20.8472 33.2055 20.9149C33.3106 20.9825 33.3926 21.0787 33.4409 21.1913C33.4893 21.3038 33.502 21.4277 33.4773 21.5472C33.4527 21.6667 33.3918 21.7764 33.3023 21.8626V21.8626Z"/>
</mask>
<path d="M30.9287 24.1494L29.8879 23.0692C29.605 23.3418 29.4403 23.7144 29.4293 24.1071L30.9287 24.1494ZM28.4497 30.2325L29.5431 31.2594L29.5431 31.2594L28.4497 30.2325ZM17.0548 31.7178L18.0955 30.6375L18.0955 30.6375L17.0548 31.7178ZM17.3807 30.6783L17.6661 32.1509L17.6681 32.1505L17.3807 30.6783ZM20.4774 29.0919L21.6653 30.0078C21.932 29.6619 22.0347 29.2168 21.9465 28.7889C21.8582 28.361 21.5878 27.9928 21.2059 27.7807L20.4774 29.0919ZM18.4517 27.4391L19.5924 26.4649L19.592 26.4644L18.4517 27.4391ZM16.8778 20.0849L18.3518 20.3631L18.3518 20.363L16.8778 20.0849ZM18.0061 19.8103L16.852 20.7685L16.8544 20.7714L18.0061 19.8103ZM23.2606 23.1272L22.8848 24.5793C23.3341 24.6956 23.8119 24.5974 24.1789 24.3133C24.5458 24.0292 24.7606 23.5913 24.7606 23.1272H23.2606ZM23.2606 22.6591L21.7606 22.6488V22.6591H23.2606ZM27.1451 18.9634L27.1651 17.4635L27.1537 17.4635L27.1451 18.9634ZM30.4191 20.8111L29.1335 21.5838C29.4047 22.0351 29.8927 22.3111 30.4191 22.3111V20.8111ZM32.8503 20.8111L32.8503 22.3111L32.8503 22.3111L32.8503 20.8111ZM32.2616 20.7823L29.8879 23.0692L31.9694 25.2297L34.3431 22.9428L32.2616 20.7823ZM29.4293 24.1071C29.3756 26.0102 28.6184 27.8616 27.3562 29.2057L29.5431 31.2594C31.3205 29.3666 32.3542 26.8093 32.4281 24.1917L29.4293 24.1071ZM27.3562 29.2057C25.8905 30.7664 23.8453 31.63 21.3427 31.63V34.63C24.5787 34.63 27.4485 33.4898 29.5431 31.2594L27.3562 29.2057ZM21.3427 31.63C19.0728 31.63 17.988 30.5339 18.0955 30.6375L16.014 32.798C16.2413 33.0169 18.0327 34.63 21.3427 34.63V31.63ZM18.0955 30.6375C18.2091 30.747 18.2955 30.8899 18.3383 31.0539L15.4352 31.8105C15.5343 32.1906 15.7368 32.5309 16.0141 32.798L18.0955 30.6375ZM18.3383 31.0539C18.3811 31.2183 18.3767 31.3915 18.3261 31.5529L15.4635 30.6552C15.346 31.0299 15.3361 31.43 15.4352 31.8105L18.3383 31.0539ZM18.3261 31.5529C18.2756 31.7139 18.1829 31.8516 18.0651 31.9547L16.0882 29.6982C15.7993 29.9513 15.5809 30.2808 15.4635 30.6552L18.3261 31.5529ZM18.0651 31.9547C17.9478 32.0575 17.8093 32.1232 17.6661 32.1509L17.0953 29.2057C16.7254 29.2774 16.3767 29.4455 16.0882 29.6982L18.0651 31.9547ZM17.6681 32.1505C18.1088 32.0645 18.8097 31.8702 19.5181 31.5589C20.1921 31.2628 21.0737 30.775 21.6653 30.0078L19.2895 28.1759C19.1603 28.3435 18.8348 28.5823 18.3112 28.8124C17.822 29.0274 17.335 29.159 17.0933 29.2061L17.6681 32.1505ZM21.2059 27.7807C20.5875 27.4371 20.0414 26.9907 19.5924 26.4649L17.3111 28.4132C17.9955 29.2147 18.8218 29.8881 19.7489 30.4031L21.2059 27.7807ZM19.592 26.4644C18.0251 24.6314 17.9956 22.2508 18.3518 20.3631L15.4039 19.8068C14.9825 22.0392 14.8679 25.5549 17.3115 28.4137L19.592 26.4644ZM18.3518 20.363C18.3183 20.5406 18.2337 20.698 18.1165 20.8189L15.963 18.7302C15.6782 19.0238 15.4812 19.3967 15.4038 19.8069L18.3518 20.363ZM18.1165 20.8189C17.9997 20.9392 17.8557 21.0186 17.705 21.0553L16.9955 18.1405C16.6068 18.2351 16.2473 18.4371 15.963 18.7302L18.1165 20.8189ZM17.705 21.0553C17.5545 21.092 17.3967 21.0863 17.2484 21.0383L18.1727 18.1842C17.7918 18.0608 17.3839 18.0459 16.9955 18.1405L17.705 21.0553ZM17.2484 21.0383C17.0997 20.9901 16.9605 20.8992 16.852 20.7685L19.1601 18.8521C18.8983 18.5368 18.554 18.3077 18.1727 18.1842L17.2484 21.0383ZM16.8544 20.7714C16.9164 20.8457 19.274 23.6449 22.8848 24.5793L23.6364 21.675C20.9844 20.9887 19.1396 18.8275 19.1577 18.8492L16.8544 20.7714ZM24.7606 23.1272V22.6591H21.7606V23.1272H24.7606ZM24.7606 22.6693C24.7645 22.0991 25.0029 21.5417 25.4427 21.1232L23.3749 18.9497C22.3579 19.9173 21.7703 21.2465 21.7607 22.6488L24.7606 22.6693ZM25.4427 21.1232C25.8844 20.703 26.4927 20.4597 27.1364 20.4634L27.1537 17.4635C25.7501 17.4554 24.3899 17.984 23.3749 18.9497L25.4427 21.1232ZM27.1251 20.4633C27.541 20.4689 27.9453 20.5784 28.2979 20.7774L29.7723 18.1647C28.9773 17.716 28.0791 17.4758 27.1651 17.4636L27.1251 20.4633ZM28.2979 20.7774C28.6503 20.9762 28.9364 21.2559 29.1335 21.5838L31.7048 20.0383C31.2353 19.2573 30.5677 18.6135 29.7723 18.1647L28.2979 20.7774ZM30.4191 22.3111H32.8503V19.3111H30.4191V22.3111ZM32.8503 22.3111C32.6923 22.3111 32.5334 22.2662 32.3935 22.1761L34.0174 19.6536C33.6672 19.4282 33.2612 19.311 32.8502 19.3111L32.8503 22.3111ZM32.3935 22.1761C32.2531 22.0857 32.135 21.9515 32.0629 21.7838L34.819 20.5988C34.6501 20.206 34.3681 19.8794 34.0174 19.6536L32.3935 22.1761ZM32.0629 21.7838C31.9905 21.6153 31.9706 21.4266 32.0083 21.2439L34.9463 21.8505C35.0334 21.4288 34.9882 20.9924 34.819 20.5988L32.0629 21.7838ZM32.0083 21.2439C32.0459 21.0616 32.1373 20.9021 32.2616 20.7823L34.3431 22.9428C34.6462 22.6507 34.8594 22.2717 34.9463 21.8505L32.0083 21.2439Z" fill="#4FB9AC" mask="url(#path-3-inside-1_407_38367)"/>
<path d="M5 2.62988H45V0.629883H5V2.62988ZM48 5.62988V45.6299H50V5.62988H48ZM45 48.6299H5V50.6299H45V48.6299ZM2 45.6299V5.62988H0V45.6299H2ZM5 48.6299C3.34315 48.6299 2 47.2867 2 45.6299H0C0 48.3913 2.23858 50.6299 5 50.6299V48.6299ZM48 45.6299C48 47.2867 46.6569 48.6299 45 48.6299V50.6299C47.7614 50.6299 50 48.3913 50 45.6299H48ZM45 2.62988C46.6569 2.62988 48 3.97303 48 5.62988H50C50 2.86846 47.7614 0.629883 45 0.629883V2.62988ZM5 0.629883C2.23858 0.629883 0 2.86846 0 5.62988H2C2 3.97303 3.34315 2.62988 5 2.62988V0.629883Z" fill="#4FB9AC"/>
</g>
</svg>
