<svg width="255" height="22" viewBox="0 0 255 22" fill="none" xmlns="http://www.w3.org/2000/svg">
<path d="M13.2646 21C13.2646 20.513 13.0876 20.2363 12.7334 20.1699C12.6227 20.1478 12.512 20.1367 12.4014 20.1367H10.1436V1.94141H12.0693C13.8623 1.94141 15.0576 3.02604 15.6553 5.19531C15.6553 5.28385 15.6663 5.35026 15.6885 5.39453L16.2197 7.61914H17.1494L16.9834 1.07812H0.581055L0.415039 7.61914H1.34473L1.87598 5.39453C2.58431 3.22526 3.79069 2.07422 5.49512 1.94141H7.28809V20.1367H4.13379V21H13.2646ZM27.7744 21C27.7744 20.513 27.5973 20.2363 27.2432 20.1699C27.1325 20.1478 27.0218 20.1367 26.9111 20.1367H25.1514V11.2051H35.3447V20.1367H32.6885V21H40.8232C40.8232 20.513 40.6462 20.2363 40.292 20.1699C40.1813 20.1478 40.0706 20.1367 39.96 20.1367H38.2002V1.94141H40.8232V1.07812H32.6885V1.94141H35.3447V10.2422H25.1514V1.94141H27.7744V1.07812H19.6396V1.94141H22.2959V20.1367H19.6396V21H27.7744ZM58.9521 7.05469L58.7861 1.07812H43.4795V1.94141H46.1357V20.1367H43.4795V21H58.7861L58.9521 15.0234H58.2881L57.8232 16.584C57.2699 18.4655 56.4508 19.5944 55.3662 19.9707C55.0342 20.0814 54.68 20.1367 54.3037 20.1367H48.9912V11.2051H55.8311V10.2422H48.9912V1.94141H54.3037C55.8975 1.94141 57.0374 3.01497 57.7236 5.16211C57.7679 5.29492 57.8011 5.4056 57.8232 5.49414L58.2881 7.05469H58.9521ZM73.5615 21V20.1367H70.9053L76.583 12.3008L81.8623 20.1367H79.4385V21H87.1748C87.1748 20.513 86.9977 20.2363 86.6436 20.1699C86.5329 20.1478 86.4222 20.1367 86.3115 20.1367H85.249L78.4092 10.0098L83.5557 2.87109C83.9762 2.29557 84.4521 1.98568 84.9834 1.94141C85.0941 1.94141 85.2158 1.94141 85.3486 1.94141C85.8356 1.94141 86.1123 1.76432 86.1787 1.41016C86.2008 1.29948 86.2119 1.1888 86.2119 1.07812H80.4346V1.94141H83.0908L77.8779 9.21289L72.9639 1.94141H75.3545V1.07812H67.585V1.94141H69.6436L76.0186 11.4375L70.3408 19.207C69.876 19.8268 69.1898 20.1367 68.2822 20.1367C67.7952 20.1367 67.5186 20.3138 67.4521 20.668C67.43 20.7786 67.4189 20.8893 67.4189 21H73.5615ZM103.976 7.05469L103.81 1.07812H88.5029V1.94141H91.1592V20.1367H88.5029V21H103.81L103.976 15.0234H103.312L102.847 16.584C102.293 18.4655 101.474 19.5944 100.39 19.9707C100.058 20.0814 99.7035 20.1367 99.3271 20.1367H94.0146V11.2051H100.854V10.2422H94.0146V1.94141H99.3271C100.921 1.94141 102.061 3.01497 102.747 5.16211C102.791 5.29492 102.825 5.4056 102.847 5.49414L103.312 7.05469H103.976ZM131.567 1.07812H126.255L119.083 17.3145L111.38 1.07812H106.632V1.94141H109.288V20.1367H106.632V21H113.272C113.272 20.513 113.095 20.2363 112.741 20.1699C112.631 20.1478 112.52 20.1367 112.409 20.1367H110.616V5.85938L117.888 21.166H118.585L126.255 4.06641V20.1367H123.599V21H131.567C131.567 20.513 131.39 20.2363 131.036 20.1699C130.925 20.1478 130.815 20.1367 130.704 20.1367H128.911V1.94141H131.567V1.07812ZM149.862 21V20.1367H145.878V11.2051H152.718V10.2422H145.878V1.94141H151.19C152.784 1.94141 153.924 3.01497 154.61 5.16211C154.655 5.29492 154.688 5.4056 154.71 5.49414L155.175 7.05469H155.839L155.673 1.07812H140.366V1.94141H143.022V20.1367H140.366V21H149.862ZM176.524 21C176.524 20.513 176.347 20.2363 175.993 20.1699C175.882 20.1478 175.772 20.1367 175.661 20.1367H174.532L166.929 1.07812H165.7L158.263 20.1367H156.171V21H162.081C162.081 20.513 161.904 20.2363 161.55 20.1699C161.439 20.1478 161.328 20.1367 161.218 20.1367H159.591L162.081 13.6953H169.021L171.511 20.1367H169.353V21H176.524ZM168.655 12.7324H162.446L165.534 4.69727L168.655 12.7324ZM176.856 1.94141H179.513V13.5293C179.557 18.709 182.136 21.3099 187.249 21.332C191.145 21.332 193.502 19.7383 194.321 16.5508C194.565 15.5768 194.687 14.4701 194.687 13.2305V1.94141H197.343V1.07812H190.868V1.94141H193.524V13.4297C193.524 17.724 191.931 20.0371 188.743 20.3691C188.478 20.3913 188.212 20.4023 187.946 20.4023C185.246 20.4023 183.541 19.2624 182.833 16.9824C182.523 15.9863 182.368 14.7689 182.368 13.3301V1.94141H184.991V1.07812H176.856V1.94141ZM215.704 19.4727C215.704 20.4023 215.837 20.9336 216.103 21.0664C216.257 21.1328 216.468 21.166 216.733 21.166V14.8906H215.937C214.808 18.543 212.55 20.3802 209.163 20.4023C206.285 20.4023 204.326 18.9525 203.286 16.0527C202.777 14.6361 202.522 12.9648 202.522 11.0391C202.522 6.89974 203.662 4.08854 205.942 2.60547C206.938 1.98568 208.045 1.67578 209.263 1.67578C212.03 1.67578 214.033 2.98177 215.272 5.59375C215.494 6.05859 215.682 6.53451 215.837 7.02148H216.634L216.534 0.912109C216.047 0.912109 215.748 1.06706 215.638 1.37695C215.571 1.64258 215.538 2.07422 215.538 2.67188C214.896 2.02995 213.8 1.50977 212.251 1.11133C211.233 0.867839 210.192 0.746094 209.13 0.746094C205.632 0.746094 202.954 2.04102 201.095 4.63086C199.811 6.4681 199.169 8.58203 199.169 10.9727C199.169 13.8724 200.065 16.3073 201.858 18.2773C203.762 20.3138 206.241 21.332 209.296 21.332C211.532 21.3099 213.668 20.6901 215.704 19.4727ZM235.028 7.05469L234.862 1.07812H219.556V1.94141H222.212V20.1367H219.556V21H234.862L235.028 15.0234H234.364L233.899 16.584C233.346 18.4655 232.527 19.5944 231.442 19.9707C231.11 20.0814 230.756 20.1367 230.38 20.1367H225.067V11.2051H231.907V10.2422H225.067V1.94141H230.38C231.974 1.94141 233.114 3.01497 233.8 5.16211C233.844 5.29492 233.877 5.4056 233.899 5.49414L234.364 7.05469H235.028ZM250.7 21C250.7 20.513 250.523 20.2363 250.169 20.1699C250.058 20.1478 249.948 20.1367 249.837 20.1367H247.579V1.94141H249.505C251.298 1.94141 252.493 3.02604 253.091 5.19531C253.091 5.28385 253.102 5.35026 253.124 5.39453L253.655 7.61914H254.585L254.419 1.07812H238.017L237.851 7.61914H238.78L239.312 5.39453C240.02 3.22526 241.226 2.07422 242.931 1.94141H244.724V20.1367H241.569V21H250.7Z" fill="#679790"/>
</svg>