<svg width="1600" height="1910" viewBox="0 0 1600 1910" fill="none" xmlns="http://www.w3.org/2000/svg">
<path d="M40.0861 1842.89C55.0924 1854.14 74.2671 1860.81 78.0187 1862.06C188.899 1899.58 310.617 1910 411.909 1910C471.101 1910 522.789 1906.25 561.555 1902.5C598.654 1898.75 635.337 1886.24 667.017 1866.65C708.701 1840.39 733.294 1795.79 733.294 1746.6V1709.5C733.294 1656.14 709.534 1606.12 667.85 1572.36L634.503 1545.26L649.092 1465.23C714.12 1498.16 833.336 1553.18 920.04 1593.2V1593.62L1022.17 1640.72C1039.26 1705.33 1069.27 1750.77 1080.52 1768.27C1085.11 1775.36 1092.2 1780.78 1100.12 1783.28L1301.87 1850.81C1314.79 1854.98 1328.96 1853.73 1341.05 1846.64L1491.53 1758.27C1501.95 1752.02 1510.29 1742.85 1515.29 1731.59L1593.66 1552.35C1601.58 1534.01 1601.58 1513.17 1593.24 1494.83L1514.46 1322.25C1511.12 1314.75 1504.45 1308.5 1496.12 1306L1290.2 1240.55C1275.19 1235.55 1258.52 1238.05 1245.18 1246.39L1206.41 1270.98C1166.39 1252.64 1137.21 1219.29 1120.12 1171.77C1107.62 1137.17 1106.37 1106.33 1105.95 1102.58C1120.96 962.935 1077.19 901.242 1065.93 887.903V797.866C1065.93 786.194 1059.68 774.939 1049.26 768.687L1016.33 749.095L1018.83 746.177C1023.83 740.758 1026.33 734.089 1026.33 727.002V678.232C1026.33 669.478 1022.17 661.141 1015.5 655.722L1001.32 644.468C1005.91 639.049 1008.83 631.962 1008.83 624.876V603.617C1008.83 600.282 1008.41 596.948 1007.16 594.03L1026.33 616.956C1028 678.232 1078.44 727.836 1140.55 727.836C1176.81 727.836 1210.16 711.162 1232.25 681.983C1241.42 669.478 1246.43 653.221 1246.01 636.548L1244.76 586.11C1244.34 567.769 1237.26 550.261 1225.17 536.922C1200.57 509.828 1164.31 496.072 1127.63 499.823L1098.45 477.314C1105.95 465.642 1122.21 447.301 1128.88 440.215L1129.29 439.798C1165.14 396.03 1290.61 405.2 1291.86 405.2C1326.46 407.285 1349.39 401.866 1355.64 400.198C1423.58 406.451 1468.19 403.533 1488.61 401.032C1497.78 400.198 1506.95 396.864 1514.87 391.861C1588.24 347.259 1581.15 266.809 1580.73 263.474C1579.07 231.377 1564.06 197.196 1551.56 174.27C1537.8 148.843 1513.62 130.918 1485.28 125.083L1480.28 124.249C1446.51 117.163 1411.5 122.165 1382.32 138.005C1334.38 164.266 1307.7 203.032 1299.37 216.788L1291.86 215.954C1282.28 214.704 1273.1 216.788 1264.35 220.956C1248.51 229.293 1200.57 248.885 1092.61 255.137C1092.2 255.137 1042.59 257.221 1007.16 227.209C1005.08 225.125 1002.99 223.04 1000.91 221.373L996.739 218.038C973.812 200.114 944.633 190.527 913.787 190.527C877.939 190.527 844.174 203.866 820.831 227.209C803.324 212.619 789.568 194.695 787.901 192.611C772.061 168.017 750.802 139.255 738.296 133.003L734.545 129.668L732.878 120.914C729.126 94.2362 717.454 69.6425 699.53 50.051L689.526 39.2131C673.686 21.7057 653.678 9.61728 632.002 4.19833C601.155 -3.72167 568.225 -0.386917 539.046 13.7857L522.372 21.7057C489.025 37.9626 466.515 70.8931 464.014 107.992L463.181 118.83C461.513 142.59 466.515 165.933 478.187 186.358L485.69 199.697C498.612 223.04 517.787 242.632 541.13 256.388L541.964 256.805C560.722 267.643 581.981 274.729 603.657 277.23L604.073 277.647C625.332 292.653 659.513 308.076 663.265 309.744C673.269 315.163 682.44 321.415 690.36 328.085L689.526 331.003C680.772 351.845 665.766 366.017 650.343 375.605L649.926 376.021C624.499 391.445 598.238 394.363 597.821 394.363C520.705 401.866 492.36 406.451 481.939 408.952C469.85 400.198 455.678 394.779 440.254 393.946L411.492 392.278C388.983 391.028 366.057 397.28 347.299 409.786L337.711 416.455C316.035 431.045 301.446 453.137 296.027 478.148L295.193 482.733C288.941 511.495 293.943 541.508 309.366 566.935C322.705 589.445 345.631 605.701 371.475 610.703L388.149 614.038C428.583 621.958 471.518 613.205 505.699 589.861L527.374 574.855C665.349 524.417 727.875 532.337 728.292 532.337C769.143 539.84 792.069 556.514 801.656 565.268C793.32 571.937 786.65 577.773 782.065 582.775C776.646 588.194 773.728 595.697 773.728 603.617V640.716L757.054 661.975C752.469 667.811 749.968 674.897 749.968 681.983V738.257C749.968 745.343 752.469 752.43 757.471 757.432L759.139 759.099C724.124 795.365 718.705 808.287 717.871 812.455V814.122V871.23C717.871 876.649 719.122 882.484 721.623 887.487C696.612 922.084 687.442 957.933 684.524 974.607C678.271 972.939 672.019 971.272 665.766 969.604C664.932 969.188 664.515 969.188 663.682 968.771C588.233 950.013 503.198 938.341 422.33 969.604L411.076 973.773C345.214 999.2 287.69 1042.14 245.172 1097.99L234.334 1112.58C181.812 1181.78 149.299 1263.48 139.711 1349.76L119.703 1522.75L118.452 1524.42C36.3345 1559.85 13.4082 1619.04 8.40609 1662.4L1.73662 1722C0.486097 1727.01 -9.93493 1806.21 40.0861 1842.89ZM925.875 1147.6L923.374 1092.16V1091.74L928.793 1093.82C939.631 1097.57 951.303 1098.41 962.558 1095.91L981.315 1091.74C981.315 1091.74 1023.83 1060.89 1019.25 990.03C1019.25 990.03 1018.41 940.426 997.155 909.579L992.57 842.051L1039.26 875.398C1045.51 899.992 1062.6 976.691 1058.01 1042.55C1058.01 1042.55 1049.68 1146.35 990.486 1165.52C990.486 1165.52 971.728 1169.27 940.465 1155.93C940.882 1154.68 935.046 1151.76 925.875 1147.6ZM892.528 559.015L911.703 571.937C922.541 579.44 929.21 591.946 929.21 605.285V615.706L816.246 618.207L812.911 619.874V576.939C814.579 575.689 816.246 574.438 817.913 573.188L822.915 569.436C835.421 565.685 861.682 558.598 892.528 559.015ZM725.791 989.196C728.709 972.939 739.547 927.087 771.644 895.407C771.644 895.407 745.8 935.007 739.964 994.198C735.379 992.531 730.793 990.863 725.791 989.196ZM914.204 628.211L951.303 627.377L960.473 632.379L959.223 681.983C959.223 685.735 960.473 689.487 962.558 692.405L971.311 703.659C956.722 700.325 938.797 698.657 917.955 698.657V635.297L914.204 628.211ZM897.53 1060.06C918.372 1060.48 965.892 1060.89 975.063 1058.81C975.063 1058.81 974.646 1060.06 973.812 1062.14C966.726 1076.73 949.219 1083.4 934.212 1077.15C926.292 1073.81 915.454 1069.23 908.785 1066.31C908.368 1065.9 907.951 1065.9 907.534 1065.48C904.616 1064.23 901.282 1062.14 897.53 1060.06ZM762.057 1002.12C768.726 882.068 851.678 848.303 851.678 848.303V839.55C811.244 825.794 779.147 844.552 779.147 844.552L767.059 842.051V774.939C769.977 772.021 772.894 768.687 776.229 765.352L781.648 759.516L769.143 746.177C768.309 745.343 767.476 744.093 767.059 742.842L809.16 714.08V672.813C809.16 665.727 811.661 658.64 816.663 653.221L837.922 629.878L900.865 628.628L905.45 638.632V704.076C905.45 704.91 905.867 705.743 905.867 706.577C906.701 709.078 908.785 711.162 911.703 711.162C973.812 711.162 994.654 723.668 1001.74 731.588C1003.41 733.672 1004.66 735.339 1005.08 736.59L995.488 747.011C984.65 741.592 957.972 733.255 897.947 732.838V720.75C897.947 714.914 892.945 710.746 887.526 711.162L825.833 717.415C821.248 717.832 816.663 719.916 812.911 722.834L783.732 746.594L788.318 749.095L840.006 735.756L878.355 742.842L871.269 827.878C862.932 827.461 853.345 827.461 844.591 829.129L862.099 837.882C862.099 837.882 923.791 836.632 946.301 898.741C946.301 898.741 964.642 950.43 943.8 998.783C943.8 998.783 935.046 1019.63 915.871 1034.63C908.368 1040.88 898.364 1043.8 888.776 1042.97L859.181 1040.88C835.838 1030.88 803.324 1017.12 762.057 1002.12ZM918.372 839.133L921.707 831.63C922.957 829.129 925.459 827.461 928.376 827.878L938.797 829.129C944.633 829.962 949.635 832.88 953.387 837.466L962.141 848.72C966.309 854.139 968.81 860.809 969.227 867.478L969.644 872.897C957.139 861.642 940.465 849.554 918.372 839.133ZM522.372 559.015C501.113 553.179 486.941 534.422 479.438 522.333C498.612 521.916 559.888 520.249 593.652 505.243C593.652 505.243 639.088 488.152 668.684 466.059C668.684 466.059 675.77 462.308 687.442 462.308C698.697 477.731 711.619 493.571 727.042 507.327C729.543 509.411 731.21 512.329 731.627 515.664V516.914C731.21 516.914 730.793 516.497 729.96 516.497C727.459 515.664 664.099 507.327 522.372 559.015ZM465.682 418.956C453.177 431.878 435.669 462.308 458.179 517.748C459.012 519.415 474.019 554.013 504.865 569.853L495.694 576.106C465.265 596.948 426.915 604.868 390.65 597.781L373.977 594.447C352.718 590.278 333.96 576.939 323.122 558.598C310.2 536.922 306.031 511.078 311.033 486.485L311.867 481.899C316.452 460.64 328.541 442.299 346.465 430.211L356.052 423.541C371.892 412.704 391.067 407.701 409.825 408.952L438.587 410.619C448.174 411.453 457.762 414.371 465.682 418.956ZM598.654 411.036C600.322 411.036 624.082 408.118 649.509 394.779C653.678 404.367 661.181 419.79 671.602 437.714C654.511 446.051 601.155 470.228 526.541 482.316C526.541 482.316 489.442 491.487 471.934 507.327C450.675 451.053 478.604 428.544 482.772 425.626C486.524 424.792 506.949 419.79 598.654 411.036ZM604.907 16.7036C615.745 27.9583 634.086 53.8025 642.423 106.325C614.078 136.754 548.216 154.678 511.534 164.266C509.033 164.683 509.45 168.851 512.368 168.434C518.204 167.6 524.04 166.35 529.875 165.516L560.305 200.531C564.89 205.95 572.81 207.617 579.48 204.699L609.075 190.527C614.911 187.609 618.663 181.773 619.08 175.52L620.747 138.422C624.082 137.171 627 135.504 630.334 133.836C634.086 132.169 644.924 125.916 653.261 118.413C668.267 118.83 697.446 126.75 706.2 175.937C706.2 175.937 709.534 190.11 708.701 208.034C706.2 213.453 702.865 218.872 698.696 223.874C681.189 246.384 653.261 259.723 615.745 263.891L610.743 262.64L606.158 261.39C585.315 259.723 567.391 253.053 549.467 242.215L548.633 241.798C527.791 229.71 511.118 212.203 499.446 191.36L491.943 178.022C481.939 160.097 477.77 140.089 479.021 119.664L479.854 108.826C482.355 77.9794 501.113 50.051 529.042 36.2952L545.716 28.3752C564.473 19.6215 584.899 15.8699 604.907 16.7036ZM1389.4 153.845C1399.41 151.344 1409.41 150.51 1417.33 150.51C1386.49 169.685 1359.39 201.781 1339.38 227.209C1337.72 229.293 1340.63 231.794 1342.72 229.71L1354.81 216.788C1374.81 196.363 1397.32 176.354 1422.75 163.015C1427.34 160.514 1432.34 158.43 1437.34 156.346C1440.68 155.095 1444.43 155.929 1447.34 158.43L1458.6 168.434C1463.6 173.019 1467.35 179.272 1469.44 185.941L1481.11 229.293L1465.27 248.885C1464.02 250.552 1464.02 253.053 1465.27 254.304L1465.69 255.137C1468.19 257.638 1471.94 258.055 1474.86 256.388L1491.95 246.384L1532.38 293.07C1539.47 301.407 1540.3 313.912 1534.05 322.666L1508.62 359.348C1504.87 364.767 1498.62 368.518 1491.95 368.935L1356.06 380.19C1353.14 380.607 1349.8 379.356 1347.72 377.272C1338.13 367.268 1331.05 355.596 1325.21 343.508C1324.38 341.424 1323.96 338.923 1323.96 336.422L1325.21 322.666C1325.63 317.664 1328.54 313.078 1332.71 310.577L1361.06 293.487C1363.56 291.819 1364.81 288.901 1364.39 285.984L1363.98 284.316C1363.56 281.815 1361.48 280.148 1359.39 280.148L1342.72 280.565C1336.88 280.565 1332.3 276.396 1331.88 270.56L1330.21 251.803C1329.8 248.468 1328.13 245.55 1325.21 243.882L1309.37 233.878C1309.37 233.461 1309.37 233.461 1309.37 233.045L1311.45 229.293C1311.04 230.127 1336.46 183.024 1389.4 153.845ZM1083.86 468.977C1083.02 469.811 1082.19 471.061 1081.36 472.312C1080.52 474.813 1059.26 526.918 1003.82 533.171L1002.57 533.588C1001.74 533.588 985.067 538.59 968.81 549.428C966.309 551.095 964.225 554.013 963.808 557.348C963.391 560.682 964.642 562.35 965.892 563.6C952.97 557.348 940.048 553.179 927.543 550.678V529.836C927.543 523.167 922.124 517.748 915.454 517.748H913.787C905.867 517.748 899.198 524.417 899.198 532.337V546.927C890.027 546.51 881.273 546.51 872.937 547.344C872.52 514.413 895.863 508.994 895.863 508.994C878.355 504.826 868.768 511.078 868.768 511.078C852.511 521.916 851.678 541.091 852.511 549.844C836.671 552.346 824.166 556.097 817.08 558.598C814.579 555.68 809.577 551.095 802.49 545.676C806.242 535.672 824.583 499.407 904.2 491.904H909.619L932.545 497.739C935.046 498.156 937.13 499.407 939.631 500.657L948.385 505.659C955.471 511.495 962.141 517.331 969.227 523.167C970.894 524.834 973.812 521.916 972.145 520.249C968.393 515.664 964.642 511.495 960.473 507.327L962.141 496.072C962.974 491.904 964.225 488.152 966.726 485.234L982.149 462.725C984.65 458.973 984.65 453.971 981.732 450.636L980.482 448.969C977.147 444.8 972.562 442.299 967.56 441.466L918.789 432.712L931.294 421.874C934.212 419.373 933.795 414.788 930.461 413.12L877.105 382.691C873.353 380.607 869.602 379.356 865.433 379.356L844.174 378.939L780.398 319.748L764.141 313.912C754.97 305.992 745.383 298.072 735.796 290.152C734.128 288.485 731.21 291.403 732.878 293.07C749.134 312.245 766.225 330.586 783.732 348.927L784.566 353.512L817.913 396.447H830.002C845.425 411.453 860.848 426.459 876.271 441.466C881.69 446.468 887.526 451.887 892.945 456.889L894.195 481.482C820.831 491.07 798.322 524.834 791.652 539.84C780.814 533.588 766.642 526.918 748.718 521.916L747.467 514.413C746.216 506.91 742.882 500.24 737.463 495.655C736.629 494.405 734.962 492.737 734.128 491.487C731.21 485.651 729.126 478.982 727.459 472.312C724.124 456.472 724.124 440.215 725.791 423.958C726.625 415.621 727.875 407.285 729.543 399.365C729.96 396.864 726.208 395.613 725.374 398.114C721.623 408.535 718.705 419.373 716.621 430.628L687.859 434.379C675.353 414.371 667.433 396.447 663.265 387.276C679.105 376.438 693.694 361.015 703.282 338.506C713.703 348.927 722.04 361.432 725.374 376.021C725.791 378.523 729.543 377.689 729.543 375.188C728.709 362.682 724.958 350.594 718.705 339.756C715.37 333.92 711.619 328.501 707.45 323.499V323.082L705.366 320.998C702.031 317.247 698.28 313.495 694.111 310.16C692.861 309.327 692.027 308.91 690.776 308.493C684.107 303.491 677.021 298.906 669.518 295.154L669.101 294.737C668.684 294.737 648.259 285.567 629.084 274.729C663.682 268.893 690.36 254.72 707.867 231.794C717.454 219.706 723.29 206.367 726.625 193.445C735.379 205.533 777.896 263.057 812.078 285.15C830.835 298.906 853.762 312.661 875.854 314.746H887.943C887.943 319.748 890.027 325.584 890.444 329.752L892.528 336.422C892.945 338.506 894.195 341.007 895.029 343.091C897.53 349.344 900.865 356.013 905.45 361.432C912.12 371.019 921.707 378.523 931.711 383.941C940.048 388.11 948.385 390.611 957.555 391.861C958.806 391.861 959.64 391.028 960.056 390.194C960.056 388.944 959.223 388.11 958.389 387.693C936.297 382.691 917.122 366.017 909.619 344.758C909.202 343.091 908.368 340.173 907.534 337.672C922.958 325.167 932.962 305.575 932.962 284.316C932.962 255.137 914.621 230.127 888.776 220.123C922.541 224.291 948.385 253.053 948.385 287.651C948.385 302.657 943.383 317.247 934.212 329.335C932.128 332.253 932.545 336.005 935.463 338.089C936.713 338.923 937.964 339.339 939.214 339.339C941.299 339.339 942.966 338.506 944.217 336.838C955.054 322.666 960.89 305.575 960.89 287.651C960.89 275.146 957.972 263.057 952.553 252.636C971.311 259.723 982.566 270.56 987.985 277.647C982.983 284.733 979.231 292.236 977.147 300.156C973.395 311.828 972.562 323.916 974.229 335.588C975.896 347.259 980.065 358.514 986.317 368.101C987.568 370.186 990.903 368.518 990.069 366.017C980.899 341.424 984.65 315.579 997.572 294.737C1018.41 275.146 1087.61 284.733 1087.61 284.733C1220.58 294.32 1280.19 248.468 1280.19 248.468C1286.44 243.466 1291.86 241.798 1295.2 241.381C1294.78 253.47 1294.36 271.394 1297.28 291.403C1297.28 292.236 1297.7 293.07 1297.7 294.32C1298.12 297.655 1296.03 301.407 1292.7 302.24C1212.66 330.169 1129.71 351.845 1045.93 365.184C1033.84 366.851 1020.92 369.352 1008.83 368.518C1007.58 368.518 1006.74 369.352 1006.74 370.603C1006.74 372.27 1009.66 373.104 1014.25 373.937C1016.33 379.356 1020.5 383.941 1025.92 386.026L1047.59 395.196C1059.68 400.615 1073.44 401.449 1086.36 398.114L1121.37 388.944C1128.88 386.859 1135.96 383.108 1141.38 378.106L1168.06 353.512C1190.15 348.927 1212.25 343.508 1234.34 337.672C1243.51 335.171 1253.1 332.67 1262.27 329.752L1271.44 331.419C1274.77 331.836 1277.69 333.504 1280.61 336.005L1316.46 368.101C1319.37 370.603 1322.71 372.27 1326.46 372.687C1329.8 377.272 1333.13 381.44 1336.88 385.609C1338.13 386.859 1337.3 388.944 1335.63 389.36C1325.21 390.611 1310.62 391.861 1292.7 390.611C1287.28 390.194 1157.64 380.607 1115.96 431.045C1112.62 433.129 1093.86 453.971 1083.86 468.977ZM1043.42 626.544C1053.85 632.379 1065.93 635.714 1078.86 635.714C1118.87 635.714 1151.8 601.95 1151.8 561.099C1151.8 546.51 1147.64 532.754 1140.55 521.082C1155.14 533.588 1163.89 552.346 1163.89 572.354C1163.89 608.619 1136.38 638.215 1102.2 638.215C1099.28 638.215 1096.78 638.215 1093.86 637.798C1090.94 637.381 1088.03 639.466 1087.61 642.8C1087.19 646.135 1089.28 648.636 1092.61 649.053C1095.95 649.47 1099.28 649.887 1102.2 649.887C1103.45 649.887 1104.28 649.887 1105.12 649.887C1114.29 668.644 1110.54 689.07 1110.54 689.07C1162.22 701.158 1182.23 677.398 1182.23 677.398C1157.22 670.312 1143.47 649.053 1138.46 639.466C1155.14 629.044 1168.06 611.537 1172.65 591.112C1175.98 591.946 1178.9 593.196 1181.4 595.697L1201.41 614.872C1209.74 622.792 1214.75 633.63 1216 644.885L1218.92 671.562C1218.5 671.979 1218.5 672.396 1218.08 672.813C1199.32 697.823 1170.98 711.996 1139.72 711.996C1090.53 711.579 1049.68 674.48 1043.42 626.544ZM994.654 554.43C1000.49 551.929 1005.49 550.261 1006.74 549.844C1038.42 546.093 1060.1 529.836 1074.69 513.579L1118.46 556.097C1123.04 560.682 1128.88 564.017 1135.13 565.685L1139.3 566.935C1136.38 598.615 1110.54 623.626 1078.86 623.626C1065.52 623.626 1053.01 619.04 1042.59 611.12V610.703L994.654 554.43ZM1181.82 1277.65L1187.24 1281.4C1190.57 1283.9 1194.32 1285.99 1198.07 1287.65C1301.03 1338.09 1369.81 1381.86 1375.65 1385.61C1418.58 1421.04 1443.18 1473.57 1443.18 1529.84C1443.18 1631.97 1361.89 1714.92 1262.27 1714.92C1234.76 1714.92 1208.49 1708.67 1183.9 1696.58L1163.06 1686.99C1236.42 1706.16 1285.61 1699.49 1285.61 1699.49C1360.64 1690.32 1371.48 1626.13 1371.48 1626.13L1346.47 1635.72C1358.56 1617.79 1365.64 1599.04 1369.4 1584.03C1373.15 1569.86 1374.81 1555.27 1374.81 1540.68C1374.4 1486.91 1345.22 1437.3 1298.53 1410.62L1189.74 1348.93C1158.47 1330.59 1134.3 1301.83 1121.37 1268.06L1093.45 1193.87C1091.78 1188.86 1084.69 1188.86 1082.61 1193.87L1045.51 1284.74C1029.25 1324.75 984.233 1345.18 943.8 1329.76C857.513 1297.24 783.732 1252.22 783.732 1252.22C755.387 1234.3 726.208 1233.47 726.208 1233.47C692.861 1233.47 673.686 1260.56 673.686 1260.56C634.086 1326 601.155 1491.49 594.486 1526.51C578.229 1520.25 560.305 1515.25 541.547 1511.5L548.633 1498.58L549.467 1496.91C554.469 1424.8 563.223 1352.68 576.145 1281.4C577.395 1273.07 581.147 1260.14 583.231 1252.22C594.069 1213.04 607.825 1174.69 623.665 1137.18C639.505 1100.08 657.429 1062.98 681.606 1030.46C682.44 1029.63 682.44 1027.96 681.189 1027.55C680.356 1027.13 679.105 1027.13 678.688 1027.55C652.844 1052.14 632.419 1082.15 615.745 1114.25L637.838 1037.55C642.84 1020.46 633.252 1002.54 616.579 997.116L584.899 986.695C539.463 982.943 522.789 987.529 522.789 987.529C405.24 1001.28 323.122 1077.98 323.122 1077.98C188.065 1202.62 180.562 1334.76 180.562 1334.76L152.633 1512.33C145.964 1514 140.545 1515.67 135.96 1517.33L154.718 1352.27C163.888 1268.9 195.568 1190.11 246.006 1123.42L256.844 1108.83C297.694 1055.06 352.301 1014.21 415.244 990.03L426.499 985.861C503.614 956.266 586.149 967.52 659.513 986.278C798.739 1029.21 872.52 1066.31 897.947 1080.48C902.532 1082.99 905.45 1087.57 905.867 1092.99L906.284 1099.66C902.532 1095.49 897.53 1091.74 892.945 1089.65C885.859 1085.9 878.355 1081.73 871.686 1078.4C814.162 1050.89 753.72 1030.46 692.444 1014.62C691.193 1014.21 690.36 1015.04 689.943 1016.29C689.526 1017.54 690.36 1018.37 691.193 1018.79C750.802 1038.8 809.577 1061.73 864.6 1092.16C871.269 1095.91 878.355 1100.08 884.608 1103.83C889.193 1106.33 891.694 1108.41 894.612 1112.16L899.198 1118C901.699 1120.92 904.617 1125.5 907.951 1128.84L908.368 1139.68C888.776 1130.51 865.016 1120.08 849.593 1114.67C849.593 1114.67 783.732 1087.99 713.703 1125.5C713.703 1125.5 637.004 1169.27 633.669 1262.64C633.669 1264.73 636.587 1265.56 637.421 1263.48C647.425 1241.8 677.438 1186.36 729.96 1164.27C729.96 1164.27 783.315 1147.6 839.589 1170.11C839.589 1170.11 933.795 1202.2 957.139 1206.79C957.139 1206.79 1032.17 1226.8 1063.43 1158.43C1063.43 1158.43 1078.02 1128.42 1089.28 1093.82C1088.86 1096.74 1088.86 1099.66 1088.44 1102.58V1102.99V1103.41C1089.28 1108 1092.2 1223.46 1181.82 1277.65ZM432.751 1496.49C410.242 1494.83 394.819 1494.41 392.734 1494.41C299.779 1492.74 237.252 1497.74 195.985 1504L197.236 1492.32C197.652 1487.32 199.737 1482.74 202.654 1478.99L206.823 1473.98C208.907 1471.48 210.574 1468.15 211.408 1465.23L253.509 1305.16C292.276 1194.28 355.219 1154.68 383.564 1142.18C391.484 1138.43 400.654 1137.17 409.408 1138.43L429 1140.93C443.172 1142.59 454.427 1153.43 456.094 1167.6C476.937 1331.42 433.168 1474.4 433.168 1474.4C429 1483.99 429.833 1491.49 432.751 1496.49ZM1041.76 1649.89L1068.44 1661.98L1087.19 1716.17C1088.44 1719.92 1093.45 1721.17 1096.36 1718.25L1117.62 1695.33L1140.13 1707.41C1148.47 1712 1150.14 1723.25 1143.47 1730.34L1124.71 1749.1C1121.37 1752.43 1123.88 1757.85 1128.46 1757.85L1204.74 1753.68C1328.54 1783.7 1391.9 1713.67 1391.9 1713.67L1468.6 1732.84C1473.19 1734.09 1477.36 1729.09 1475.27 1724.92L1444.43 1661.15C1442.76 1657.39 1438.17 1656.14 1434.84 1657.81L1400.66 1674.07C1436.92 1637.39 1459.43 1586.95 1459.43 1530.67C1459.43 1468.98 1432.34 1411.87 1385.24 1373.11L1384.4 1372.69C1383.57 1372.27 1319.79 1331.01 1221.83 1281.82L1253.51 1261.81C1262.68 1255.97 1273.94 1254.72 1284.36 1257.64L1451.1 1310.58L1401.08 1345.6C1396.07 1348.93 1396.49 1356.02 1401.49 1359.35L1419 1369.77C1425.67 1373.52 1434.42 1371.86 1439.01 1365.6L1474.86 1317.67L1490.7 1322.67C1494.45 1323.92 1497.37 1326.42 1499.03 1329.76L1577.82 1502.33C1584.07 1516.08 1584.49 1532.34 1578.23 1546.1L1499.87 1725.34C1496.53 1733.26 1490.7 1739.93 1483.19 1744.1L1332.71 1832.47C1325.21 1837.05 1315.62 1837.89 1307.29 1834.97L1105.53 1767.86C1100.95 1766.19 1097.2 1763.27 1094.28 1759.1C1083.86 1743.68 1058.43 1704.91 1041.76 1649.89ZM54.2587 1832.47L53.8419 1809.12C53.8419 1804.12 51.3408 1799.54 47.5892 1796.2C24.6629 1775.78 19.244 1737.01 17.9935 1719.5L24.2461 1664.48C28.8314 1624.88 50.0903 1571.11 126.372 1539.01L127.206 1538.59C128.457 1538.59 129.707 1538.18 130.958 1537.34C131.791 1536.93 183.897 1506.91 391.901 1510.67C393.568 1510.67 568.642 1515.25 625.332 1561.1C626.583 1561.94 627.833 1562.77 629.084 1562.77L656.596 1585.28C694.111 1615.71 715.787 1661.15 715.787 1709.5V1746.6C715.787 1789.95 694.111 1829.55 657.429 1852.48C647.842 1858.31 637.838 1863.73 627.417 1868.32C638.671 1862.9 644.924 1857.06 644.924 1850.81C644.924 1821.63 509.45 1798.29 342.713 1798.29C203.488 1798.29 94.6924 1807.04 62.1787 1826.63L82.1871 1829.13C88.4398 1829.97 94.6924 1831.22 100.945 1832.88C282.271 1884.16 457.345 1867.07 498.195 1861.65C504.865 1860.81 511.951 1859.98 518.621 1859.56L547.8 1857.48C556.137 1857.06 563.223 1862.48 564.89 1870.82C565.307 1874.15 564.473 1877.49 561.972 1879.57L554.886 1886.24C449.842 1896.24 253.509 1903.75 83.0209 1845.81C75.5177 1843.72 63.8461 1838.72 54.2587 1832.47ZM598.654 1878.74C597.821 1878.74 597.404 1879.15 596.57 1879.15C597.404 1879.15 598.238 1878.74 598.654 1878.74ZM587.4 214.704L614.494 202.198C618.663 200.114 624.082 200.948 627.417 203.866L639.922 214.704C643.673 218.038 642.84 224.291 638.254 226.375L623.665 233.461C612.827 238.88 599.488 237.213 590.318 229.293L585.315 225.125C582.398 222.207 583.231 216.371 587.4 214.704ZM1386.49 278.897L1448.18 259.306C1451.93 258.055 1456.1 260.556 1456.93 264.308L1462.35 288.068C1463.6 293.487 1460.27 298.906 1455.26 300.573L1430.67 308.493C1421.5 311.411 1411.08 309.744 1403.58 303.908L1384.82 289.735C1380.65 286.4 1381.9 280.148 1386.49 278.897ZM1437.76 320.165L1448.18 316.83C1449.43 316.413 1450.68 315.996 1451.93 315.996L1461.1 315.579C1464.44 315.579 1467.35 317.247 1469.02 319.748L1471.94 325.167C1473.61 328.501 1473.19 332.67 1470.27 335.171L1464.85 340.173C1462.35 342.257 1459.02 343.091 1456.1 342.257L1445.68 339.756C1442.76 338.922 1440.26 336.838 1438.59 334.337L1435.26 328.501C1433.17 325.167 1434.84 321.415 1437.76 320.165ZM478.187 562.35C478.187 562.35 459.012 572.771 438.17 575.272C431.084 576.106 423.998 572.771 420.663 566.518C420.663 566.518 441.505 555.68 444.423 545.259C444.423 545.259 377.311 553.179 346.048 528.586C346.048 528.586 326.873 517.748 326.873 505.243C326.873 505.243 330.625 500.657 353.551 509.411C353.551 509.411 391.484 515.247 434.419 501.074C438.587 499.824 442.755 501.908 444.006 506.076C447.758 519.415 458.179 546.927 478.187 562.35ZM626.166 1782.86C639.088 1780.36 669.101 1769.52 679.105 1722.42C679.105 1722.42 688.275 1677.4 659.096 1615.29C656.595 1609.87 657.012 1603.2 660.764 1598.2L661.598 1596.95C661.598 1596.95 700.364 1639.89 703.282 1686.99C703.282 1686.99 709.118 1719.92 704.532 1764.11C704.532 1764.11 702.031 1800.79 682.023 1801.2C682.023 1801.2 636.17 1796.2 610.743 1799.12L616.579 1789.53C618.663 1786.2 622.414 1783.7 626.166 1782.86ZM1474.44 1648.64L1529.88 1579.44C1532.8 1575.69 1538.22 1579.44 1536.55 1583.61L1490.7 1688.66C1489.03 1692.41 1483.61 1692.83 1481.53 1689.07C1478.61 1683.24 1474.86 1676.15 1471.94 1669.9C1468.6 1662.81 1469.44 1654.48 1474.44 1648.64ZM54.2587 1662.81C54.2587 1662.81 55.5092 1621.13 89.6903 1586.95C89.6903 1586.95 128.873 1542.76 202.654 1536.51C202.654 1536.51 301.446 1523.59 459.846 1537.34C459.846 1537.34 511.118 1539.84 569.892 1557.35L624.499 1617.79C624.499 1617.79 635.337 1727.84 595.737 1795.37C595.737 1795.37 595.32 1795.37 594.069 1794.95C593.236 1795.37 591.985 1795.79 590.734 1795.79C568.225 1794.95 545.715 1793.7 523.206 1792.45C457.762 1789.12 385.648 1784.95 320.621 1785.36C319.787 1785.36 318.537 1784.53 318.537 1783.7C318.12 1782.45 318.953 1781.61 320.204 1781.2C342.713 1776.61 365.223 1774.11 388.149 1772.86C423.164 1771.19 458.596 1771.19 493.61 1773.28L513.202 1753.68C519.871 1747.01 524.04 1738.26 525.29 1728.67L526.124 1722C527.374 1711.58 519.454 1702 509.033 1700.75L488.608 1698.24C479.438 1696.99 472.768 1689.49 472.768 1680.32V1638.22C472.768 1618.63 464.014 1599.87 448.591 1587.36L429 1571.52C429 1571.52 424.414 1570.69 415.244 1569.44C426.082 1581.95 439.421 1596.95 442.755 1601.12C452.343 1612.37 457.762 1627.38 457.762 1641.97C457.762 1650.72 458.179 1659.06 458.179 1667.81C459.012 1690.32 451.926 1703.66 434.002 1716.59C427.332 1722.42 420.663 1727.84 413.993 1732.84C412.326 1734.51 409.408 1731.59 411.076 1729.92C416.078 1722.84 421.497 1716.17 426.916 1709.5C430.667 1704.5 438.17 1696.58 439.838 1689.91C442.339 1682.82 440.671 1674.9 441.088 1667.4C441.088 1648.22 444.84 1626.96 430.667 1611.54C425.665 1605.71 401.905 1578.19 391.484 1566.94C351.05 1563.6 278.103 1561.52 175.143 1571.94C166.389 1572.77 158.052 1575.69 150.966 1580.69L123.038 1599.04C116.368 1603.62 111.366 1610.29 108.865 1618.21C103.863 1635.72 96.3598 1671.57 96.3598 1728.26L116.368 1719.92C119.286 1718.67 122.621 1718.25 125.539 1718.25H164.722C168.057 1718.25 170.975 1719.5 173.476 1721.59L195.985 1742.43L209.741 1743.68C212.242 1743.68 214.743 1743.26 216.827 1741.6L236.002 1727.84C243.505 1722.42 252.259 1719.09 261.846 1718.67C282.271 1717.42 321.038 1715.75 353.968 1719.92C361.054 1720.75 367.307 1724.51 371.475 1729.92L386.065 1749.52C390.65 1755.77 386.065 1764.52 378.562 1764.52C351.05 1764.11 299.779 1764.94 261.012 1777.44C258.511 1778.28 255.593 1778.69 252.676 1778.28L200.987 1770.36C194.318 1769.52 188.065 1765.36 184.73 1759.52C180.979 1753.27 175.143 1749.1 168.057 1747.85L121.37 1739.09C114.701 1737.84 107.615 1738.26 101.362 1740.76L76.3514 1750.35L57.5935 1759.52C57.5935 1759.52 34.2503 1739.51 54.2587 1662.81Z" fill="#4FB9AC"/>
</svg>
