<svg width="22" height="22" viewBox="0 0 22 22" fill="none" xmlns="http://www.w3.org/2000/svg">
<path fill-rule="evenodd" clip-rule="evenodd" d="M3.75 6C3.75 4.20507 5.20507 2.75 7 2.75C8.79493 2.75 10.25 4.20507 10.25 6C10.25 7.79493 8.79493 9.25 7 9.25C5.20507 9.25 3.75 7.79493 3.75 6ZM7 1.25C4.37665 1.25 2.25 3.37665 2.25 6C2.25 8.62335 4.37665 10.75 7 10.75C9.62335 10.75 11.75 8.62335 11.75 6C11.75 3.37665 9.62335 1.25 7 1.25ZM13 1.25C12.5858 1.25 12.25 1.58579 12.25 2C12.25 2.41421 12.5858 2.75 13 2.75C14.7949 2.75 16.25 4.20507 16.25 6C16.25 7.79493 14.7949 9.25 13 9.25C12.5858 9.25 12.25 9.58579 12.25 10C12.25 10.4142 12.5858 10.75 13 10.75C15.6234 10.75 17.75 8.62335 17.75 6C17.75 3.37665 15.6234 1.25 13 1.25ZM5 14.75C3.20507 14.75 1.75 16.2051 1.75 18C1.75 18.6904 2.30964 19.25 3 19.25H11C11.6904 19.25 12.25 18.6904 12.25 18C12.25 16.2051 10.7949 14.75 9 14.75H5ZM13.75 18C13.75 19.5188 12.5188 20.75 11 20.75H3C1.48122 20.75 0.25 19.5188 0.25 18C0.25 15.3766 2.37665 13.25 5 13.25H9C11.6234 13.25 13.75 15.3766 13.75 18ZM15 13.25C14.5858 13.25 14.25 13.5858 14.25 14C14.25 14.4142 14.5858 14.75 15 14.75H17C18.7949 14.75 20.25 16.2051 20.25 18C20.25 18.6904 19.6904 19.25 19 19.25H15C14.5858 19.25 14.25 19.5858 14.25 20C14.25 20.4142 14.5858 20.75 15 20.75H19C20.5188 20.75 21.75 19.5188 21.75 18C21.75 15.3766 19.6234 13.25 17 13.25H15Z" fill="black"/>
</svg>
