<svg width="20" height="19" viewBox="0 0 20 19" fill="none" xmlns="http://www.w3.org/2000/svg">
<path fill-rule="evenodd" clip-rule="evenodd" d="M9.46961 0.46967C9.56164 0.377645 9.67163 0.314534 9.78829 0.280336C9.81896 0.27133 9.85045 0.264233 9.88262 0.259179M10.7499 2.81066V5.81678L10.7734 5.86068C10.8429 5.99051 10.9459 6.17782 11.0775 6.40335C11.3415 6.85597 11.7162 7.45502 12.1624 8.05C12.6119 8.64932 13.1155 9.21945 13.6325 9.6331C14.1071 10.0128 14.5278 10.2086 14.8834 10.2441C14.9373 10.1793 14.9947 10.1163 15.0555 10.0556C16.1294 8.98163 17.8706 8.98163 18.9445 10.0556C20.0185 11.1295 20.0185 12.8707 18.9445 13.9447C17.8706 15.0186 16.1294 15.0186 15.0555 13.9447C14.4297 13.3189 14.1686 12.4667 14.272 11.6519C13.6881 11.4962 13.155 11.172 12.6955 10.8044C12.0407 10.2806 11.4505 9.60068 10.9624 8.95C10.8897 8.85302 10.8188 8.75613 10.7499 8.65986V13.3538C11.1874 13.4773 11.6003 13.7113 11.9447 14.0556C13.0186 15.1295 13.0186 16.8707 11.9447 17.9447C10.8707 19.0186 9.12951 19.0186 8.05557 17.9447C6.98163 16.8707 6.98163 15.1295 8.05557 14.0556C8.39979 13.7113 8.81256 13.4775 9.24994 13.3539V8.65986C9.18105 8.75613 9.11018 8.85302 9.03744 8.95C8.54943 9.60068 7.95921 10.2806 7.3044 10.8044C6.82314 11.1894 6.26118 11.5268 5.64464 11.6729C5.74097 12.4813 5.47895 13.3243 4.85861 13.9447C3.78466 15.0186 2.04346 15.0186 0.969519 13.9447C-0.104423 12.8707 -0.104423 11.1295 0.969519 10.0556C2.04346 8.98163 3.78466 8.98163 4.85861 10.0556C4.92106 10.118 4.97989 10.1827 5.03508 10.2494C5.40728 10.2378 5.85606 10.0421 6.36736 9.6331C6.88443 9.21945 7.38795 8.64932 7.83744 8.05C8.28368 7.45502 8.65839 6.85597 8.92242 6.40335C9.05398 6.17782 9.15698 5.99051 9.22653 5.86068L9.24994 5.81678V2.81066L7.53027 4.53033C7.23738 4.82322 6.76251 4.82322 6.46961 4.53033C6.17672 4.23744 6.17672 3.76256 6.46961 3.46967L9.46961 0.46967M10.7499 2.81066L12.4696 4.53033C12.7625 4.82322 13.2374 4.82322 13.5303 4.53033C13.8232 4.23744 13.8232 3.76256 13.5303 3.46967L10.531 0.470388C10.5308 0.470148 10.5305 0.469909 10.5303 0.46967C10.438 0.377394 10.3277 0.314189 10.2106 0.280056C10.1804 0.271221 10.1494 0.26424 10.1177 0.259243C10.0399 0.246949 9.96057 0.246919 9.88279 0.259153M2.03018 11.1162C2.51833 10.6281 3.30979 10.6281 3.79795 11.1162C4.2861 11.6044 4.2861 12.3958 3.79795 12.884C3.30979 13.3722 2.51833 13.3722 2.03018 12.884C1.54202 12.3958 1.54202 11.6044 2.03018 11.1162ZM16.1161 11.1162C16.6043 10.6281 17.3957 10.6281 17.8839 11.1162C18.372 11.6044 18.372 12.3958 17.8839 12.884C17.3957 13.3722 16.6043 13.3722 16.1161 12.884C15.628 12.3958 15.628 11.6044 16.1161 11.1162ZM9.11623 15.1162C8.62807 15.6044 8.62807 16.3958 9.11623 16.884C9.60439 17.3722 10.3958 17.3722 10.884 16.884C11.3722 16.3958 11.3722 15.6044 10.884 15.1162C10.3958 14.6281 9.60439 14.6281 9.11623 15.1162Z" fill="black"/>
</svg>
