<svg width="12" height="12" viewBox="0 0 12 12" fill="none" xmlns="http://www.w3.org/2000/svg">
<path fill-rule="evenodd" clip-rule="evenodd" d="M10.3536 1.14645C10.5488 1.34171 10.5488 1.65829 10.3536 1.85355L10.2071 2L11.3536 3.14645C11.5488 3.34171 11.5488 3.65829 11.3536 3.85355L9.60355 5.60355C9.40829 5.79882 9.09171 5.79882 8.89645 5.60355L7.75 4.45711L5.94537 6.26173C6.2946 6.75214 6.5 7.35209 6.5 8C6.5 9.65685 5.15685 11 3.5 11C1.84315 11 0.5 9.65685 0.5 8C0.5 6.34315 1.84315 5 3.5 5C4.14792 5 4.74786 5.2054 5.23827 5.55463L7.39645 3.39645L9.14645 1.64645C9.14651 1.64639 9.14657 1.64632 9.14663 1.64626L9.64645 1.14645C9.84171 0.951184 10.1583 0.951184 10.3536 1.14645ZM8.45711 3.75L9.25 4.54289L10.2929 3.5L9.5 2.70711L8.45711 3.75ZM3.5 6C2.39543 6 1.5 6.89543 1.5 8C1.5 9.10457 2.39543 10 3.5 10C4.60457 10 5.5 9.10457 5.5 8C5.5 6.89543 4.60457 6 3.5 6Z" fill="black"/>
</svg>
