<svg width="12" height="12" viewBox="0 0 12 12" fill="none" xmlns="http://www.w3.org/2000/svg">
<path d="M4.73811 0.5C3.81763 0.5 3.07144 1.24619 3.07144 2.16667H4.07144C4.07144 1.79848 4.36992 1.5 4.73811 1.5V0.5ZM6.40478 2.16667C6.40478 1.24619 5.65858 0.5 4.73811 0.5V1.5C5.1063 1.5 5.40478 1.79848 5.40478 2.16667H6.40478ZM7.57141 2.56894H6.80705V3.56894H7.57141V2.56894ZM9.07141 4.68963V4.06894H8.07141V4.68963H9.07141ZM11.0714 6.68962C11.0714 5.74693 10.3072 4.98273 9.36451 4.98273V5.98273C9.75492 5.98273 10.0714 6.29922 10.0714 6.68962H11.0714ZM9.36451 8.39652C10.3072 8.39652 11.0714 7.63232 11.0714 6.68962H10.0714C10.0714 7.08003 9.75492 7.39652 9.36451 7.39652V8.39652ZM9.07141 9.99998V8.68962H8.07141V9.99998H9.07141ZM6.64741 11.5H7.57141V10.5H6.64741V11.5ZM4.73807 9.59064C5.10626 9.59064 5.40474 9.88912 5.40474 10.2573H6.40474C6.40474 9.33683 5.65854 8.59064 4.73807 8.59064V9.59064ZM4.0714 10.2573C4.0714 9.88911 4.36988 9.59064 4.73807 9.59064V8.59064C3.81759 8.59064 3.0714 9.33683 3.0714 10.2573H4.0714ZM1.57141 11.5H2.82873V10.5H1.57141V11.5ZM0.0714111 8.60262V9.99998H1.07141V8.60262H0.0714111ZM2.00695 6.66709C2.00695 7.0575 1.69046 7.37398 1.30005 7.37398V8.37398C2.24274 8.37398 3.00695 7.60978 3.00695 6.66709H2.00695ZM1.30005 5.96019C1.69046 5.96019 2.00695 6.27668 2.00695 6.66709H3.00695C3.00695 5.72439 2.24274 4.96019 1.30005 4.96019V5.96019ZM0.0714111 4.06894V4.73155H1.07141V4.06894H0.0714111ZM2.66917 2.56894H1.57141V3.56894H2.66917V2.56894ZM2.66917 3.56894C3.44362 3.56894 4.07144 2.94112 4.07144 2.16667H3.07144C3.07144 2.38884 2.89134 2.56894 2.66917 2.56894V3.56894ZM1.07141 8.60262C1.07141 8.47635 1.17378 8.37398 1.30005 8.37398V7.37398C0.621492 7.37398 0.0714111 7.92406 0.0714111 8.60262H1.07141ZM1.07141 4.06894C1.07141 3.7928 1.29527 3.56894 1.57141 3.56894V2.56894C0.742984 2.56894 0.0714111 3.24051 0.0714111 4.06894H1.07141ZM6.64741 10.5C6.51338 10.5 6.40474 10.3913 6.40474 10.2573H5.40474C5.40474 10.9436 5.9611 11.5 6.64741 11.5V10.5ZM1.30005 4.96019C1.17378 4.96019 1.07141 4.85782 1.07141 4.73155H0.0714111C0.0714111 5.41011 0.621492 5.96019 1.30005 5.96019V4.96019ZM8.07141 9.99998C8.07141 10.2761 7.84755 10.5 7.57141 10.5V11.5C8.39984 11.5 9.07141 10.8284 9.07141 9.99998H8.07141ZM1.57141 10.5C1.29527 10.5 1.07141 10.2761 1.07141 9.99998H0.0714111C0.0714111 10.8284 0.742984 11.5 1.57141 11.5V10.5ZM8.07141 4.68963C8.07141 5.40379 8.65035 5.98273 9.36451 5.98273V4.98273C9.20264 4.98273 9.07141 4.8515 9.07141 4.68963H8.07141ZM9.36451 7.39652C8.65035 7.39652 8.07141 7.97546 8.07141 8.68962H9.07141C9.07141 8.52775 9.20264 8.39652 9.36451 8.39652V7.39652ZM3.0714 10.2573C3.0714 10.3913 2.96275 10.5 2.82873 10.5V11.5C3.51504 11.5 4.0714 10.9436 4.0714 10.2573H3.0714ZM7.57141 3.56894C7.84755 3.56894 8.07141 3.7928 8.07141 4.06894H9.07141C9.07141 3.24051 8.39984 2.56894 7.57141 2.56894V3.56894ZM5.40478 2.16667C5.40478 2.94112 6.0326 3.56894 6.80705 3.56894V2.56894C6.58488 2.56894 6.40478 2.38884 6.40478 2.16667H5.40478Z" fill="black"/>
</svg>
