<svg width="12" height="12" viewBox="0 0 12 12" fill="none" xmlns="http://www.w3.org/2000/svg">
<path d="M5.66655 0.5C4.74607 0.5 3.99988 1.24619 3.99988 2.16667H4.99988C4.99988 1.79848 5.29836 1.5 5.66655 1.5V0.5ZM7.33321 2.16667C7.33321 1.24619 6.58702 0.5 5.66655 0.5V1.5C6.03474 1.5 6.33321 1.79848 6.33321 2.16667H7.33321ZM8.5 2.56894H7.73548V3.56894H8.5V2.56894ZM10 4.68968V4.06894H9V4.68968H10ZM12 6.68967C12 5.74698 11.2358 4.98278 10.2931 4.98278V5.98278C10.6835 5.98278 11 6.29927 11 6.68967H12ZM10.2931 8.39657C11.2358 8.39657 12 7.63237 12 6.68967H11C11 7.08008 10.6835 7.39657 10.2931 7.39657V8.39657ZM10 9.99998V8.68967H9V9.99998H10ZM7.57627 11.5H8.50001V10.5H7.57627V11.5ZM5.66691 9.59062C6.0351 9.59062 6.33358 9.88909 6.33358 10.2573H7.33358C7.33358 9.33681 6.58739 8.59062 5.66691 8.59062V9.59062ZM5.00024 10.2573C5.00024 9.88909 5.29872 9.59062 5.66691 9.59062V8.59062C4.74644 8.59062 4.00024 9.33681 4.00024 10.2573H5.00024ZM2.5 11.5H3.75755V10.5H2.5V11.5ZM1 8.60274V9.99998H2V8.60274H1ZM2.93563 6.66711C2.93563 7.05752 2.61914 7.37401 2.22873 7.37401V8.37401C3.17143 8.37401 3.93563 7.6098 3.93563 6.66711H2.93563ZM2.22873 5.96022C2.61914 5.96022 2.93563 6.2767 2.93563 6.66711H3.93563C3.93563 5.72442 3.17143 4.96022 2.22873 4.96022V5.96022ZM1 4.06894V4.73148H2V4.06894H1ZM3.59761 2.56894H2.5V3.56894H3.59761V2.56894ZM3.59761 3.56894C4.37206 3.56894 4.99988 2.94112 4.99988 2.16667H3.99988C3.99988 2.38884 3.81977 2.56894 3.59761 2.56894V3.56894ZM2 8.60274C2 8.47642 2.10241 8.37401 2.22873 8.37401V7.37401C1.55012 7.37401 1 7.92413 1 8.60274H2ZM2 4.06894C2 3.7928 2.22386 3.56894 2.5 3.56894V2.56894C1.67157 2.56894 1 3.24051 1 4.06894H2ZM7.57627 10.5C7.44224 10.5 7.33358 10.3913 7.33358 10.2573H6.33358C6.33358 10.9436 6.88995 11.5 7.57627 11.5V10.5ZM2.22873 4.96022C2.10241 4.96022 2 4.85781 2 4.73148H1C1 5.41009 1.55012 5.96022 2.22873 5.96022V4.96022ZM9 9.99998C9 10.2761 8.77615 10.5 8.50001 10.5V11.5C9.32843 11.5 10 10.8284 10 9.99998H9ZM2.5 10.5C2.22386 10.5 2 10.2761 2 9.99998H1C1 10.8284 1.67157 11.5 2.5 11.5V10.5ZM9 4.68968C9 5.40384 9.57895 5.98278 10.2931 5.98278V4.98278C10.1312 4.98278 10 4.85155 10 4.68968H9ZM10.2931 7.39657C9.57894 7.39657 9 7.97551 9 8.68967H10C10 8.5278 10.1312 8.39657 10.2931 8.39657V7.39657ZM4.00024 10.2573C4.00024 10.3913 3.89159 10.5 3.75755 10.5V11.5C4.44387 11.5 5.00024 10.9436 5.00024 10.2573H4.00024ZM8.5 3.56894C8.77615 3.56894 9 3.7928 9 4.06894H10C10 3.24051 9.32843 2.56894 8.5 2.56894V3.56894ZM6.33321 2.16667C6.33321 2.94112 6.96103 3.56894 7.73548 3.56894V2.56894C7.51332 2.56894 7.33321 2.38884 7.33321 2.16667H6.33321Z" fill="black"/>
<path d="M6.5 5L6.5 8" stroke="black" stroke-linecap="round"/>
<path d="M5 6.5L8 6.5" stroke="black" stroke-linecap="round"/>
</svg>
