<svg width="24" height="24" viewBox="0 0 24 24" fill="none" xmlns="http://www.w3.org/2000/svg">
<path d="M9.75 9.75L7.5 7.5L6.41421 6.41421C4.96116 4.96116 4.23463 4.23463 4.49033 3.61732C4.74603 3 5.7735 3 7.82843 3H16.1716C18.2265 3 19.254 3 19.5097 3.61732C19.7654 4.23463 19.0388 4.96116 17.5858 6.41421L6.41421 17.5858C4.96116 19.0388 4.23463 19.7654 4.49033 20.3827C4.74603 21 5.7735 21 7.82843 21H16.1716C18.2265 21 19.254 21 19.5097 20.3827C19.7654 19.7654 19.0388 19.0388 17.5858 17.5858L16.5 16.5L14.25 14.25" stroke="#F9B500" stroke-width="1.5" stroke-linecap="round" stroke-linejoin="round"/>
</svg>
