<svg width="16" height="16" viewBox="0 0 16 16" fill="none" xmlns="http://www.w3.org/2000/svg">
<g clip-path="url(#clip0_2272_9177)">
<path fill-rule="evenodd" clip-rule="evenodd" d="M5.47219 3.95771C5.47219 2.59272 6.57874 1.48618 7.94373 1.48618C9.30872 1.48618 10.4153 2.59272 10.4153 3.95771C10.4153 5.3227 9.30872 6.42924 7.94373 6.42924C6.57874 6.42924 5.47219 5.3227 5.47219 3.95771ZM7.94373 -0.0138245C5.75031 -0.0138245 3.97219 1.76429 3.97219 3.95771C3.97219 6.15113 5.75031 7.92924 7.94373 7.92924C10.1371 7.92924 11.9153 6.15113 11.9153 3.95771C11.9153 1.76429 10.1371 -0.0138245 7.94373 -0.0138245ZM3.05615 13.6223C3.05615 12.2573 4.1627 11.1508 5.52769 11.1508H10.36C11.725 11.1508 12.8315 12.2573 12.8315 13.6223C12.8315 14.0977 12.4461 14.4831 11.9708 14.4831H3.91692C3.44153 14.4831 3.05615 14.0977 3.05615 13.6223ZM11.9708 15.9831C13.2746 15.9831 14.3315 14.9261 14.3315 13.6223C14.3315 11.4289 12.5534 9.65078 10.36 9.65078H5.52769C3.33427 9.65078 1.55615 11.4289 1.55615 13.6223C1.55615 14.9261 2.6131 15.9831 3.91692 15.9831H11.9708Z" fill="#0B0118"/>
</g>
<defs>
<clipPath id="clip0_2272_9177">
<rect width="16" height="16" fill="white"/>
</clipPath>
</defs>
</svg>
