<svg width="16" height="16" viewBox="0 0 16 16" fill="none" xmlns="http://www.w3.org/2000/svg">
<g clip-path="url(#clip0_2274_9204)">
<path d="M6.83334 0.25C5.51706 0.25 4.45001 1.31706 4.45001 2.63334H5.95001C5.95001 2.14548 6.34549 1.75 6.83334 1.75V0.25ZM9.21668 2.63334C9.21668 1.31706 8.14962 0.25 6.83334 0.25V1.75C7.32119 1.75 7.71668 2.14548 7.71668 2.63334H9.21668ZM9.21668 2.89653V2.63334H7.71668V2.89653H9.21668ZM11.2 3.14653H9.46668V4.64653H11.2V3.14653ZM12.95 6.27588V4.89653H11.45V6.27588H12.95ZM13.3104 6.52588H13.2V8.02588H13.3104V6.52588ZM15.75 8.96554C15.75 7.61815 14.6577 6.52588 13.3104 6.52588V8.02588C13.8293 8.02588 14.25 8.44658 14.25 8.96554H15.75ZM13.3104 11.4052C14.6577 11.4052 15.75 10.3129 15.75 8.96554H14.25C14.25 9.4845 13.8293 9.9052 13.3104 9.9052V11.4052ZM13.2 11.4052H13.3104V9.9052H13.2V11.4052ZM12.95 14V11.6552H11.45V14H12.95ZM9.46667 15.75H11.2V14.25H9.46667V15.75ZM7.71667 13.9602V14H9.21667V13.9602H7.71667ZM6.83334 13.0769C7.32119 13.0769 7.71667 13.4724 7.71667 13.9602H9.21667C9.21667 12.644 8.14962 11.5769 6.83334 11.5769V13.0769ZM5.95001 13.9603C5.95001 13.4724 6.34549 13.0769 6.83334 13.0769V11.5769C5.51706 11.5769 4.45001 12.644 4.45001 13.9603H5.95001ZM5.95001 14V13.9603H4.45001V14H5.95001ZM2 15.75H4.20001V14.25H2V15.75ZM0.25 11.6236V14H1.75V11.6236H0.25ZM2.02011 9.87359H2V11.3736H2.02011V9.87359ZM2.95977 8.93393C2.95977 9.45289 2.53907 9.87359 2.02011 9.87359V11.3736C3.3675 11.3736 4.45977 10.2813 4.45977 8.93393H2.95977ZM2.02011 7.99428C2.53907 7.99428 2.95977 8.41497 2.95977 8.93393H4.45977C4.45977 7.58655 3.3675 6.49428 2.02011 6.49428V7.99428ZM2 7.99428H2.02011V6.49428H2V7.99428ZM0.25 4.89653V6.24427H1.75V4.89653H0.25ZM4.20001 3.14653H2V4.64653H4.20001V3.14653ZM4.45001 2.63334V2.89653H5.95001V2.63334H4.45001ZM4.20001 4.64653C5.1665 4.64653 5.95001 3.86303 5.95001 2.89653H4.45001C4.45001 3.0346 4.33808 3.14653 4.20001 3.14653V4.64653ZM1.75 11.6236C1.75 11.4855 1.86193 11.3736 2 11.3736V9.87359C1.0335 9.87359 0.25 10.6571 0.25 11.6236H1.75ZM1.75 4.89653C1.75 4.75846 1.86193 4.64653 2 4.64653V3.14653C1.0335 3.14653 0.25 3.93003 0.25 4.89653H1.75ZM9.46667 14.25C9.3286 14.25 9.21667 14.1381 9.21667 14H7.71667C7.71667 14.9665 8.50018 15.75 9.46667 15.75V14.25ZM2 6.49428C1.86193 6.49428 1.75 6.38235 1.75 6.24427H0.25C0.25 7.21077 1.0335 7.99428 2 7.99428V6.49428ZM11.45 14C11.45 14.1381 11.3381 14.25 11.2 14.25V15.75C12.1665 15.75 12.95 14.9665 12.95 14H11.45ZM2 14.25C1.86193 14.25 1.75 14.1381 1.75 14H0.25C0.25 14.9665 1.0335 15.75 2 15.75V14.25ZM11.45 6.27588C11.45 7.24238 12.2335 8.02588 13.2 8.02588V6.52588C13.0619 6.52588 12.95 6.41395 12.95 6.27588H11.45ZM13.2 9.9052C12.2335 9.9052 11.45 10.6887 11.45 11.6552H12.95C12.95 11.5171 13.0619 11.4052 13.2 11.4052V9.9052ZM4.45001 14C4.45001 14.1381 4.33808 14.25 4.20001 14.25V15.75C5.1665 15.75 5.95001 14.9665 5.95001 14H4.45001ZM11.2 4.64653C11.3381 4.64653 11.45 4.75846 11.45 4.89653H12.95C12.95 3.93003 12.1665 3.14653 11.2 3.14653V4.64653ZM7.71668 2.89653C7.71668 3.86303 8.50018 4.64653 9.46668 4.64653V3.14653C9.3286 3.14653 9.21668 3.0346 9.21668 2.89653H7.71668Z" fill="#0B0118"/>
</g>
<defs>
<clipPath id="clip0_2274_9204">
<rect width="16" height="16" fill="white"/>
</clipPath>
</defs>
</svg>
