<svg width="16" height="16" viewBox="0 0 16 16" fill="none" xmlns="http://www.w3.org/2000/svg">
<g clip-path="url(#clip0_2274_9205)">
<path d="M1.71424 8.97364L5.89251 13.1519C7.22584 14.4852 7.8925 15.1519 8.72093 15.1519C9.54936 15.1519 10.216 14.4852 11.5494 13.1519L13.1519 11.5493C14.4853 10.216 15.1519 9.54934 15.1519 8.72092C15.1519 7.89249 14.4853 7.22582 13.1519 5.89249L8.97365 1.71422C8.3829 1.12347 8.08753 0.8281 7.71114 0.675682C7.33475 0.523263 6.91708 0.529893 6.08174 0.543152L4.50422 0.568192C2.67286 0.597261 1.75717 0.611796 1.18449 1.18448C0.611811 1.75716 0.597277 2.67284 0.568208 4.50421L0.543168 6.08173C0.529908 6.91706 0.523279 7.33473 0.675697 7.71112C0.828116 8.08751 1.12349 8.38289 1.71424 8.97364Z" stroke="black" stroke-width="1.5" stroke-linecap="round" stroke-linejoin="round"/>
<circle cx="6" cy="6" r="2" stroke="black" stroke-width="1.5" stroke-linecap="round" stroke-linejoin="round"/>
</g>
<defs>
<clipPath id="clip0_2274_9205">
<rect width="16" height="16" fill="white"/>
</clipPath>
</defs>
</svg>
