<svg width="16" height="16" viewBox="0 0 16 16" fill="none" xmlns="http://www.w3.org/2000/svg">
<g clip-path="url(#clip0_2339_16061)">
<path fill-rule="evenodd" clip-rule="evenodd" d="M7.3998 1.54999C7.26173 1.54999 7.1498 1.66192 7.1498 1.79999V2.99999C7.1498 3.13806 7.26173 3.24999 7.39981 3.24999H7.98929C7.99586 3.2499 8.00244 3.2499 8.00902 3.24999H8.01032H8.5998C8.73787 3.24999 8.8498 3.13806 8.8498 2.99999V1.79999C8.8498 1.66192 8.73788 1.54999 8.5998 1.54999H7.3998ZM9.32916 4.59122C9.93151 4.31468 10.3498 3.70618 10.3498 2.99999V1.79999C10.3498 0.833488 9.5663 0.0499878 8.5998 0.0499878H7.3998C6.43331 0.0499878 5.6498 0.833492 5.6498 1.79999V2.99999C5.6498 3.70618 6.0681 4.31468 6.67045 4.59122L2.00931 11.25H1.7998C0.833305 11.25 0.0498047 12.0335 0.0498047 13V14.2C0.0498047 15.1665 0.833308 15.95 1.79981 15.95H2.9998C3.91577 15.95 4.66738 15.2463 4.74347 14.35H11.2561C11.3322 15.2463 12.0838 15.95 12.9998 15.95H14.1998C15.1663 15.95 15.9498 15.1665 15.9498 14.2V13C15.9498 12.0335 15.1663 11.25 14.1998 11.25H13.9903L9.32916 4.59122ZM7.9998 5.30783L3.72916 11.4088C4.28841 11.6655 4.689 12.2084 4.74347 12.85H11.2561C11.3106 12.2084 11.7112 11.6655 12.2704 11.4088L7.9998 5.30783ZM13.5906 12.75H12.9998C12.8617 12.75 12.7498 12.8619 12.7498 13V13.6V14.2C12.7498 14.3381 12.8617 14.45 12.9998 14.45H14.1998C14.3379 14.45 14.4498 14.3381 14.4498 14.2V13C14.4498 12.8619 14.3379 12.75 14.1998 12.75H13.6103C13.6037 12.7501 13.5972 12.7501 13.5906 12.75ZM3.2498 13.6L3.2498 13.6006V14.2C3.2498 14.3381 3.13788 14.45 2.9998 14.45H1.79981C1.66173 14.45 1.5498 14.3381 1.5498 14.2V13C1.5498 12.8619 1.66173 12.75 1.7998 12.75H2.3893H2.40901H2.9998C3.13788 12.75 3.2498 12.8619 3.2498 13V13.5994L3.2498 13.6Z" fill="black"/>
</g>
<defs>
<clipPath id="clip0_2339_16061">
<rect width="16" height="16" fill="white"/>
</clipPath>
</defs>
</svg>
