<svg width="24" height="24" viewBox="0 0 24 24" fill="none" xmlns="http://www.w3.org/2000/svg">
<path fill-rule="evenodd" clip-rule="evenodd" d="M8 2.75C7.30964 2.75 6.75 3.30964 6.75 4V8.25H17.25V4C17.25 3.30964 16.6904 2.75 16 2.75H8ZM19.25 8.25V4C19.25 2.20507 17.7949 0.75 16 0.75H8C6.20507 0.75 4.75 2.20507 4.75 4V8.25H2C1.30964 8.25 0.75 8.80964 0.75 9.5V22C0.75 22.6904 1.30964 23.25 2 23.25H22C22.6904 23.25 23.25 22.6904 23.25 22V9.5C23.25 8.80964 22.6904 8.25 22 8.25H19.25ZM2.75 10.25V21.25H21.25V10.25H2.75ZM12 14.25C12.5523 14.25 13 14.6977 13 15.25V17.25C13 17.8023 12.5523 18.25 12 18.25C11.4477 18.25 11 17.8023 11 17.25V15.25C11 14.6977 11.4477 14.25 12 14.25Z" fill="#ffffff"/>
</svg>
