<svg width="197" height="197" viewBox="0 0 197 197" fill="none" xmlns="http://www.w3.org/2000/svg">
<g clip-path="url(#clip0_406_67925)">
<path d="M135.708 45.9436C135.97 45.4016 136.225 44.8532 136.467 44.2982V44.3309C135.462 45.9016 134.357 47.4064 133.16 48.836C131.987 50.2689 130.711 51.6152 129.343 52.8644C127.998 54.1061 126.566 55.2495 125.056 56.2857C123.6 57.312 122.027 58.1623 120.371 58.8189C117.182 60.1867 113.689 60.6954 110.242 60.2945C108.571 60.0993 106.934 59.6821 105.373 59.054L104.223 58.5578L103.968 58.4337H103.89L139.394 37.9193C140.279 37.345 141.344 37.1161 142.386 37.2762C143.429 37.4364 144.376 37.9744 145.047 38.7877C147.741 41.9733 150.161 45.3806 152.281 48.9731C154.496 52.7343 156.178 56.7838 157.28 61.0062C157.502 61.9124 157.424 62.866 157.057 63.7241C156.691 64.5822 156.056 65.2986 155.248 65.7659L117.75 87.4099L114.012 89.5645C107.288 93.4101 104.517 98.6269 103.648 105.136C102.563 112.658 104.994 121.315 110.078 128.726C110.418 129.222 110.771 129.712 111.137 130.195V130.156C110.268 128.508 109.504 126.807 108.85 125.063C108.181 123.336 107.641 121.562 107.236 119.755C106.809 117.976 106.521 116.166 106.373 114.342C106.194 112.571 106.229 110.784 106.478 109.021C106.862 105.576 108.144 102.291 110.196 99.4952C111.192 98.1392 112.363 96.9207 113.679 95.8716L114.679 95.1207L114.875 94.9902C114.875 100.096 114.803 135.862 114.803 136.123C114.813 137.143 114.458 138.133 113.801 138.914C113.144 139.695 112.229 140.215 111.222 140.38C107.096 141.095 102.921 141.486 98.7336 141.549C94.3637 141.581 90.0101 141.015 85.7944 139.865C84.8988 139.602 84.1124 139.057 83.5529 138.311C82.9933 137.565 82.6906 136.658 82.6902 135.725L82.638 88.2391C82.638 80.5021 79.5273 75.4943 74.3124 71.4919C67.9343 66.4841 58.4455 64.3099 48.826 65.446C48.8411 65.4494 48.8567 65.4494 48.8717 65.446C50.7355 65.5201 52.5928 65.7098 54.433 66.014C56.2622 66.3019 58.0684 66.7208 59.8374 67.2676C61.5912 67.7936 63.3037 68.4483 64.9608 69.2263C66.591 69.9576 68.1269 70.8827 69.5353 71.9816C72.3308 74.0341 74.5389 76.7828 75.9396 79.9536C76.6137 81.4944 77.0839 83.1164 77.3381 84.7786L77.4884 86.0257V86.3065L41.8597 65.6353C41.437 65.4004 41.0587 65.0932 40.7422 64.7278C40.2291 64.1474 39.8853 63.4375 39.7481 62.6753C39.611 61.9132 39.6859 61.1281 39.9646 60.4055C41.404 56.476 43.1521 52.6664 45.1925 49.0122C47.3466 45.217 50.0115 41.735 53.1129 38.6636C53.7825 38.013 54.6455 37.5975 55.572 37.4798C56.4985 37.362 57.4382 37.5483 58.2494 38.0107C58.2494 38.0107 85.4872 53.6805 96.0477 59.7134L99.6812 61.8419C106.347 65.7594 112.261 65.6157 118.352 63.1477C125.436 60.412 131.768 54.0266 135.708 45.9436ZM196.588 27.2769C196.588 27.2769 196.523 35.2424 196.405 37.9454C194.984 70.0855 185.472 101.348 168.75 128.842C152.029 156.335 128.637 179.172 100.74 195.238L98.5637 196.478L96.3875 195.238C67.3092 178.466 43.1503 154.358 26.3291 125.326C9.50789 96.2932 0.614471 63.3558 0.539063 29.8102L0.539062 27.2638L2.71521 26.0233C31.8425 9.25531 64.8688 0.429199 98.4853 0.429199C132.102 0.429199 165.128 9.25531 194.255 26.0233L196.588 27.2769ZM190.785 30.4631C162.391 14.5059 131.127 5.34562 98.5637 5.34562C65.9999 5.34562 34.6974 14.5059 6.30291 30.4631C6.66887 95.7084 42.0362 153.863 98.4461 186.776L98.531 186.711C155.045 153.863 190.459 95.8977 190.785 30.4631Z" fill="#26C3F2"/>
</g>
<defs>
<clipPath id="clip0_406_67925">
<rect width="196.049" height="196.049" fill="white" transform="translate(0.539062 0.429199)"/>
</clipPath>
</defs>
</svg>
