<svg width="593" height="48" viewBox="0 0 593 48" fill="none" xmlns="http://www.w3.org/2000/svg">
<path d="M23.7165 45.661H11.6546C5.22908 45.661 0.52832 41.1519 0.52832 35.0871V32.19H8.36292V35.4816C8.36722 36.2218 8.6525 36.9327 9.16105 37.4706C9.66959 38.0084 10.3634 38.333 11.1022 38.3787H24.2689C25.0076 38.333 25.7015 38.0084 26.21 37.4706C26.7186 36.9327 27.0039 36.2218 27.0082 35.4816V29.6085C27.0082 24.9866 17.7644 26.5536 11.959 26.3957C5.62363 26.159 0.843958 21.8866 0.843958 15.7429V10.6476C0.843958 4.53776 5.54472 0.0737305 11.959 0.0737305H23.0852C29.5107 0.0737305 34.2115 4.58286 34.2115 10.6476V13.6236H26.3769V10.2418C26.3726 9.50162 26.0873 8.7907 25.5788 8.25286C25.0702 7.71502 24.3764 7.39041 23.6376 7.34469H11.4179C10.6791 7.39041 9.98523 7.71502 9.47668 8.25286C8.96814 8.7907 8.68286 9.50162 8.67856 10.2418V16.1938C8.67856 20.8157 17.9223 19.2488 23.7165 19.3277C29.9842 19.4855 34.8428 23.8368 34.8428 29.9805V35.0758C34.8428 41.1969 30.142 45.661 23.7165 45.661Z" fill="#26C3F2"/>
<path d="M80.7512 19.4948L70.7184 29.4487V45.5012H62.7373V29.4487L52.7045 19.4948C51.6671 18.6034 50.8564 17.4784 50.339 16.2123C49.8216 14.9462 49.6123 13.5754 49.7284 12.2126V0.0717773H57.6194V11.897C57.6194 13.5428 57.6194 13.7795 58.634 14.7152L66.7053 22.9443L74.8556 14.7152C75.8701 13.7795 75.8701 13.5879 75.8701 11.897V0.0717773H83.7611V12.2126C83.8731 13.5782 83.6586 14.9508 83.1352 16.217C82.6119 17.4833 81.7947 18.6069 80.7512 19.4948V19.4948Z" fill="#26C3F2"/>
<path d="M128.855 45.5012V13.0693L120.547 22.6287H115.689L107.392 13.0693V45.5012H99.4219V0.0717773H105.926L118.36 14.5573C118.665 13.6217 130.343 0.0717773 130.343 0.0717773H136.848V45.5012H128.855Z" fill="#26C3F2"/>
<path d="M174.443 45.5012H152.506V0.0717773H174.443C180.868 0.0717773 185.716 4.69363 185.716 10.8035V15.4253C185.799 16.769 185.565 18.1134 185.035 19.3507C184.504 20.588 183.691 21.6836 182.661 22.5498C183.659 23.3226 184.458 24.3238 184.99 25.4694C185.521 26.6149 185.77 27.8714 185.716 29.1331V34.7695C185.727 40.8794 180.868 45.5012 174.443 45.5012ZM177.734 10.2511C177.734 9.47852 177.451 8.73278 176.938 8.15521C176.424 7.57764 175.717 7.20834 174.95 7.11728H160.295V18.9537H174.24C177.069 18.9537 177.768 18.0857 177.768 15.3464L177.734 10.2511ZM177.734 29.832C177.734 26.9349 177.035 26.0782 174.522 26.0782H160.295V38.5346H174.95C175.709 38.4334 176.405 38.0597 176.909 37.4832C177.413 36.9066 177.691 36.1665 177.689 35.4008L177.734 29.832Z" fill="#26C3F2"/>
<path d="M226.15 45.5012H212.521C206.095 45.5012 201.395 40.9921 201.395 34.9273V10.6457C201.395 4.53581 206.095 0.0717773 212.521 0.0717773H226.15C232.575 0.0717773 237.276 4.5809 237.276 10.6457V34.9273C237.276 41.0372 232.575 45.5012 226.15 45.5012ZM229.441 10.2511C229.437 9.51095 229.152 8.80002 228.643 8.26218C228.135 7.72434 227.441 7.39973 226.702 7.35401H211.968C211.23 7.39973 210.536 7.72434 210.027 8.26218C209.519 8.80002 209.233 9.51095 209.229 10.2511V35.3219C209.233 36.062 209.519 36.773 210.027 37.3108C210.536 37.8486 211.23 38.1733 211.968 38.219H226.702C227.441 38.1733 228.135 37.8486 228.643 37.3108C229.152 36.773 229.437 36.062 229.441 35.3219V10.2511Z" fill="#26C3F2"/>
<path d="M252.943 45.5012V0.0717773H261.082V38.219H281.452V45.5012H252.943Z" fill="#26C3F2"/>
<path d="M349.867 8.37568V0.971436H320.409V47.1484H328.371V27.8815H344.931V20.318H328.371V8.37568H349.867Z" fill="#26C3F2"/>
<path d="M398.414 19.0442C398.414 15.7799 397.856 13.7099 395.388 11.4011L384.401 0.971436H377.395L366.408 11.4011C363.94 13.7099 363.383 15.7799 363.383 19.0442V47.1484H371.424V32.5788H390.373V47.1484H398.414V19.0442ZM390.373 25.5726H371.424V19.4422C371.424 17.7703 371.504 17.3722 372.459 16.4169C372.459 16.4169 380.421 8.61453 380.819 7.97761L389.338 16.4169C390.293 17.3722 390.373 17.7703 390.373 19.4422V25.5726Z" fill="#26C3F2"/>
<path d="M448.381 36.4004V0.971436H440.101V36.7984C440.101 38.3907 438.748 39.7442 437.315 39.7442H424.576C423.143 39.7442 421.79 38.3907 421.79 36.7984V0.971436H413.51V36.4004C413.51 42.6104 418.287 47.1484 424.815 47.1484H437.076C443.604 47.1484 448.381 42.6104 448.381 36.4004Z" fill="#26C3F2"/>
<path d="M498.352 36.4004V33.1361H490.232V36.7188C490.232 38.3111 488.878 39.6646 487.445 39.6646H474.388C472.955 39.6646 471.602 38.3111 471.602 36.7188V11.4807C471.602 9.88838 472.955 8.53491 474.388 8.53491H487.445C488.878 8.53491 490.232 9.88838 490.232 11.4807V14.9838H498.352V12.1972C498.352 6.06683 493.814 0.971436 487.206 0.971436H474.786C468.258 0.971436 463.481 5.50952 463.481 11.7195V36.4004C463.481 42.6104 468.258 47.1484 474.786 47.1484H487.047C493.575 47.1484 498.352 42.6104 498.352 36.4004Z" fill="#26C3F2"/>
<path d="M543.387 47.1484V39.7442H521.414V27.8815H538.451V20.318H521.414V8.37568H543.387V0.971436H513.452V47.1484H543.387Z" fill="#26C3F2"/>
<path d="M592.6 8.37568V0.971436H556.136V8.37568H570.069V47.1484H578.588V8.37568H592.6Z" fill="#26C3F2"/>
</svg>
