<svg width="192" height="22" viewBox="0 0 192 22" fill="none" xmlns="http://www.w3.org/2000/svg">
<path d="M15.6816 2.09131H18.5039V16.9663L5.88672 1.22803H1.27148V2.09131H3.92773V20.2866H1.27148V21.1499H8.07812C8.07812 20.6629 7.90104 20.3862 7.54688 20.3198C7.4362 20.2977 7.32552 20.2866 7.21484 20.2866H5.25586V4.91357L18.3047 21.3159L19.832 20.9839V2.09131H22.4883V1.22803H15.6816V2.09131ZM39.6211 7.20459L39.4551 1.22803H24.1484V2.09131H26.8047V20.2866H24.1484V21.1499H39.4551L39.6211 15.1733H38.957L38.4922 16.7339C37.9388 18.6154 37.1198 19.7443 36.0352 20.1206C35.7031 20.2313 35.349 20.2866 34.9727 20.2866H29.6602V11.355H36.5V10.3921H29.6602V2.09131H34.9727C36.5664 2.09131 37.7064 3.16488 38.3926 5.31201C38.4368 5.44482 38.4701 5.5555 38.4922 5.64404L38.957 7.20459H39.6211ZM67.2129 1.22803H61.9004L54.7285 17.4644L47.0254 1.22803H42.2773V2.09131H44.9336V20.2866H42.2773V21.1499H48.918C48.918 20.6629 48.7409 20.3862 48.3867 20.3198C48.276 20.2977 48.1654 20.2866 48.0547 20.2866H46.2617V6.00928L53.5332 21.3159H54.2305L61.9004 4.21631V20.2866H59.2441V21.1499H67.2129C67.2129 20.6629 67.0358 20.3862 66.6816 20.3198C66.571 20.2977 66.4603 20.2866 66.3496 20.2866H64.5566V2.09131H67.2129V1.22803ZM85.5078 21.1499V20.2866H81.5234V11.355H88.3633V10.3921H81.5234V2.09131H86.8359C88.4297 2.09131 89.5697 3.16488 90.2559 5.31201C90.3001 5.44482 90.3333 5.5555 90.3555 5.64404L90.8203 7.20459H91.4844L91.3184 1.22803H76.0117V2.09131H78.668V20.2866H76.0117V21.1499H85.5078ZM112.17 21.1499C112.17 20.6629 111.993 20.3862 111.639 20.3198C111.528 20.2977 111.417 20.2866 111.307 20.2866H110.178L102.574 1.22803H101.346L93.9082 20.2866H91.8164V21.1499H97.7266C97.7266 20.6629 97.5495 20.3862 97.1953 20.3198C97.0846 20.2977 96.974 20.2866 96.8633 20.2866H95.2363L97.7266 13.8452H104.666L107.156 20.2866H104.998V21.1499H112.17ZM104.301 12.8823H98.0918L101.18 4.84717L104.301 12.8823ZM112.502 2.09131H115.158V13.6792C115.202 18.8589 117.781 21.4598 122.895 21.4819C126.79 21.4819 129.148 19.8882 129.967 16.7007C130.21 15.7267 130.332 14.62 130.332 13.3804V2.09131H132.988V1.22803H126.514V2.09131H129.17V13.5796C129.17 17.8739 127.576 20.187 124.389 20.519C124.123 20.5412 123.857 20.5522 123.592 20.5522C120.891 20.5522 119.187 19.4123 118.479 17.1323C118.169 16.1362 118.014 14.9188 118.014 13.48V2.09131H120.637V1.22803H112.502V2.09131ZM151.35 19.6226C151.35 20.5522 151.482 21.0835 151.748 21.2163C151.903 21.2827 152.113 21.3159 152.379 21.3159V15.0405H151.582C150.453 18.6929 148.195 20.5301 144.809 20.5522C141.931 20.5522 139.972 19.1024 138.932 16.2026C138.423 14.786 138.168 13.1147 138.168 11.189C138.168 7.04964 139.308 4.23844 141.588 2.75537C142.584 2.13558 143.691 1.82568 144.908 1.82568C147.675 1.82568 149.678 3.13167 150.918 5.74365C151.139 6.2085 151.327 6.68441 151.482 7.17139H152.279L152.18 1.06201C151.693 1.06201 151.394 1.21696 151.283 1.52686C151.217 1.79248 151.184 2.22412 151.184 2.82178C150.542 2.17985 149.446 1.65967 147.896 1.26123C146.878 1.01774 145.838 0.895996 144.775 0.895996C141.278 0.895996 138.6 2.19092 136.74 4.78076C135.456 6.618 134.814 8.73193 134.814 11.1226C134.814 14.0223 135.711 16.4572 137.504 18.4272C139.408 20.4637 141.887 21.4819 144.941 21.4819C147.177 21.4598 149.313 20.84 151.35 19.6226ZM170.674 7.20459L170.508 1.22803H155.201V2.09131H157.857V20.2866H155.201V21.1499H170.508L170.674 15.1733H170.01L169.545 16.7339C168.992 18.6154 168.173 19.7443 167.088 20.1206C166.756 20.2313 166.402 20.2866 166.025 20.2866H160.713V11.355H167.553V10.3921H160.713V2.09131H166.025C167.619 2.09131 168.759 3.16488 169.445 5.31201C169.49 5.44482 169.523 5.5555 169.545 5.64404L170.01 7.20459H170.674ZM186.346 21.1499C186.346 20.6629 186.169 20.3862 185.814 20.3198C185.704 20.2977 185.593 20.2866 185.482 20.2866H183.225V2.09131H185.15C186.943 2.09131 188.139 3.17594 188.736 5.34521C188.736 5.43376 188.747 5.50016 188.77 5.54443L189.301 7.76904H190.23L190.064 1.22803H173.662L173.496 7.76904H174.426L174.957 5.54443C175.665 3.37516 176.872 2.22412 178.576 2.09131H180.369V20.2866H177.215V21.1499H186.346Z" fill="#4FB9AC"/>
</svg>
