<svg width="80" height="80" viewBox="0 0 80 80" fill="none" xmlns="http://www.w3.org/2000/svg">
<mask id="mask0_1633_23679" style="mask-type:alpha" maskUnits="userSpaceOnUse" x="0" y="0" width="80" height="80">
<circle cx="40" cy="40" r="40" fill="#C4C4C4"/>
</mask>
<g mask="url(#mask0_1633_23679)">
<rect width="80" height="80" fill="#66B7E7"/>
<path fill-rule="evenodd" clip-rule="evenodd" d="M28.6436 30.3934C28.6436 29.4294 28.6451 28.7819 28.7101 28.2988C28.7721 27.8374 28.8794 27.6399 29.0097 27.5095C29.14 27.3792 29.3375 27.272 29.7989 27.21C30.282 27.145 30.9295 27.1434 31.8936 27.1434L38.9646 27.1434C39.8433 27.1434 40.0737 27.1567 40.2714 27.2386C40.4691 27.3205 40.6414 27.474 41.2627 28.0953L52.112 38.9446C52.7936 39.6262 53.2504 40.0853 53.546 40.4727C53.8285 40.8429 53.8923 41.0584 53.8923 41.2427C53.8923 41.427 53.8285 41.6424 53.546 42.0126C53.2504 42.4001 52.7936 42.8591 52.112 43.5408L45.0409 50.6118C44.3592 51.2935 43.9002 51.7503 43.5127 52.0459C43.1426 52.3283 42.9271 52.3922 42.7428 52.3922C42.5585 52.3922 42.343 52.3283 41.9729 52.0459C41.5854 51.7503 41.1264 51.2935 40.4447 50.6118L29.5955 39.7626C28.9741 39.1413 28.8206 38.9689 28.7387 38.7713C28.6568 38.5736 28.6436 38.3432 28.6436 37.4645L28.6436 30.3934ZM27.949 26.4489C27.4935 26.9044 27.3079 27.4712 27.2235 28.099C27.1435 28.6937 27.1435 29.443 27.1436 30.3414V30.3934V37.4645L27.1435 37.5854L27.1435 37.5854C27.1428 38.284 27.1423 38.8369 27.3529 39.3453C27.5635 39.8538 27.9548 40.2443 28.4493 40.7379L28.5348 40.8233L39.384 51.6725L39.4208 51.7093C40.0561 52.3446 40.5859 52.8744 41.063 53.2384C41.5666 53.6227 42.0987 53.8922 42.7428 53.8922C43.3869 53.8922 43.919 53.6227 44.4226 53.2384C44.8997 52.8744 45.4295 52.3446 46.0648 51.7093L46.1016 51.6725L53.1726 44.6014L53.2094 44.5647C53.8447 43.9294 54.3745 43.3996 54.7386 42.9225C55.1228 42.4189 55.3923 41.8868 55.3923 41.2427C55.3923 40.5985 55.1228 40.0665 54.7386 39.5629C54.3745 39.0858 53.8447 38.556 53.2094 37.9207L53.2094 37.9207L53.1726 37.8839L42.3234 27.0347L42.238 26.9492C41.7445 26.4547 41.3539 26.0634 40.8454 25.8528C40.337 25.6422 39.7841 25.6427 39.0855 25.6434L39.0855 25.6434L38.9646 25.6434H31.8936H31.8415C30.9431 25.6434 30.1939 25.6434 29.5991 25.7233C28.9713 25.8077 28.4045 25.9934 27.949 26.4489ZM35.1893 35.9399C35.1893 34.6972 36.1966 33.6899 37.4393 33.6899C38.6819 33.6899 39.6893 34.6972 39.6893 35.9399C39.6893 37.1825 38.6819 38.1899 37.4393 38.1899C36.1966 38.1899 35.1893 37.1825 35.1893 35.9399ZM37.4393 32.1899C35.3682 32.1899 33.6893 33.8688 33.6893 35.9399C33.6893 38.0109 35.3682 39.6899 37.4393 39.6899C39.5103 39.6899 41.1893 38.0109 41.1893 35.9399C41.1893 33.8688 39.5103 32.1899 37.4393 32.1899Z" fill="white"/>
</g>
</svg>
