<svg width="24" height="24" viewBox="0 0 24 24" fill="none" xmlns="http://www.w3.org/2000/svg">
<path fill-rule="evenodd" clip-rule="evenodd" d="M20.4697 7.53033C20.7626 7.82322 21.2374 7.82322 21.5303 7.53033C21.8232 7.23744 21.8232 6.76256 21.5303 6.46967L17.5303 2.46967C17.2374 2.17678 16.7626 2.17678 16.4697 2.46967L12.4697 6.46967C12.1768 6.76256 12.1768 7.23744 12.4697 7.53033C12.7626 7.82322 13.2374 7.82322 13.5303 7.53033L16.25 4.81066L16.25 17C16.25 17.4142 16.5858 17.75 17 17.75C17.4142 17.75 17.75 17.4142 17.75 17L17.75 4.81066L20.4697 7.53033ZM10.4697 16.4697C10.7626 16.1768 11.2374 16.1768 11.5303 16.4697C11.8232 16.7626 11.8232 17.2374 11.5303 17.5303L7.53033 21.5303C7.23744 21.8232 6.76256 21.8232 6.46967 21.5303L2.46967 17.5303C2.17678 17.2374 2.17678 16.7626 2.46967 16.4697C2.76256 16.1768 3.23744 16.1768 3.53033 16.4697L6.25 19.1893L6.25 7C6.25 6.58579 6.58579 6.25 7 6.25C7.41421 6.25 7.75 6.58579 7.75 7L7.75 19.1893L10.4697 16.4697Z" fill="black"/>
</svg>
