<svg width="24" height="24" viewBox="0 0 24 24" fill="none" xmlns="http://www.w3.org/2000/svg">
<path fill-rule="evenodd" clip-rule="evenodd" d="M4 2.25C2.48122 2.25 1.25 3.48122 1.25 5V21C1.25 21.4142 1.58579 21.75 2 21.75H22C22.4142 21.75 22.75 21.4142 22.75 21V16V12V7C22.75 6.58579 22.4142 6.25 22 6.25H18.75V3C18.75 2.58579 18.4142 2.25 18 2.25H4ZM21.25 11.25V7.75H18H12H4C3.54989 7.75 3.12503 7.64186 2.75 7.45015V20.25H21.25V16.75H18C17.5858 16.75 17.25 16.4142 17.25 16V12C17.25 11.5858 17.5858 11.25 18 11.25H21.25ZM21.25 15.25V12.75H18.75V15.25H21.25ZM17.25 3.75H4C3.30964 3.75 2.75 4.30964 2.75 5C2.75 5.69036 3.30964 6.25 4 6.25H12H17.25V3.75ZM9.96967 10.9697C10.2626 10.6768 10.7374 10.6768 11.0303 10.9697L13.5303 13.4697C13.8232 13.7626 13.8232 14.2374 13.5303 14.5303L11.0303 17.0303C10.7374 17.3232 10.2626 17.3232 9.96967 17.0303C9.67678 16.7374 9.67678 16.2626 9.96967 15.9697L11.1893 14.75H7C6.58579 14.75 6.25 14.4142 6.25 14C6.25 13.5858 6.58579 13.25 7 13.25H11.1893L9.96967 12.0303C9.67678 11.7374 9.67678 11.2626 9.96967 10.9697Z" fill="black"/>
</svg>
