<svg width="24" height="24" viewBox="0 0 24 24" fill="none" xmlns="http://www.w3.org/2000/svg">
<path fill-rule="evenodd" clip-rule="evenodd" d="M22.7501 12C22.7501 8.82436 20.1757 6.24999 17.0001 6.24999L16.0001 6.24999C15.5859 6.24999 15.2501 6.58578 15.2501 6.99999C15.2501 7.41421 15.5859 7.74999 16.0001 7.74999L17.0001 7.74999C19.3473 7.74999 21.2501 9.65278 21.2501 12C21.2501 14.3472 19.3473 16.25 17.0001 16.25L14.6155 16.25C12.4807 16.25 10.7501 14.5194 10.7501 12.3846V12C10.7501 11.5858 10.4143 11.25 10.0001 11.25C9.58589 11.25 9.2501 11.5858 9.2501 12V12.3846C9.2501 15.3478 11.6523 17.75 14.6155 17.75H17.0001C20.1757 17.75 22.7501 15.1756 22.7501 12ZM9.38479 7.75008C11.5196 7.75008 13.2502 9.48067 13.2502 11.6155L13.2502 12.0001C13.2502 12.4143 13.586 12.7501 14.0002 12.7501C14.4144 12.7501 14.7502 12.4143 14.7502 12.0001V11.6155C14.7502 8.65224 12.348 6.25008 9.38479 6.25008L7.00018 6.25008C3.82454 6.25008 1.25018 8.82444 1.25018 12.0001C1.25018 15.1757 3.82454 17.7501 7.00018 17.7501L8.00018 17.7501C8.41439 17.7501 8.75018 17.4143 8.75018 17.0001C8.75018 16.5859 8.41439 16.2501 8.00018 16.2501H7.00018C4.65297 16.2501 2.75018 14.3473 2.75018 12.0001C2.75018 9.65287 4.65297 7.75008 7.00018 7.75008L9.38479 7.75008Z" fill="#4FB9AC"/>
</svg>
