<svg width="16" height="16" viewBox="0 0 16 16" fill="none" xmlns="http://www.w3.org/2000/svg">
<path d="M6.875 6.875L5.75 5.75V5.75C5.29872 5.29872 5.07307 5.07307 4.99739 4.89929C4.77122 4.37997 5.02112 3.77665 5.54826 3.56937C5.72466 3.5 6.04377 3.5 6.68198 3.5H8C9.76248 3.5 10.6437 3.5 10.9368 3.97479C10.993 4.0659 11.0342 4.16546 11.0589 4.26966C11.1874 4.81259 10.5643 5.43572 9.31802 6.68198L6.68198 9.31802C5.43572 10.5643 4.81259 11.1874 4.9411 11.7303C4.96577 11.8345 5.00701 11.9341 5.06324 12.0252C5.35628 12.5 6.23752 12.5 8 12.5H9.31802C9.95623 12.5 10.2753 12.5 10.4517 12.4306C10.9789 12.2233 11.2288 11.62 11.0026 11.1007C10.9269 10.9269 10.7013 10.7013 10.25 10.25V10.25L9.125 9.125" stroke="#F9B500" stroke-width="1.5" stroke-linecap="round" stroke-linejoin="round"/>
</svg>
