<svg width="21" height="20" viewBox="0 0 21 20" fill="none" xmlns="http://www.w3.org/2000/svg">
<path fill-rule="evenodd" clip-rule="evenodd" d="M9.74541 1.08281C9.79115 0.671133 9.4945 0.300319 9.08282 0.254577C8.67114 0.208834 8.30033 0.505486 8.25459 0.917166L7.66205 6.25005H2C1.58579 6.25005 1.25 6.58583 1.25 7.00005C1.25 7.41426 1.58579 7.75005 2 7.75005H7.49538L6.99538 12.25H1C0.585786 12.25 0.25 12.5858 0.25 13C0.25 13.4143 0.585786 13.75 1 13.75H6.82871L6.25459 18.9172C6.20885 19.3288 6.5055 19.6997 6.91718 19.7454C7.32886 19.7911 7.69967 19.4945 7.74541 19.0828L8.33794 13.75L12.8287 13.75L12.2546 18.9172C12.2088 19.3288 12.5055 19.6997 12.9172 19.7454C13.3289 19.7911 13.6997 19.4945 13.7454 19.0828L14.3379 13.75H19C19.4142 13.75 19.75 13.4143 19.75 13C19.75 12.5858 19.4142 12.25 19 12.25H14.5046L15.0046 7.75005H20C20.4142 7.75005 20.75 7.41426 20.75 7.00005C20.75 6.58583 20.4142 6.25005 20 6.25005H15.1713L15.7454 1.08281C15.7912 0.671133 15.4945 0.300319 15.0828 0.254577C14.6711 0.208834 14.3003 0.505486 14.2546 0.917166L13.662 6.25005L9.17128 6.25005L9.74541 1.08281ZM12.9954 12.25L13.4954 7.75005L9.00461 7.75005L8.50461 12.25L12.9954 12.25Z" fill="black"/>
</svg>
