<svg width="11" height="10" viewBox="0 0 11 10" fill="none" xmlns="http://www.w3.org/2000/svg">
<path d="M5.75516 6.25965V9.10079C5.75516 9.32171 5.57608 9.5 5.35517 9.5H4.86945C4.64853 9.5 4.46945 9.32183 4.46945 9.10091V6.75913C4.46945 6.48299 4.24547 6.26263 3.96943 6.25504C3.12502 6.23181 2.49366 6.09181 1.8623 5.25C1.2247 4.39986 0.86259 3.13109 0.706032 2.4658C0.650837 2.23124 0.824674 2.01577 1.06547 2.02469C1.81035 2.05228 3.29251 2.21033 4.1123 3C5.1123 3.96326 5.75516 5.01336 5.75516 6.25965Z" stroke="#66B7E7" stroke-linejoin="round"/>
<path d="M5.8623 3.75C5.77356 3.56841 5.64917 3.3928 5.52477 3.23835C5.28517 2.94085 5.20314 2.54302 5.41499 2.22516C5.69748 1.80132 6.11394 1.3344 6.6123 1.02523C7.22119 0.647487 7.64018 0.609307 8.32659 0.52671C8.62695 0.490568 8.95355 0.497897 9.2128 0.509483C9.4335 0.519345 9.61466 0.705999 9.60103 0.926492C9.5795 1.2748 9.52305 1.61757 9.39802 2.02226C9.115 2.93831 8.90501 3.20617 8.32659 3.75C8.02278 4.03564 7.55233 4.27922 7.148 4.45445C6.70233 4.64759 6.2009 4.43456 5.98514 3.99939C5.94371 3.91584 5.90214 3.8315 5.8623 3.75Z" stroke="#66B7E7" stroke-linejoin="round"/>
</svg>
