<svg width="18" height="18" viewBox="0 0 18 18" fill="none" xmlns="http://www.w3.org/2000/svg">
<path fill-rule="evenodd" clip-rule="evenodd" d="M6.5625 5.25C6.5625 3.90381 7.65381 2.8125 9 2.8125C10.3462 2.8125 11.4375 3.90381 11.4375 5.25C11.4375 6.59619 10.3462 7.6875 9 7.6875C7.65381 7.6875 6.5625 6.59619 6.5625 5.25ZM9 1.6875C7.03249 1.6875 5.4375 3.28249 5.4375 5.25C5.4375 7.21751 7.03249 8.8125 9 8.8125C10.9675 8.8125 12.5625 7.21751 12.5625 5.25C12.5625 3.28249 10.9675 1.6875 9 1.6875ZM4.3125 14.25C4.3125 12.9038 5.40381 11.8125 6.75 11.8125H11.25C12.5962 11.8125 13.6875 12.9038 13.6875 14.25C13.6875 14.7678 13.2678 15.1875 12.75 15.1875H5.25C4.73223 15.1875 4.3125 14.7678 4.3125 14.25ZM12.75 16.3125C13.8891 16.3125 14.8125 15.3891 14.8125 14.25C14.8125 12.2825 13.2175 10.6875 11.25 10.6875H6.75C4.78249 10.6875 3.1875 12.2825 3.1875 14.25C3.1875 15.3891 4.11091 16.3125 5.25 16.3125H12.75Z" fill="white"/>
</svg>
