<svg width="24" height="24" viewBox="0 0 24 24" fill="none" xmlns="http://www.w3.org/2000/svg">
<path fill-rule="evenodd" clip-rule="evenodd" d="M4 2.25C2.48122 2.25 1.25 3.48122 1.25 5V21C1.25 21.4142 1.58579 21.75 2 21.75H22C22.4142 21.75 22.75 21.4142 22.75 21V16V12V7C22.75 6.58579 22.4142 6.25 22 6.25H18.75V3C18.75 2.58579 18.4142 2.25 18 2.25H4ZM21.25 11.25V7.75H18H12H4C3.54989 7.75 3.12503 7.64186 2.75 7.45015V20.25H21.25V16.75H18C17.5858 16.75 17.25 16.4142 17.25 16V12C17.25 11.5858 17.5858 11.25 18 11.25H21.25ZM21.25 15.25V12.75H18.75V15.25H21.25ZM17.25 3.75H4C3.30964 3.75 2.75 4.30964 2.75 5C2.75 5.69036 3.30964 6.25 4 6.25H12H17.25V3.75ZM13.0303 13.9697C13.3232 14.2626 13.3232 14.7374 13.0303 15.0303L10.5303 17.5303C10.2374 17.8232 9.76256 17.8232 9.46967 17.5303L6.96967 15.0303C6.67678 14.7374 6.67678 14.2626 6.96967 13.9697C7.26256 13.6768 7.73744 13.6768 8.03033 13.9697L9.25 15.1893V11C9.25 10.5858 9.58579 10.25 10 10.25C10.4142 10.25 10.75 10.5858 10.75 11V15.1893L11.9697 13.9697C12.2626 13.6768 12.7374 13.6768 13.0303 13.9697Z" fill="black"/>
</svg>
