<svg width="16" height="16" viewBox="0 0 16 16" fill="none" xmlns="http://www.w3.org/2000/svg">
<path fill-rule="evenodd" clip-rule="evenodd" d="M5.37806 5.58855C5.37806 4.79925 6.01791 4.15939 6.80721 4.15939C7.59651 4.15939 8.23637 4.79925 8.23637 5.58855C8.23637 6.37785 7.59651 7.0177 6.80721 7.0177C6.01791 7.0177 5.37806 6.37785 5.37806 5.58855ZM6.80721 3.15939C5.46563 3.15939 4.37806 4.24696 4.37806 5.58855C4.37806 6.93013 5.46563 8.0177 6.80721 8.0177C8.1488 8.0177 9.23637 6.93013 9.23637 5.58855C9.23637 4.24696 8.1488 3.15939 6.80721 3.15939ZM3.93115 11.376C3.93115 10.5867 4.57101 9.94689 5.36031 9.94689H8.25404C9.04334 9.94689 9.6832 10.5867 9.6832 11.376C9.6832 11.6326 9.4752 11.8406 9.21862 11.8406H4.39573C4.13915 11.8406 3.93115 11.6326 3.93115 11.376ZM9.21862 12.8406C10.0275 12.8406 10.6832 12.1849 10.6832 11.376C10.6832 10.0345 9.59563 8.94689 8.25404 8.94689H5.36031C4.01872 8.94689 2.93115 10.0345 2.93115 11.376C2.93115 12.1849 3.58687 12.8406 4.39573 12.8406H9.21862Z" fill="#66B7E7"/>
<path d="M9.69345 7.1883C9.59147 7.1883 9.49368 7.23488 9.4341 7.31766C9.42955 7.32399 9.42497 7.3303 9.42036 7.33659C9.27964 7.52874 9.35574 7.81697 9.59368 7.82735C9.62675 7.82879 9.66002 7.82952 9.69345 7.82952C10.936 7.82952 11.6219 6.83106 11.6219 5.58854C11.6219 4.34603 10.6147 3.33878 9.37218 3.33878C9.2903 3.33878 9.20945 3.34315 9.12984 3.35168C8.89306 3.37703 8.83532 3.6694 8.98789 3.85224C9.06245 3.94159 9.1772 3.9875 9.29345 3.98189C9.31953 3.98064 9.34578 3.98 9.37218 3.98C10.2606 3.98 10.9807 4.70017 10.9807 5.58854C10.9807 6.47692 10.5818 7.1883 9.69345 7.1883Z" fill="#66B7E7"/>
<path d="M11.3041 12.02C11.1782 12.02 11.0685 12.1059 11.0255 12.2243C10.9518 12.4269 11.0912 12.6612 11.3067 12.6612H11.7997C11.8857 12.6612 11.9521 12.6612 12.0114 12.6552C12.5672 12.5991 13.0067 12.1596 13.0629 11.6038C13.0688 11.5445 13.0688 11.4782 13.0688 11.3921L13.0688 11.3551C13.0688 11.1715 13.0688 11.0547 13.0585 10.9527C12.9615 9.99268 12.2667 9.24002 11.3067 9.14303C11.2047 9.13272 11.0879 9.13273 10.9043 9.13274C10.6938 9.13274 10.5825 9.40784 10.7074 9.57725C10.7258 9.6022 10.7438 9.62746 10.7614 9.65303C10.8124 9.72712 10.8946 9.77492 10.9845 9.7765L11.2423 9.78101C11.1767 9.77438 11.4537 9.78101 11.2423 9.78101C11.8991 9.84737 12.3542 10.3603 12.4205 11.0171C12.4272 11.0827 12.4276 11.1646 12.4276 11.376C12.4276 11.4856 12.4272 11.5166 12.4249 11.5393C12.3993 11.792 12.1996 11.9917 11.9469 12.0173C11.9242 12.0196 11.8932 12.02 11.7836 12.02H11.3041Z" fill="#66B7E7"/>
</svg>
