<svg width="13" height="12" viewBox="0 0 13 12" fill="none" xmlns="http://www.w3.org/2000/svg">
<path d="M6.14418 11C6.12474 10.9889 6.1053 10.9805 6.08864 10.9694C3.85333 9.6596 2.16504 7.5016 1.47917 4.9209C1.37088 4.5121 1.28757 4.09775 1.23204 3.68061C1.1765 3.25791 1.14873 2.83243 1.14318 2.40416C1.14318 2.33186 1.13485 2.34298 1.19871 2.30683C2.03731 1.82851 2.92588 1.4809 3.86721 1.2612C4.21431 1.18056 4.56418 1.11938 4.91961 1.07488C5.40555 1.01648 5.89427 0.991454 6.38576 1.00258C6.66066 1.00814 6.93279 1.02761 7.20769 1.05541C8.57665 1.2028 9.8623 1.61438 11.0619 2.29015C11.0785 2.30127 11.0952 2.30961 11.1146 2.32074C11.1341 2.33186 11.1452 2.34576 11.1424 2.36801C11.1424 2.39304 11.1424 2.41529 11.1424 2.44032C11.1396 2.68782 11.1285 2.93532 11.1091 3.18004C11.0785 3.53322 11.0313 3.88362 10.9647 4.23401C10.8203 4.98208 10.5954 5.70512 10.2844 6.40035C9.79288 7.50438 9.1209 8.48883 8.2712 9.35091C7.66031 9.97384 6.97722 10.505 6.22748 10.9499C6.19971 10.9666 6.17195 10.9805 6.14418 11ZM1.60413 2.64888C1.60413 2.67113 1.60413 2.6906 1.60413 2.70728C1.60413 3.05768 1.62634 3.40808 1.66799 3.75569C1.70687 4.06994 1.75963 4.3814 1.83182 4.69008C1.84293 4.7457 1.86237 4.79576 1.88458 4.8486C2.31221 5.76074 3.3063 6.2474 4.28928 6.02493C5.03902 5.85529 5.64713 5.27686 5.85539 4.53435C5.9137 4.32856 5.93314 4.11999 5.9387 3.90864C5.94425 3.7696 5.95536 3.63055 5.98312 3.49429C6.14418 2.65445 6.70509 1.962 7.48814 1.63107C7.53257 1.6116 7.577 1.5977 7.62143 1.57823C7.62698 1.57545 7.63809 1.57545 7.63531 1.56432C7.51313 1.51983 6.77173 1.44753 6.32745 1.4364C5.37501 1.41694 4.43923 1.54208 3.52566 1.81739C2.85368 2.01761 2.21502 2.29571 1.60413 2.64888ZM8.64051 8.37481C8.6655 8.36368 8.67661 8.34144 8.69049 8.32475C8.88209 8.08559 9.06258 7.83809 9.22919 7.57946C9.82898 6.65342 10.2455 5.65228 10.4787 4.57328C10.5565 4.2062 10.6148 3.83634 10.6454 3.4637C10.6676 3.21063 10.6815 2.95479 10.6815 2.69894C10.6815 2.68226 10.6787 2.66279 10.6787 2.6461C10.6537 2.6322 10.6315 2.61829 10.6093 2.60439C10.4121 2.49315 10.215 2.39026 10.0095 2.29571C9.71513 2.15944 9.41801 2.03152 9.10701 1.93419C8.72937 1.81461 8.34895 1.80348 7.96575 1.89525C6.8717 2.15944 6.17195 3.23288 6.38021 4.33969C6.49405 4.95427 6.82449 5.42703 7.35208 5.76074C7.38818 5.78299 7.42428 5.80523 7.46038 5.8247C7.84635 6.06108 8.14624 6.3781 8.36283 6.77578C8.59053 7.19292 8.69049 7.64064 8.6655 8.11618C8.65717 8.19961 8.64884 8.28304 8.64051 8.37481ZM6.14695 10.5106C6.16639 10.4994 6.18861 10.4883 6.21082 10.4744C6.81061 10.1212 7.36319 9.70131 7.87134 9.22021C7.90466 9.18962 7.92965 9.15347 7.94909 9.11453C7.98241 9.05057 8.01573 8.98661 8.04628 8.92265C8.28508 8.42486 8.33784 7.90761 8.17956 7.37646C7.87134 6.34473 6.87725 5.7524 5.88038 5.87476C5.59715 5.91091 5.33058 5.9999 5.08067 6.14173C4.60584 6.40869 4.10046 6.51993 3.55899 6.46709C3.29241 6.44207 3.03973 6.37254 2.79537 6.26687C2.60377 6.18344 2.42328 6.07498 2.25945 5.94706C2.24834 5.93872 2.23446 5.93038 2.21224 5.91647C2.22057 5.9415 2.22335 5.95262 2.22613 5.96653C2.43994 6.50881 2.70096 7.02606 3.01474 7.51828C3.3535 8.04944 3.74225 8.53888 4.18099 8.98939C4.61972 9.4399 5.10288 9.84036 5.62492 10.1908C5.85261 10.3465 6.07476 10.4827 6.14695 10.5106Z" fill="#0B0118" stroke="#0B0118" stroke-width="0.4"/>
</svg>
