<svg width="11" height="12" viewBox="0 0 11 12" fill="none" xmlns="http://www.w3.org/2000/svg">
<path fill-rule="evenodd" clip-rule="evenodd" d="M3.30921 3.58855C3.30921 2.79925 3.94906 2.15939 4.73836 2.15939C5.52767 2.15939 6.16752 2.79925 6.16752 3.58855C6.16752 4.37785 5.52767 5.0177 4.73836 5.0177C3.94906 5.0177 3.30921 4.37785 3.30921 3.58855ZM4.73836 1.15939C3.39678 1.15939 2.30921 2.24696 2.30921 3.58855C2.30921 4.93013 3.39678 6.0177 4.73836 6.0177C6.07995 6.0177 7.16752 4.93013 7.16752 3.58855C7.16752 2.24696 6.07995 1.15939 4.73836 1.15939ZM1.8623 9.37605C1.8623 8.58674 2.50216 7.94689 3.29146 7.94689H6.18519C6.97449 7.94689 7.61435 8.58674 7.61435 9.37605C7.61435 9.63262 7.40635 9.84062 7.14977 9.84062H2.32688C2.0703 9.84062 1.8623 9.63262 1.8623 9.37605ZM7.14977 10.8406C7.95863 10.8406 8.61435 10.1849 8.61435 9.37605C8.61435 8.03446 7.52678 6.94689 6.18519 6.94689H3.29146C1.94987 6.94689 0.862305 8.03446 0.862305 9.37605C0.862305 10.1849 1.51802 10.8406 2.32688 10.8406H7.14977Z" fill="#66B7E7"/>
<path d="M7.6246 5.1883C7.52262 5.1883 7.42483 5.23488 7.36526 5.31766C7.3607 5.32399 7.35612 5.3303 7.35151 5.33659C7.2108 5.52874 7.28689 5.81697 7.52483 5.82735C7.55791 5.82879 7.59117 5.82952 7.6246 5.82952C8.86712 5.82952 9.5531 4.83106 9.5531 3.58854C9.5531 2.34603 8.54584 1.33878 7.30333 1.33878C7.22145 1.33878 7.1406 1.34315 7.06099 1.35168C6.82421 1.37703 6.76647 1.6694 6.91904 1.85224C6.9936 1.94159 7.10835 1.9875 7.2246 1.98189C7.25069 1.98064 7.27693 1.98 7.30333 1.98C8.1917 1.98 8.91187 2.70017 8.91187 3.58854C8.91187 4.47692 8.51298 5.1883 7.6246 5.1883Z" fill="#66B7E7"/>
<path d="M9.23521 10.02C9.10931 10.02 8.99967 10.1059 8.95664 10.2243C8.88296 10.4269 9.0223 10.6612 9.23786 10.6612H9.73083C9.81688 10.6612 9.88321 10.6612 9.94255 10.6552C10.4983 10.5991 10.9378 10.1596 10.994 9.6038C11 9.54446 11 9.47816 11 9.39211L11 9.35514C11 9.17152 11 9.05471 10.9897 8.95268C10.8927 7.99268 10.1979 7.24002 9.23786 7.14303C9.13584 7.13272 9.01906 7.13273 8.83544 7.13274C8.62494 7.13274 8.51365 7.40784 8.63858 7.57725C8.65698 7.6022 8.67498 7.62746 8.69258 7.65303C8.74356 7.72712 8.82576 7.77492 8.91568 7.7765L9.17341 7.78101C9.10781 7.77438 9.38482 7.78101 9.17341 7.78101C9.83024 7.84737 10.2853 8.3603 10.3517 9.01713C10.3583 9.08273 10.3587 9.1646 10.3587 9.37601C10.3587 9.48563 10.3583 9.5166 10.356 9.53934C10.3305 9.79197 10.1307 9.99175 9.87809 10.0173C9.85535 10.0196 9.82439 10.02 9.71477 10.02H9.23521Z" fill="#66B7E7"/>
</svg>
