<svg width="32" height="32" viewBox="0 0 32 32" fill="none" xmlns="http://www.w3.org/2000/svg">
<rect width="32" height="32" rx="16" fill="#4FB9AC"/>
<path fill-rule="evenodd" clip-rule="evenodd" d="M13.5625 12.25C13.5625 10.9038 14.6538 9.8125 16 9.8125C17.3462 9.8125 18.4375 10.9038 18.4375 12.25C18.4375 13.5962 17.3462 14.6875 16 14.6875C14.6538 14.6875 13.5625 13.5962 13.5625 12.25ZM16 8.6875C14.0325 8.6875 12.4375 10.2825 12.4375 12.25C12.4375 14.2175 14.0325 15.8125 16 15.8125C17.9675 15.8125 19.5625 14.2175 19.5625 12.25C19.5625 10.2825 17.9675 8.6875 16 8.6875ZM11.3125 21.25C11.3125 19.9038 12.4038 18.8125 13.75 18.8125H18.25C19.5962 18.8125 20.6875 19.9038 20.6875 21.25C20.6875 21.7678 20.2678 22.1875 19.75 22.1875H12.25C11.7322 22.1875 11.3125 21.7678 11.3125 21.25ZM19.75 23.3125C20.8891 23.3125 21.8125 22.3891 21.8125 21.25C21.8125 19.2825 20.2175 17.6875 18.25 17.6875H13.75C11.7825 17.6875 10.1875 19.2825 10.1875 21.25C10.1875 22.3891 11.1109 23.3125 12.25 23.3125H19.75Z" fill="white"/>
</svg>
