<svg width="24" height="24" viewBox="0 0 24 24" fill="none" xmlns="http://www.w3.org/2000/svg">
<path fill-rule="evenodd" clip-rule="evenodd" d="M12 3.75C7.44365 3.75 3.75 7.44365 3.75 12C3.75 16.5563 7.44365 20.25 12 20.25C16.5563 20.25 20.25 16.5563 20.25 12C20.25 7.44365 16.5563 3.75 12 3.75ZM2.25 12C2.25 6.61522 6.61522 2.25 12 2.25C17.3848 2.25 21.75 6.61522 21.75 12C21.75 17.3848 17.3848 21.75 12 21.75C6.61522 21.75 2.25 17.3848 2.25 12ZM11.093 7.25579C11.504 7.30717 11.7956 7.68201 11.7442 8.09303L11.5371 9.75L13.0254 9.75L13.2558 7.90697C13.3072 7.49596 13.682 7.20441 14.093 7.25579C14.504 7.30717 14.7956 7.68201 14.7442 8.09303L14.5371 9.75H16C16.4142 9.75 16.75 10.0858 16.75 10.5C16.75 10.9142 16.4142 11.25 16 11.25H14.3496L14.1621 12.75H15.5C15.9142 12.75 16.25 13.0858 16.25 13.5C16.25 13.9142 15.9142 14.25 15.5 14.25H13.9746L13.7442 16.093C13.6928 16.504 13.318 16.7956 12.907 16.7442C12.496 16.6928 12.2044 16.318 12.2558 15.907L12.4629 14.25H10.9746L10.7442 16.093C10.6928 16.504 10.318 16.7956 9.90697 16.7442C9.49596 16.6928 9.20441 16.318 9.25579 15.907L9.46291 14.25H8C7.58579 14.25 7.25 13.9142 7.25 13.5C7.25 13.0858 7.58579 12.75 8 12.75H9.65041L9.83791 11.25H8.5C8.08579 11.25 7.75 10.9142 7.75 10.5C7.75 10.0858 8.08579 9.75 8.5 9.75H10.0254L10.2558 7.90697C10.3072 7.49596 10.682 7.20441 11.093 7.25579ZM11.1621 12.75H12.6504L12.8379 11.25H11.3496L11.1621 12.75Z" fill="black"/>
</svg>
