<svg width="24" height="24" viewBox="0 0 24 24" fill="none" xmlns="http://www.w3.org/2000/svg">
<path fill-rule="evenodd" clip-rule="evenodd" d="M10.7454 3.08281C10.7912 2.67113 10.4945 2.30032 10.0828 2.25458C9.67114 2.20883 9.30033 2.50549 9.25459 2.91717L8.66205 8.25005H3C2.58579 8.25005 2.25 8.58583 2.25 9.00005C2.25 9.41426 2.58579 9.75005 3 9.75005H8.49538L7.99538 14.25H2C1.58579 14.25 1.25 14.5858 1.25 15C1.25 15.4143 1.58579 15.75 2 15.75H7.82871L7.25459 20.9172C7.20885 21.3288 7.5055 21.6997 7.91718 21.7454C8.32886 21.7911 8.69967 21.4945 8.74541 21.0828L9.33794 15.75L13.8287 15.75L13.2546 20.9172C13.2088 21.3288 13.5055 21.6997 13.9172 21.7454C14.3289 21.7911 14.6997 21.4945 14.7454 21.0828L15.3379 15.75H20C20.4142 15.75 20.75 15.4143 20.75 15C20.75 14.5858 20.4142 14.25 20 14.25H15.5046L16.0046 9.75005H21C21.4142 9.75005 21.75 9.41426 21.75 9.00005C21.75 8.58583 21.4142 8.25005 21 8.25005H16.1713L16.7454 3.08281C16.7912 2.67113 16.4945 2.30032 16.0828 2.25458C15.6711 2.20883 15.3003 2.50549 15.2546 2.91717L14.662 8.25005L10.1713 8.25005L10.7454 3.08281ZM13.9954 14.25L14.4954 9.75005L10.0046 9.75005L9.50461 14.25L13.9954 14.25Z" fill="black"/>
<path d="M10.0828 2.25458L10.138 1.75763L10.138 1.75763L10.0828 2.25458ZM10.7454 3.08281L11.2424 3.13803L11.2424 3.13803L10.7454 3.08281ZM9.25459 2.91717L9.75153 2.97238L9.75153 2.97238L9.25459 2.91717ZM8.66205 8.25005V8.75005C8.91682 8.75005 9.13085 8.55848 9.15899 8.30526L8.66205 8.25005ZM8.49538 9.75005L8.99232 9.80526C9.00803 9.66391 8.96279 9.52256 8.86794 9.41658C8.77309 9.31061 8.6376 9.25005 8.49538 9.25005V9.75005ZM7.99538 14.25V14.75C8.25015 14.75 8.46419 14.5585 8.49232 14.3053L7.99538 14.25ZM7.82871 15.75L8.32565 15.8053C8.34136 15.6639 8.29613 15.5226 8.20128 15.4166C8.10642 15.3106 7.97093 15.25 7.82871 15.25V15.75ZM7.25459 20.9172L6.75765 20.862L6.75765 20.862L7.25459 20.9172ZM8.74541 21.0828L8.24847 21.0276L8.24847 21.0276L8.74541 21.0828ZM9.33794 15.75L9.33794 15.25C9.08317 15.25 8.86914 15.4416 8.841 15.6948L9.33794 15.75ZM13.8287 15.75L14.3257 15.8053C14.3414 15.6639 14.2961 15.5226 14.2013 15.4166C14.1064 15.3106 13.9709 15.25 13.8287 15.25L13.8287 15.75ZM13.2546 20.9172L12.7576 20.8619L12.7576 20.862L13.2546 20.9172ZM14.7454 21.0828L14.2485 21.0276L14.2485 21.0276L14.7454 21.0828ZM15.3379 15.75V15.25C15.0832 15.25 14.8691 15.4416 14.841 15.6948L15.3379 15.75ZM15.5046 14.25L15.0077 14.1948C14.992 14.3362 15.0372 14.4775 15.132 14.5835C15.2269 14.6895 15.3624 14.75 15.5046 14.75V14.25ZM16.0046 9.75005V9.25005C15.7498 9.25005 15.5358 9.44161 15.5077 9.69483L16.0046 9.75005ZM21 9.75005L21 9.25005H21V9.75005ZM21 8.25005L21 7.75005H21V8.25005ZM16.1713 8.25005L15.6743 8.19483C15.6586 8.33618 15.7039 8.47753 15.7987 8.58351C15.8936 8.68948 16.0291 8.75005 16.1713 8.75005V8.25005ZM16.7454 3.08281L17.2424 3.13803L17.2424 3.13803L16.7454 3.08281ZM16.0828 2.25458L16.138 1.75763L16.138 1.75763L16.0828 2.25458ZM15.2546 2.91717L15.7515 2.97238L15.7515 2.97238L15.2546 2.91717ZM14.662 8.25005L14.662 8.75005C14.9168 8.75005 15.1309 8.55848 15.159 8.30526L14.662 8.25005ZM10.1713 8.25005L9.67433 8.19483C9.65863 8.33618 9.70386 8.47753 9.79871 8.58351C9.89356 8.68948 10.0291 8.75005 10.1713 8.75005L10.1713 8.25005ZM13.9954 14.25L13.9954 14.75C14.2502 14.75 14.4642 14.5585 14.4923 14.3053L13.9954 14.25ZM14.4954 9.75005L14.9923 9.80526C15.008 9.66391 14.9628 9.52256 14.8679 9.41659C14.7731 9.31061 14.6376 9.25005 14.4954 9.25005L14.4954 9.75005ZM10.0046 9.75005L10.0046 9.25005C9.74983 9.25005 9.5358 9.44161 9.50767 9.69483L10.0046 9.75005ZM9.50461 14.25L9.00767 14.1948C8.99196 14.3362 9.03719 14.4775 9.13205 14.5835C9.2269 14.6895 9.36239 14.75 9.50461 14.75L9.50461 14.25ZM10.0276 2.75152C10.1648 2.76677 10.2637 2.89037 10.2485 3.0276L11.2424 3.13803C11.3186 2.4519 10.8242 1.83387 10.138 1.75763L10.0276 2.75152ZM9.75153 2.97238C9.76678 2.83516 9.89038 2.73627 10.0276 2.75152L10.138 1.75763C9.45191 1.6814 8.83388 2.17582 8.75765 2.86195L9.75153 2.97238ZM9.15899 8.30526L9.75153 2.97238L8.75765 2.86195L8.1651 8.19483L9.15899 8.30526ZM3 8.75005H8.66205V7.75005H3V8.75005ZM2.75 9.00005C2.75 8.86197 2.86193 8.75005 3 8.75005V7.75005C2.30964 7.75005 1.75 8.30969 1.75 9.00005H2.75ZM3 9.25005C2.86193 9.25005 2.75 9.13812 2.75 9.00005H1.75C1.75 9.6904 2.30964 10.25 3 10.25V9.25005ZM8.49538 9.25005H3V10.25H8.49538V9.25005ZM8.49232 14.3053L8.99232 9.80526L7.99844 9.69483L7.49844 14.1948L8.49232 14.3053ZM2 14.75H7.99538V13.75H2V14.75ZM1.75 15C1.75 14.862 1.86193 14.75 2 14.75V13.75C1.30964 13.75 0.75 14.3097 0.75 15H1.75ZM2 15.25C1.86193 15.25 1.75 15.1381 1.75 15H0.75C0.75 15.6904 1.30964 16.25 2 16.25V15.25ZM7.82871 15.25H2V16.25H7.82871V15.25ZM7.75153 20.9724L8.32565 15.8053L7.33177 15.6948L6.75765 20.862L7.75153 20.9724ZM7.97239 21.2485C7.83517 21.2332 7.73628 21.1096 7.75153 20.9724L6.75765 20.862C6.68141 21.5481 7.17583 22.1661 7.86196 22.2423L7.97239 21.2485ZM8.24847 21.0276C8.23322 21.1648 8.10962 21.2637 7.97239 21.2485L7.86196 22.2423C8.54809 22.3186 9.16612 21.8242 9.24235 21.138L8.24847 21.0276ZM8.841 15.6948L8.24847 21.0276L9.24235 21.138L9.83488 15.8053L8.841 15.6948ZM13.8287 15.25L9.33794 15.25L9.33794 16.25L13.8287 16.25L13.8287 15.25ZM13.7515 20.9724L14.3257 15.8053L13.3318 15.6948L12.7576 20.8619L13.7515 20.9724ZM13.9724 21.2485C13.8352 21.2332 13.7363 21.1096 13.7515 20.9724L12.7576 20.862C12.6814 21.5481 13.1758 22.1661 13.862 22.2423L13.9724 21.2485ZM14.2485 21.0276C14.2332 21.1648 14.1096 21.2637 13.9724 21.2485L13.862 22.2423C14.5481 22.3186 15.1661 21.8242 15.2424 21.138L14.2485 21.0276ZM14.841 15.6948L14.2485 21.0276L15.2424 21.138L15.8349 15.8053L14.841 15.6948ZM20 15.25H15.3379V16.25H20V15.25ZM20.25 15C20.25 15.1381 20.1381 15.25 20 15.25V16.25C20.6904 16.25 21.25 15.6904 21.25 15H20.25ZM20 14.75C20.1381 14.75 20.25 14.862 20.25 15H21.25C21.25 14.3097 20.6904 13.75 20 13.75V14.75ZM15.5046 14.75H20V13.75H15.5046V14.75ZM15.5077 9.69483L15.0077 14.1948L16.0016 14.3053L16.5016 9.80526L15.5077 9.69483ZM21 9.25005H16.0046V10.25H21V9.25005ZM21.25 9.00005C21.25 9.13812 21.1381 9.25005 21 9.25005L21 10.25C21.6904 10.25 22.25 9.6904 22.25 9.00005H21.25ZM21 8.75005C21.1381 8.75005 21.25 8.86198 21.25 9.00005H22.25C22.25 8.30969 21.6904 7.75005 21 7.75005L21 8.75005ZM16.1713 8.75005H21V7.75005H16.1713V8.75005ZM16.2485 3.0276L15.6743 8.19483L16.6682 8.30526L17.2424 3.13803L16.2485 3.0276ZM16.0276 2.75152C16.1648 2.76677 16.2637 2.89037 16.2485 3.0276L17.2424 3.13803C17.3186 2.4519 16.8242 1.83387 16.138 1.75763L16.0276 2.75152ZM15.7515 2.97238C15.7668 2.83516 15.8904 2.73627 16.0276 2.75152L16.138 1.75763C15.4519 1.6814 14.8339 2.17582 14.7576 2.86195L15.7515 2.97238ZM15.159 8.30526L15.7515 2.97238L14.7576 2.86195L14.1651 8.19483L15.159 8.30526ZM10.1713 8.75005L14.662 8.75005L14.662 7.75005L10.1713 7.75005L10.1713 8.75005ZM10.2485 3.0276L9.67433 8.19483L10.6682 8.30526L11.2424 3.13803L10.2485 3.0276ZM14.4923 14.3053L14.9923 9.80526L13.9984 9.69483L13.4984 14.1948L14.4923 14.3053ZM14.4954 9.25005L10.0046 9.25005L10.0046 10.25L14.4954 10.25L14.4954 9.25005ZM9.50767 9.69483L9.00767 14.1948L10.0016 14.3053L10.5016 9.80526L9.50767 9.69483ZM9.50461 14.75L13.9954 14.75L13.9954 13.75L9.50461 13.75L9.50461 14.75Z" fill="black"/>
</svg>
