<svg width="2250" height="2247" viewBox="0 0 2250 2247" fill="none" xmlns="http://www.w3.org/2000/svg">
<path d="M1125.31 2246.66C1120.93 2244.16 1116.56 2242.28 1112.81 2239.78C609.863 1945.51 229.998 1460.68 75.6783 880.891C51.312 789.049 32.5687 695.957 20.0731 602.24C7.57757 507.274 1.32979 411.683 0.080233 315.467C0.080233 299.223 -1.7941 301.722 12.5758 293.6C201.259 186.138 401.188 108.041 612.987 58.6833C691.084 40.5648 769.806 26.8197 849.778 16.8232C959.114 3.70292 1069.07 -1.9201 1179.66 0.579013C1241.51 1.82857 1302.74 6.20202 1364.59 12.4498C1672.61 45.563 1961.88 138.03 2231.79 289.851C2235.54 292.35 2239.28 294.225 2243.66 296.724C2248.03 299.223 2250.53 302.347 2249.91 307.345C2249.91 312.968 2249.91 317.966 2249.91 323.589C2249.28 379.194 2246.78 434.8 2242.41 489.78C2235.53 569.127 2224.91 647.849 2209.92 726.571C2177.43 894.636 2126.82 1057.08 2056.85 1213.27C1946.26 1461.31 1795.07 1682.48 1603.88 1876.16C1466.43 2016.11 1312.74 2135.44 1144.05 2235.41C1137.8 2239.16 1131.55 2242.28 1125.31 2246.66ZM103.793 370.447C103.793 375.446 103.793 379.819 103.793 383.568C103.793 462.29 108.792 541.012 118.163 619.109C126.91 689.709 138.781 759.684 155.025 829.034C157.524 841.53 161.898 852.776 166.896 864.647C263.112 1069.57 486.782 1178.91 707.953 1128.93C876.643 1090.82 1013.47 960.863 1060.33 794.047C1073.45 747.813 1077.82 700.955 1079.07 653.472C1080.32 622.233 1082.82 590.994 1089.07 560.38C1125.31 371.697 1251.51 216.127 1427.7 141.779C1437.69 137.405 1447.69 134.281 1457.69 129.908C1458.94 129.283 1461.44 129.283 1460.81 126.784C1433.32 116.788 1266.5 100.543 1166.54 98.0444C952.242 93.6709 741.691 121.786 536.14 183.639C384.943 228.623 241.244 291.101 103.793 370.447ZM1686.98 1656.86C1692.6 1654.37 1695.1 1649.37 1698.23 1645.62C1741.34 1591.89 1781.95 1536.28 1819.43 1478.18C1954.39 1270.13 2048.1 1045.21 2100.58 802.794C2118.08 720.323 2131.2 637.228 2138.07 553.507C2143.07 496.653 2146.19 439.173 2146.19 381.693C2146.19 377.945 2145.57 373.571 2145.57 369.823C2139.94 366.699 2134.95 363.575 2129.95 360.451C2085.59 335.46 2041.23 312.343 1995 291.101C1928.77 260.487 1861.92 231.747 1791.94 209.88C1706.97 183.014 1621.38 180.515 1535.16 201.133C1289 260.487 1131.55 501.651 1178.41 750.312C1204.03 888.388 1278.38 994.6 1397.08 1069.57C1405.21 1074.57 1413.33 1079.57 1421.45 1083.94C1508.29 1137.05 1575.77 1208.27 1624.5 1297.62C1675.73 1391.33 1698.23 1491.92 1692.6 1598.76C1690.73 1617.5 1688.85 1636.25 1686.98 1656.86ZM1125.93 2136.69C1130.3 2134.2 1135.3 2131.7 1140.3 2128.57C1275.25 2049.23 1399.58 1954.88 1513.92 1846.8C1521.41 1839.92 1527.04 1831.8 1531.41 1823.06C1538.91 1808.69 1546.41 1794.32 1553.28 1779.95C1607.01 1668.11 1618.88 1551.9 1583.27 1432.57C1513.92 1200.78 1290.25 1067.7 1065.95 1095.19C1002.22 1103.31 942.245 1123.3 886.015 1155.17C779.178 1215.15 665.469 1240.14 543.637 1228.27C483.658 1222.64 426.803 1207.03 371.823 1183.28C328.713 1164.54 288.103 1140.17 251.241 1111.43C248.742 1109.56 245.618 1107.69 240.62 1104.56C242.494 1110.18 243.119 1112.68 243.744 1115.81C291.851 1237.64 350.581 1353.85 421.18 1464.43C497.403 1583.77 584.872 1693.73 683.587 1794.94C782.302 1896.15 891.013 1986.12 1008.47 2064.84C1059.7 2099.83 1109.69 2130.45 1125.93 2136.69Z" fill="black"/>
</svg>
