<svg width="24" height="24" viewBox="0 0 24 24" fill="none" xmlns="http://www.w3.org/2000/svg">
<path fill-rule="evenodd" clip-rule="evenodd" d="M5.3721 2.34882C5.13998 2.21617 4.85479 2.21713 4.62356 2.35132C4.39232 2.48551 4.25 2.73265 4.25 3V21C4.25 21.4142 4.58579 21.75 5 21.75H19C19.4142 21.75 19.75 21.4142 19.75 21V3C19.75 2.73265 19.6077 2.48551 19.3764 2.35132C19.1452 2.21713 18.86 2.21617 18.6279 2.34882L15.5 4.13619L12.3721 2.34882C12.1415 2.21706 11.8585 2.21706 11.6279 2.34882L8.5 4.13619L5.3721 2.34882ZM5.75 20.25V4.29238L8.1279 5.65118C8.35847 5.78294 8.64153 5.78294 8.8721 5.65118L12 3.86381L15.1279 5.65118C15.3585 5.78294 15.6415 5.78294 15.8721 5.65118L18.25 4.29239V20.25H5.75ZM9 8.25C8.58579 8.25 8.25 8.58579 8.25 9C8.25 9.41421 8.58579 9.75 9 9.75H13C13.4142 9.75 13.75 9.41421 13.75 9C13.75 8.58579 13.4142 8.25 13 8.25H9ZM11.25 13C11.25 12.5858 11.5858 12.25 12 12.25H15C15.4142 12.25 15.75 12.5858 15.75 13C15.75 13.4142 15.4142 13.75 15 13.75H12C11.5858 13.75 11.25 13.4142 11.25 13ZM12 16.25C11.5858 16.25 11.25 16.5858 11.25 17C11.25 17.4142 11.5858 17.75 12 17.75H15C15.4142 17.75 15.75 17.4142 15.75 17C15.75 16.5858 15.4142 16.25 15 16.25H12ZM10 13C10 13.5523 9.55228 14 9 14C8.44772 14 8 13.5523 8 13C8 12.4477 8.44772 12 9 12C9.55228 12 10 12.4477 10 13ZM9 18C9.55228 18 10 17.5523 10 17C10 16.4477 9.55228 16 9 16C8.44772 16 8 16.4477 8 17C8 17.5523 8.44772 18 9 18Z" fill="black"/>
</svg>
