<svg width="2250" height="2253" viewBox="0 0 2250 2253" fill="none" xmlns="http://www.w3.org/2000/svg">
<g clip-path="url(#clip0_1309_1082)">
<path d="M1551.3 522.825C1554.3 516.6 1557.22 510.3 1560 503.925V504.3C1548.47 522.343 1535.79 539.628 1522.05 556.05C1508.58 572.511 1493.95 587.976 1478.25 602.325C1462.81 616.589 1446.37 629.723 1429.05 641.625C1412.34 653.415 1394.29 663.183 1375.27 670.725C1338.67 686.436 1298.59 692.28 1259.02 687.675C1239.85 685.432 1221.06 680.64 1203.15 673.425L1189.95 667.725L1187.03 666.3H1186.12L1593.6 430.65C1603.75 424.053 1615.97 421.424 1627.94 423.263C1639.91 425.103 1650.78 431.283 1658.48 440.625C1689.39 477.219 1717.17 516.358 1741.5 557.625C1766.91 600.831 1786.22 647.347 1798.88 695.85C1801.42 706.26 1800.52 717.214 1796.32 727.071C1792.11 736.928 1784.83 745.157 1775.55 750.525L1345.2 999.15L1302.3 1023.9C1225.12 1068.08 1193.32 1128 1183.35 1202.78C1170.9 1289.18 1198.8 1388.63 1257.15 1473.75C1261.05 1479.45 1265.1 1485.08 1269.3 1490.63V1490.18C1259.33 1471.25 1250.56 1451.71 1243.05 1431.68C1235.37 1411.84 1229.18 1391.46 1224.53 1370.7C1219.63 1350.26 1216.32 1329.47 1214.62 1308.53C1212.57 1288.18 1212.98 1267.65 1215.82 1247.4C1220.24 1207.82 1234.95 1170.09 1258.5 1137.98C1269.93 1122.4 1283.37 1108.4 1298.48 1096.35L1309.95 1087.73L1312.2 1086.23C1312.2 1144.88 1311.38 1555.73 1311.38 1558.73C1311.49 1570.44 1307.42 1581.81 1299.88 1590.78C1292.34 1599.75 1281.84 1605.73 1270.27 1607.63C1222.92 1615.84 1175 1620.33 1126.95 1621.05C1076.8 1621.42 1026.83 1614.91 978.45 1601.7C968.172 1598.69 959.147 1592.42 952.725 1583.85C946.303 1575.28 942.83 1564.86 942.825 1554.15L942.225 1008.68C942.225 919.8 906.525 862.275 846.675 816.3C773.475 758.775 664.575 733.8 554.175 746.85C554.348 746.889 554.527 746.889 554.7 746.85C576.09 747.701 597.406 749.881 618.525 753.375C639.518 756.682 660.247 761.494 680.55 767.775C700.677 773.817 720.331 781.337 739.35 790.275C758.059 798.676 775.686 809.302 791.85 821.925C823.932 845.502 849.274 877.076 865.35 913.5C873.087 931.199 878.482 949.831 881.4 968.925L883.125 983.25V986.475L474.225 749.025C469.373 746.327 465.033 742.798 461.4 738.6C455.511 731.933 451.565 723.779 449.991 715.024C448.417 706.269 449.277 697.25 452.475 688.95C468.995 643.812 489.057 600.051 512.475 558.075C537.196 514.48 567.781 474.482 603.375 439.2C611.059 431.727 620.964 426.954 631.597 425.601C642.23 424.248 653.015 426.389 662.325 431.7C662.325 431.7 974.925 611.7 1096.12 681L1137.83 705.45C1214.33 750.45 1282.2 748.8 1352.1 720.45C1433.4 689.025 1506.07 615.675 1551.3 522.825ZM2250 308.4C2250 308.4 2249.25 399.9 2247.9 430.95C2231.58 800.144 2122.42 1159.26 1930.51 1475.08C1738.6 1790.9 1470.15 2053.22 1149.97 2237.77L1125 2252.02L1100.03 2237.77C766.302 2045.12 489.037 1768.18 295.985 1434.69C102.933 1101.19 0.865443 722.84 0 337.5L0 308.25L24.975 294C359.26 101.386 738.293 0 1124.1 0C1509.91 0 1888.94 101.386 2223.22 294L2250 308.4ZM2183.4 345C1857.52 161.7 1498.72 56.4751 1125 56.4751C751.275 56.4751 392.025 161.7 66.15 345C70.35 1094.48 476.25 1762.5 1123.65 2140.57L1124.62 2139.82C1773.22 1762.5 2179.65 1096.65 2183.4 345Z" fill="white"/>
</g>
<defs>
<clipPath id="clip0_1309_1082">
<rect width="2250" height="2252.02" fill="white"/>
</clipPath>
</defs>
</svg>
