<svg width="2250" height="2258" viewBox="0 0 2250 2258" fill="none" xmlns="http://www.w3.org/2000/svg">
<path d="M1125.19 3.38126C1511.39 3.38126 1876.94 120.972 2211.3 314.076L2235.72 324.971L2228.96 351.269C2228.21 737.477 2125.27 1091.38 1932.17 1425.74C1739.44 1760.1 1477.21 2034.35 1143.22 2227.83L1125.19 2240.98L1106.03 2227.08C772.039 2033.6 520.703 1761.23 327.599 1426.87C134.495 1092.13 21.0372 720.947 20.6615 334.739L17.2803 316.706L30.4294 306.562C364.792 113.834 738.603 1.12712 1124.81 0.751434" fill="#8D33E5"/>
<path d="M2223.33 303.181C1888.96 110.077 1511.4 3.7569 1125.19 3.7569V2228.21L1149.98 2243.24C1483.97 2049.76 1755.97 1771.37 1949.07 1437.01C2142.18 1102.65 2245.12 729.212 2245.87 343.004V315.579L2223.33 303.181Z" fill="#7000DF"/>
<path d="M2250 338.12V309.568L2225.58 294.916C1890.84 101.812 1511.4 0 1125.19 0C738.98 0 359.534 101.812 25.1711 294.916L0 309.568V338.12C0.751378 724.328 102.563 1103.4 295.667 1437.76C488.771 1772.12 766.029 2050.13 1100.39 2243.61L1125.19 2257.89L1149.98 2243.61C1483.97 2050.13 1761.6 1772.12 1954.71 1437.76C2147.44 1103.4 2249.25 724.328 2250 338.12ZM1124.81 2145.93C475.998 1766.49 60.8616 1088.75 56.729 337.368C382.827 153.657 751.002 56.729 1125.19 56.729C1499.37 56.729 1867.55 153.281 2193.65 337.368C2189.89 1089.5 1774.38 1766.49 1124.81 2145.93Z" fill="#3F017F"/>
<path d="M1125.19 2145.93C475.998 1766.49 60.8616 1088.75 56.729 337.368C382.827 153.657 751.002 57.1047 1125.19 56.729V0C738.98 0 359.534 101.812 24.7955 294.916L0 309.568V338.12C0.751377 724.328 102.563 1103.4 295.667 1437.76C488.771 1772.12 766.029 2050.13 1100.39 2243.61L1125.19 2257.89V2145.93Z" fill="#531B8C"/>
<path d="M1832.98 702.538C1832.98 693.897 1831.48 685.632 1828.85 677.743C1817.96 643.931 1780.76 552.638 1718.78 476.373C1707.5 460.97 1694.36 446.318 1681.58 430.915L1671.81 419.644C1667.68 415.136 1663.17 411.379 1657.91 408.374C1647.77 402.363 1635.75 399.357 1623.73 399.733C1617.71 400.109 1612.08 401.236 1606.44 403.114C1603.81 403.865 1601.18 404.993 1598.55 406.495C1598.55 406.495 1188.68 629.279 1125.19 662.339C1061.7 629.279 654.073 405.368 643.929 404.617C638.294 402.738 632.659 401.611 626.648 401.236C614.626 400.86 602.979 403.865 592.46 409.876C587.201 412.882 582.317 416.639 578.56 421.147L568.792 432.418C556.018 447.07 543.621 461.722 531.599 477.876C485.013 531.6 433.544 636.417 423.025 669.102C418.141 679.245 415.511 690.516 415.511 702.538C415.511 726.958 426.781 749.123 444.439 763.4C446.317 764.902 447.82 766.405 449.698 767.532L454.958 770.913L462.848 776.173L527.09 816.372L654.825 896.018L782.934 976.791L888.879 1041.41L890.381 1493.36L891.133 1542.2L892.26 1567C892.26 1571.13 892.26 1576.01 893.011 1581.27C893.763 1590.29 895.641 1598.93 899.022 1607.2C905.785 1621.85 915.928 1635 928.702 1644.77C941.475 1654.53 956.878 1660.92 972.657 1665.43C988.436 1669.56 1001.96 1671.81 1021.5 1675.2C1090.62 1684.96 1160.5 1684.96 1229.63 1675.2C1254.05 1671.06 1261.19 1669.56 1277.72 1665.8C1296.88 1661.3 1309.27 1654.91 1322.05 1644.77C1334.82 1635 1344.96 1621.85 1351.73 1607.2C1355.11 1598.93 1356.99 1590.29 1357.74 1581.27C1358.11 1575.64 1358.49 1571.51 1358.49 1567C1358.49 1567 1364.12 1160.13 1362.25 1041.78L1467.82 977.167L1595.92 895.642L1724.03 814.493L1788.28 774.295L1789.03 773.168C1814.58 760.394 1832.98 733.72 1832.98 702.538Z" fill="#3F017F"/>
<path d="M938.471 1016.24C938.847 978.293 930.582 940.725 914.051 906.161C897.521 871.973 873.477 841.918 843.798 818.25C759.268 751.002 628.152 726.582 500.794 754.383C492.529 755.886 469.236 741.985 460.971 740.107C460.219 739.731 459.092 738.604 463.601 742.737C464.728 743.864 466.982 749.875 468.109 750.626L938.471 1020.75V1016.24Z" fill="#F4A900"/>
<path d="M1350.6 719.444C1450.91 679.997 1537.69 578.561 1577.52 454.583C1580.52 445.567 1596.3 443.313 1603.44 437.302C1605.69 435.423 1598.18 427.534 1600.81 426.031L1125.56 699.908L1131.57 703.289C1164.26 722.45 1201.08 734.096 1239.4 736.726C1277.34 739.731 1315.29 733.72 1350.6 719.444Z" fill="#78B6E4"/>
<path d="M1303.26 1028.26C1270.58 1047.42 1242.78 1073.72 1222.12 1104.9C1201.08 1136.46 1187.93 1172.15 1182.67 1209.72C1167.64 1315.66 1211.97 1441.14 1299.13 1536.94C1305.89 1544.08 1305.52 1557.23 1307.02 1566.62C1307.4 1569.25 1309.65 1569.25 1312.28 1570.75L1314.16 1022.62L1303.26 1028.26Z" fill="#20B5AC"/>
<path d="M1205.21 1230.38C1214.6 1155.99 1264.57 1094.38 1333.32 1052.68L1313.78 1022.25L1303.26 1028.64C1270.58 1047.8 1242.78 1074.09 1222.11 1105.28C1201.08 1136.83 1187.93 1172.52 1182.67 1210.09C1169.14 1303.26 1202.2 1411.84 1269.83 1502C1217.98 1414.84 1193.56 1316.41 1205.21 1230.38Z" fill="#3F017F"/>
<path d="M1355.11 691.267C1285.61 719.82 1207.84 707.046 1137.58 667.599L1120.68 699.532L1131.57 705.919C1164.26 724.704 1200.7 735.974 1238.27 738.604C1275.84 741.234 1313.78 735.223 1348.72 721.322C1434.75 687.886 1528.3 597.345 1573.38 497.036C1574.14 495.158 1566.62 486.893 1559.48 501.92C1509.52 589.831 1436.26 658.958 1355.11 691.267Z" fill="#3F017F"/>
<path d="M816.747 834.029C874.979 881.366 901.277 945.233 899.774 1025.25L935.841 1036.53L947.111 1024.13C949.365 947.863 915.929 852.438 856.194 803.598C786.692 744.991 640.549 725.455 542.494 740.107C538.737 740.858 536.859 746.493 562.782 745.366C664.969 746.869 749.875 778.051 816.747 834.029Z" fill="#3F017F"/>
<path d="M1125.19 1633.49C1074.47 1633.87 1023.75 1627.11 974.911 1613.96C964.391 1610.95 955.375 1604.57 948.612 1595.93C942.226 1587.29 938.469 1576.77 938.469 1565.87V1016.24C938.845 978.294 930.204 940.725 914.049 906.161C897.519 871.974 873.475 841.919 843.795 818.25C759.265 751.002 628.15 726.582 500.792 754.383C488.018 757.389 474.493 755.134 463.223 747.996C451.952 740.858 444.063 729.588 441.057 716.814C438.803 707.422 439.554 697.278 442.935 688.262C459.09 642.428 479.002 598.472 502.67 556.019C527.841 511.688 559.023 471.489 595.089 435.799C602.979 428.285 613.122 423.401 623.642 422.274C634.537 421.147 645.432 423.026 654.824 428.661L1118.8 696.527L1131.2 703.665C1163.88 722.825 1200.7 734.472 1239.02 737.101C1276.96 739.731 1314.91 733.72 1350.22 719.444C1450.53 679.997 1537.32 578.561 1577.14 454.583C1579.02 448.197 1582.4 442.561 1586.53 437.302C1590.66 432.418 1595.92 428.285 1601.94 424.904C1607.95 421.899 1614.33 420.02 1620.72 419.269C1627.11 418.517 1633.87 419.269 1640.26 421.523C1649.65 424.528 1657.54 429.788 1663.92 437.302C1695.48 474.119 1723.66 513.942 1748.45 555.644C1774.38 599.599 1793.91 646.56 1806.69 695.776C1809.32 706.295 1808.19 717.566 1804.06 727.334C1799.92 737.477 1792.41 745.742 1783.02 751.002L1316.04 1020.75L1303.26 1028.26C1270.58 1047.42 1242.78 1073.72 1222.11 1104.9C1201.08 1136.46 1187.93 1172.15 1182.67 1209.72C1167.64 1315.66 1211.97 1441.14 1299.13 1536.94C1305.14 1543.71 1309.27 1551.59 1311.15 1560.61C1313.03 1569.25 1312.28 1578.64 1309.65 1586.91C1306.64 1595.55 1301.38 1603.06 1294.62 1608.7C1287.86 1614.33 1279.59 1618.47 1270.58 1619.97C1222.49 1628.24 1173.65 1632.74 1125.19 1633.49Z" fill="white"/>
</svg>
