<svg width="26" height="24" viewBox="0 0 26 24" fill="none" xmlns="http://www.w3.org/2000/svg">
<path d="M17.1485 19.5886C17.7356 20.3323 19.5305 21.8782 19.5305 21.8782C23.8553 21.7412 24.4284 18.1992 24.4284 18.1992C24.4284 11.8978 21.6103 4.34122 21.6103 4.34122C18.7923 2.22757 16.1113 2.28643 16.1113 2.28643L15.8374 4.41948M20.6906 17.2598C19.8882 17.7883 19.125 18.1601 18.4401 18.4143C17.4617 18.8254 16.5223 19.0992 15.6026 19.2559C13.7239 19.6081 12.0018 19.5103 10.5341 19.2364C9.41856 19.021 8.45965 18.708 7.6574 18.3949C7.20725 18.2187 6.71803 18.0035 6.22868 17.7295C6.17009 17.6903 6.11136 17.6708 6.05263 17.6316C6.01357 17.6121 5.99391 17.5925 5.97438 17.573C5.62214 17.3773 5.42643 17.2403 5.42643 17.2403M8.85108 19.5494C8.26408 20.2932 6.46925 21.8782 6.46925 21.8782C2.14429 21.7412 1.57129 18.1992 1.57129 18.1992C1.57129 11.8978 4.38927 4.34109 4.38927 4.34109C7.20725 2.22757 9.88824 2.2863 9.88824 2.2863L10.084 4.34122M6.46925 6.36793C11.3148 3.72532 14.6941 3.71719 19.5305 6.36793M9.3403 11.0348C8.22488 11.0348 7.34437 12.0133 7.34437 13.2069C7.34437 14.4008 8.24441 15.3792 9.3403 15.3792C10.4559 15.3792 11.3364 14.4008 11.3364 13.2069C11.356 12.0133 10.4557 11.0348 9.3403 11.0348ZM16.4832 11.0348C15.3677 11.0348 14.487 12.0133 14.487 13.2069C14.487 14.4008 15.3874 15.3792 16.4832 15.3792C17.5987 15.3792 18.4792 14.4008 18.4792 13.2069C18.4792 12.0133 17.5987 11.0348 16.4832 11.0348Z" stroke="black" stroke-width="1.5" stroke-linecap="round" stroke-linejoin="round"/>
</svg>
