<svg width="12" height="12" viewBox="0 0 12 12" fill="none" xmlns="http://www.w3.org/2000/svg">
<path fill-rule="evenodd" clip-rule="evenodd" d="M2.00014 3.50014C2.00014 3.0146 2.0012 2.70074 2.03229 2.46949C2.06145 2.25262 2.10852 2.18465 2.14659 2.14659C2.18465 2.10852 2.25262 2.06145 2.46949 2.03229C2.70075 2.0012 3.0146 2.00014 3.50014 2.00014H5.45989C5.90944 2.00014 5.99492 2.00899 6.06544 2.0382C6.13596 2.06741 6.20267 2.1216 6.52055 2.43948L10.1068 6.02568C10.4501 6.36901 10.6713 6.59169 10.8128 6.7772C10.9455 6.95116 10.9603 7.03252 10.9603 7.08634C10.9603 7.14017 10.9455 7.22152 10.8128 7.39549C10.6713 7.581 10.4501 7.80368 10.1068 8.147L8.147 10.1068C7.80368 10.4501 7.581 10.6713 7.39549 10.8128C7.22152 10.9455 7.14017 10.9603 7.08634 10.9603C7.03252 10.9603 6.95116 10.9455 6.7772 10.8128C6.59169 10.6713 6.36901 10.4501 6.02568 10.1068L2.43948 6.52055C2.1216 6.20267 2.06741 6.13596 2.0382 6.06544C2.00899 5.99492 2.00014 5.90943 2.00014 5.45989L2.00014 3.50014ZM1.43948 1.43948C1.18465 1.69431 1.08528 2.00849 1.04121 2.33624C1.00009 2.64207 1.00011 3.02398 1.00014 3.46722L1.00014 3.50014L1.00014 5.45989L1.00007 5.5293C0.999548 5.8687 0.999085 6.16992 1.11432 6.44813C1.22956 6.72633 1.44288 6.939 1.68324 7.17862L1.73237 7.22765L5.31858 10.8139L5.34185 10.8371C5.65525 11.1506 5.92529 11.4206 6.17062 11.6078C6.43354 11.8084 6.72596 11.9603 7.08634 11.9603C7.44673 11.9603 7.73915 11.8084 8.00207 11.6078C8.2474 11.4206 8.51743 11.1506 8.83083 10.8371L8.85411 10.8139L10.8139 8.85411L10.8371 8.83083C11.1506 8.51743 11.4206 8.2474 11.6078 8.00207C11.8084 7.73915 11.9603 7.44673 11.9603 7.08634C11.9603 6.72596 11.8084 6.43354 11.6078 6.17062C11.4206 5.92528 11.1506 5.65525 10.8371 5.34184L10.8139 5.31858L7.22765 1.73237L7.17863 1.68324C6.939 1.44288 6.72633 1.22956 6.44813 1.11432C6.16992 0.999085 5.8687 0.999548 5.5293 1.00007L5.45989 1.00014H3.50014L3.46723 1.00014H3.46722C3.02398 1.00011 2.64207 1.00009 2.33624 1.04121C2.00849 1.08528 1.69431 1.18465 1.43948 1.43948ZM4.4626 5.09149C4.4626 4.74433 4.74402 4.4629 5.09118 4.4629C5.43834 4.4629 5.71977 4.74433 5.71977 5.09149C5.71977 5.43864 5.43834 5.72007 5.09118 5.72007C4.74402 5.72007 4.4626 5.43864 4.4626 5.09149ZM5.09118 3.4629C4.19174 3.4629 3.4626 4.19205 3.4626 5.09149C3.4626 5.99093 4.19174 6.72007 5.09118 6.72007C5.99062 6.72007 6.71977 5.99093 6.71977 5.09149C6.71977 4.19205 5.99062 3.4629 5.09118 3.4629Z" fill="black"/>
</svg>
