<svg width="40" height="40" viewBox="0 0 40 40" fill="none" xmlns="http://www.w3.org/2000/svg">
<mask id="mask0_2340_10704" style="mask-type:alpha" maskUnits="userSpaceOnUse" x="0" y="0" width="40" height="40">
<circle cx="20" cy="20" r="20" fill="#C4C4C4"/>
</mask>
<g mask="url(#mask0_2340_10704)">
<rect width="40" height="40" fill="#0B0118"/>
</g>
<g clip-path="url(#clip0_2340_10704)">
<path fill-rule="evenodd" clip-rule="evenodd" d="M19.3998 13.55C19.2617 13.55 19.1498 13.6619 19.1498 13.8V15C19.1498 15.1381 19.2617 15.25 19.3998 15.25H19.9893C19.9959 15.2499 20.0024 15.2499 20.009 15.25H20.0103H20.5998C20.7379 15.25 20.8498 15.1381 20.8498 15V13.8C20.8498 13.6619 20.7379 13.55 20.5998 13.55H19.3998ZM21.3292 16.5912C21.9315 16.3147 22.3498 15.7062 22.3498 15V13.8C22.3498 12.8335 21.5663 12.05 20.5998 12.05H19.3998C18.4333 12.05 17.6498 12.8335 17.6498 13.8V15C17.6498 15.7062 18.0681 16.3147 18.6704 16.5912L14.0093 23.25H13.7998C12.8333 23.25 12.0498 24.0335 12.0498 25V26.2C12.0498 27.1665 12.8333 27.95 13.7998 27.95H14.9998C15.9158 27.95 16.6674 27.2463 16.7435 26.35H23.2561C23.3322 27.2463 24.0838 27.95 24.9998 27.95H26.1998C27.1663 27.95 27.9498 27.1665 27.9498 26.2V25C27.9498 24.0335 27.1663 23.25 26.1998 23.25H25.9903L21.3292 16.5912ZM19.9998 17.3078L15.7292 23.4088C16.2884 23.6655 16.689 24.2084 16.7435 24.85H23.2561C23.3106 24.2084 23.7112 23.6655 24.2704 23.4088L19.9998 17.3078ZM25.5906 24.75H24.9998C24.8617 24.75 24.7498 24.8619 24.7498 25V25.6V26.2C24.7498 26.3381 24.8617 26.45 24.9998 26.45H26.1998C26.3379 26.45 26.4498 26.3381 26.4498 26.2V25C26.4498 24.8619 26.3379 24.75 26.1998 24.75H25.6103C25.6037 24.7501 25.5972 24.7501 25.5906 24.75ZM15.2498 25.6L15.2498 25.6006V26.2C15.2498 26.3381 15.1379 26.45 14.9998 26.45H13.7998C13.6617 26.45 13.5498 26.3381 13.5498 26.2V25C13.5498 24.8619 13.6617 24.75 13.7998 24.75H14.3893H14.409H14.9998C15.1379 24.75 15.2498 24.8619 15.2498 25V25.5994L15.2498 25.6Z" fill="white"/>
</g>
<defs>
<clipPath id="clip0_2340_10704">
<rect width="16" height="16" fill="white" transform="translate(12 12)"/>
</clipPath>
</defs>
</svg>
