<svg width="16" height="16" viewBox="0 0 16 16" fill="none" xmlns="http://www.w3.org/2000/svg">
<g clip-path="url(#clip0_2272_9199)">
<path fill-rule="evenodd" clip-rule="evenodd" d="M8.53011 0.560582C8.38946 0.41993 8.19869 0.340912 7.99978 0.340912C7.80087 0.340912 7.6101 0.41993 7.46945 0.560582L3.83308 4.19695L2.37854 5.65149L0.196721 7.83331C-0.0961725 8.1262 -0.0961725 8.60108 0.196721 8.89397C0.489614 9.18686 0.964488 9.18686 1.25738 8.89397L2.15887 7.99248V14.9091C2.15887 15.3233 2.49466 15.6591 2.90887 15.6591H13.0907C13.5049 15.6591 13.8407 15.3233 13.8407 14.9091V7.99248L14.7422 8.89397C15.0351 9.18686 15.5099 9.18686 15.8028 8.89397C16.0957 8.60108 16.0957 8.1262 15.8028 7.83331L13.621 5.65149L12.1665 4.19695C12.1662 4.19666 12.1659 4.19637 12.1656 4.19609L8.53011 0.560582ZM11.1058 5.25761L7.99978 2.15157L4.89374 5.25761L3.65887 6.49248V14.1591H12.3407V6.49248L11.1058 5.25761Z" fill="#0B0118"/>
</g>
<defs>
<clipPath id="clip0_2272_9199">
<rect width="16" height="16" fill="white"/>
</clipPath>
</defs>
</svg>
