<svg width="16" height="16" viewBox="0 0 16 16" fill="none" xmlns="http://www.w3.org/2000/svg">
<g clip-path="url(#clip0_2275_9206)">
<path fill-rule="evenodd" clip-rule="evenodd" d="M14.7236 4.50335C15.0165 4.79624 15.4913 4.79624 15.7842 4.50335C16.0771 4.21046 16.0771 3.73558 15.7842 3.44269L12.5612 0.21967C12.4206 0.0790175 12.2298 -1.64972e-07 12.0309 -1.73666e-07C11.832 -1.82361e-07 11.6412 0.0790174 11.5006 0.21967L8.27753 3.44269C7.98464 3.73558 7.98464 4.21046 8.27753 4.50335C8.57043 4.79624 9.0453 4.79624 9.33819 4.50335L11.2809 2.56066L11.2809 12.0306C11.2809 12.4448 11.6167 12.7806 12.0309 12.7806C12.4451 12.7806 12.7809 12.4448 12.7809 12.0306L12.7809 2.56066L14.7236 4.50335ZM6.6658 11.5002C6.95869 11.2073 7.43357 11.2073 7.72646 11.5002C8.01935 11.7931 8.01935 12.268 7.72646 12.5609L4.50344 15.7839C4.36278 15.9246 4.17202 16.0036 3.97311 16.0036C3.77419 16.0036 3.58343 15.9246 3.44278 15.7839L0.219757 12.5609C-0.0731359 12.268 -0.0731359 11.7931 0.219757 11.5002C0.512649 11.2073 0.987524 11.2073 1.28042 11.5002L3.22311 13.4429L3.22311 3.97301C3.22311 3.5588 3.55889 3.22301 3.97311 3.22301C4.38732 3.22301 4.72311 3.5588 4.72311 3.97301L4.72311 13.4429L6.6658 11.5002Z" fill="black"/>
</g>
<defs>
<clipPath id="clip0_2275_9206">
<rect width="16.0038" height="16.0036" fill="white"/>
</clipPath>
</defs>
</svg>
