<svg width="24" height="24" viewBox="0 0 24 24" fill="none" xmlns="http://www.w3.org/2000/svg">
<path d="M9.11049 17.4755C5.33401 18.665 5.51024 15.0524 4 14.6559M15.1524 21V15.9776C15.1524 15.0965 15.1767 14.4753 14.6489 13.951C17.1081 13.6867 19.1804 12.8104 19.1804 8.69203C19.177 7.63128 18.7549 6.61478 18.0059 5.86364C18.1826 5.40855 18.2674 4.92294 18.2553 4.43489C18.2432 3.94684 18.1345 3.46603 17.9354 3.02026C17.9354 3.02026 17.0102 2.75593 14.8726 4.13664C13.0752 3.66813 11.1877 3.66813 9.3903 4.13664C7.25182 2.75593 6.32753 3.02026 6.32753 3.02026C6.12845 3.46603 6.01972 3.94684 6.00762 4.43489C5.99552 4.92294 6.08029 5.40855 6.25704 5.86364C5.88337 6.23831 5.58728 6.68301 5.38574 7.17229C5.1842 7.66156 5.08115 8.18578 5.0825 8.71494C5.0825 12.8033 7.15478 13.6568 9.61399 13.951C9.09324 14.47 9.05762 15.3459 9.11049 16.0657V21" stroke="black" stroke-width="1.5" stroke-linecap="round" stroke-linejoin="round"/>
</svg>
