<svg width="36" height="36" viewBox="0 0 36 36" fill="none" xmlns="http://www.w3.org/2000/svg">
<path fill-rule="evenodd" clip-rule="evenodd" d="M6.64355 8.39343C6.64355 7.42942 6.64515 6.78186 6.71009 6.29882C6.77213 5.83736 6.87935 5.63987 7.00967 5.50955C7.13999 5.37923 7.33748 5.27201 7.79895 5.20997C8.28198 5.14503 8.92954 5.14343 9.89355 5.14343L16.9646 5.14343C17.8433 5.14343 18.0737 5.15671 18.2714 5.23858C18.4691 5.32046 18.6414 5.474 19.2627 6.09534L30.112 16.9446C30.7936 17.6262 31.2504 18.0853 31.546 18.4727C31.8285 18.8429 31.8923 19.0584 31.8923 19.2427C31.8923 19.427 31.8285 19.6424 31.546 20.0126C31.2504 20.4001 30.7936 20.8591 30.112 21.5408L23.0409 28.6118C22.3592 29.2935 21.9002 29.7503 21.5127 30.0459C21.1426 30.3283 20.9271 30.3922 20.7428 30.3922C20.5585 30.3922 20.343 30.3283 19.9729 30.0459C19.5854 29.7503 19.1264 29.2935 18.4447 28.6118L7.59546 17.7626C6.97412 17.1413 6.82058 16.9689 6.73871 16.7713C6.65683 16.5736 6.64355 16.3432 6.64355 15.4645L6.64355 8.39343ZM5.94901 4.44889C5.49354 4.90436 5.30787 5.47116 5.22347 6.09895C5.1435 6.69373 5.14352 7.44295 5.14355 8.34143V8.39343V15.4645L5.14348 15.5854L5.14348 15.5854C5.14281 16.284 5.14228 16.8369 5.35289 17.3453C5.56349 17.8538 5.95483 18.2443 6.44929 18.7379L6.5348 18.8233L17.384 29.6725L17.4208 29.7093C18.0561 30.3446 18.5859 30.8744 19.063 31.2384C19.5666 31.6227 20.0987 31.8922 20.7428 31.8922C21.3869 31.8922 21.919 31.6227 22.4226 31.2384C22.8997 30.8744 23.4295 30.3446 24.0648 29.7093L24.1016 29.6725L31.1726 22.6014L31.2094 22.5647C31.8447 21.9294 32.3745 21.3996 32.7386 20.9225C33.1228 20.4189 33.3923 19.8868 33.3923 19.2427C33.3923 18.5985 33.1228 18.0665 32.7386 17.5629C32.3745 17.0858 31.8447 16.556 31.2094 15.9207L31.2094 15.9207L31.1726 15.8839L20.3234 5.03468L20.238 4.94917C19.7445 4.45471 19.3539 4.06337 18.8454 3.85276C18.337 3.64216 17.7841 3.64269 17.0855 3.64336L17.0855 3.64336L16.9646 3.64343H9.89355H9.84155C8.94307 3.6434 8.19386 3.64338 7.59908 3.72334C6.97128 3.80775 6.40448 3.99342 5.94901 4.44889ZM13.1893 13.9399C13.1893 12.6972 14.1966 11.6899 15.4393 11.6899C16.6819 11.6899 17.6893 12.6972 17.6893 13.9399C17.6893 15.1825 16.6819 16.1899 15.4393 16.1899C14.1966 16.1899 13.1893 15.1825 13.1893 13.9399ZM15.4393 10.1899C13.3682 10.1899 11.6893 11.8688 11.6893 13.9399C11.6893 16.0109 13.3682 17.6899 15.4393 17.6899C17.5103 17.6899 19.1893 16.0109 19.1893 13.9399C19.1893 11.8688 17.5103 10.1899 15.4393 10.1899Z" fill="white"/>
</svg>
