<svg width="150" height="150" viewBox="0 -10 189 189" fill="none" xmlns="http://www.w3.org/2000/svg">
<path d="M94.73 0.281321C127 0.281321 157.543 10.0903 185.481 26.1983L187.521 27.1071L186.956 29.3008C186.894 61.5169 178.293 91.0378 162.158 118.929C146.054 146.82 124.143 169.698 96.2368 185.837L94.73 186.934L93.1291 185.774C65.2226 169.635 44.2221 146.914 28.0872 119.023C11.9523 91.1005 2.47225 60.138 2.44086 27.9219L2.15834 26.4177L3.25702 25.5715C31.1949 9.49486 62.4288 0.0932892 94.6986 0.0619507" fill="#8D33E5"/>
<path d="M186.485 25.2904C158.547 9.18238 126.999 0.313568 94.729 0.313568V185.869L96.8008 187.123C124.707 170.983 147.434 147.761 163.569 119.87C179.704 91.9789 188.305 60.8283 188.368 28.6123V26.3246L186.485 25.2904Z" fill="#7000DF"/>
<path d="M188.715 28.2047V25.823L186.675 24.6008C158.705 8.49275 127.001 0 94.7307 0C62.4609 0 30.7561 8.49275 2.81819 24.6008L0.714996 25.823V28.2047C0.777778 60.4207 9.28471 92.0414 25.4196 119.933C41.5545 147.824 64.721 171.015 92.6589 187.154L94.7307 188.345L96.8025 187.154C124.709 171.015 147.907 147.824 164.042 119.933C180.145 92.0414 188.652 60.4207 188.715 28.2047ZM94.6993 179.006C40.4872 147.354 5.80032 90.8192 5.45502 28.142C32.7023 12.8175 63.4654 4.73212 94.7307 4.73212C125.996 4.73212 156.759 12.7861 184.006 28.142C183.692 90.8818 148.974 147.354 94.6993 179.006Z" fill="#7000DF"/>
<path d="M94.7307 179.006C40.4872 147.354 5.80032 90.8192 5.45502 28.142C32.7023 12.8175 63.4654 4.76346 94.7307 4.73212V0C62.4609 0 30.7561 8.49275 2.78679 24.6008L0.714996 25.823V28.2047C0.777778 60.4207 9.28471 92.0414 25.4196 119.933C41.5545 147.824 64.721 171.015 92.6589 187.154L94.7307 188.345V179.006Z" fill="#8D33E5"/>
<path d="M153.87 58.6033C153.87 57.8826 153.744 57.1931 153.524 56.535C152.614 53.7145 149.506 46.0993 144.327 39.7375C143.385 38.4527 142.286 37.2305 141.219 35.9456L140.403 35.0054C140.058 34.6294 139.681 34.316 139.241 34.0653C138.394 33.5638 137.389 33.3131 136.385 33.3445C135.883 33.3758 135.412 33.4698 134.941 33.6265C134.721 33.6892 134.501 33.7832 134.282 33.9086C134.282 33.9086 100.034 52.4923 94.7292 55.2501C89.4242 52.4923 55.3651 33.8146 54.5175 33.7519C54.0466 33.5952 53.5758 33.5012 53.0735 33.4698C52.069 33.4385 51.0959 33.6892 50.217 34.1906C49.7775 34.4413 49.3694 34.7547 49.0555 35.1308L48.2393 36.0709C47.172 37.2931 46.1362 38.5153 45.1316 39.8629C41.2392 44.3443 36.9386 53.0878 36.0597 55.8142C35.6516 56.6604 35.4319 57.6005 35.4319 58.6033C35.4319 60.6404 36.3736 62.4893 37.849 63.6802C38.0059 63.8055 38.1315 63.9309 38.2884 64.0249L38.7279 64.307L39.3871 64.7457L44.755 68.0989L55.4279 74.7427L66.1321 81.4805L74.9844 86.8707L75.1099 124.571L75.1727 128.645L75.2669 130.713C75.2669 131.058 75.2669 131.465 75.3297 131.904C75.3924 132.656 75.5494 133.377 75.8319 134.067C76.397 135.289 77.2445 136.386 78.3118 137.2C79.3791 138.015 80.6661 138.548 81.9845 138.924C83.3029 139.269 84.433 139.457 86.0653 139.739C91.8413 140.554 97.68 140.554 103.456 139.739C105.496 139.394 106.093 139.269 107.474 138.955C109.075 138.579 110.111 138.047 111.178 137.2C112.245 136.386 113.093 135.289 113.658 134.067C113.94 133.377 114.097 132.656 114.16 131.904C114.192 131.434 114.223 131.089 114.223 130.713C114.223 130.713 114.694 96.7737 114.537 86.9021L123.358 81.5118L134.062 74.7114L144.766 67.9422L150.134 64.589L150.197 64.495C152.331 63.4295 153.87 61.2045 153.87 58.6033Z" fill="#3F017F"/>
<path d="M79.1281 84.7711C79.1595 81.6059 78.4689 78.472 77.0877 75.5889C75.7065 72.7371 73.6975 70.23 71.2176 68.2557C64.1546 62.6461 53.1992 60.6091 42.5577 62.9281C41.8671 63.0535 39.9209 61.8939 39.2303 61.7372C39.1675 61.7059 39.0733 61.6119 39.45 61.9566C39.5442 62.0506 39.7325 62.552 39.8267 62.6147L79.1281 85.1471V84.7711Z" fill="#F4A900"/>
<path d="M113.568 60.0129C121.949 56.7224 129.201 48.261 132.528 37.9192C132.779 37.1671 134.098 36.9791 134.694 36.4777C134.882 36.321 134.254 35.6629 134.474 35.5375L94.7647 58.3833L95.267 58.6654C97.998 60.2636 101.074 61.2351 104.276 61.4545C107.447 61.7052 110.617 61.2038 113.568 60.0129Z" fill="#78B6E4"/>
<path d="M109.607 85.7735C106.876 87.3718 104.553 89.5655 102.826 92.1666C101.068 94.799 99.9697 97.7762 99.5302 100.91C98.2746 109.748 101.979 120.215 109.261 128.206C109.826 128.801 109.795 129.898 109.921 130.682C109.952 130.901 110.14 130.901 110.36 131.026L110.517 85.3035L109.607 85.7735Z" fill="#20B5AC"/>
<path d="M101.414 102.633C102.199 96.4281 106.374 91.2885 112.118 87.81L110.486 85.2715L109.607 85.8043C106.876 87.4026 104.553 89.5963 102.827 92.1974C101.069 94.8298 99.97 97.807 99.5305 100.941C98.4004 108.713 101.163 117.77 106.813 125.291C102.481 118.02 100.441 109.81 101.414 102.633Z" fill="#3F017F"/>
<path d="M113.944 57.663C108.137 60.0447 101.639 58.9792 95.7686 55.6886L94.356 58.3524L95.2664 58.8852C97.9974 60.4521 101.042 61.3923 104.181 61.6116C107.32 61.831 110.491 61.3296 113.41 60.1701C120.599 57.3809 128.415 49.8283 132.182 41.4609C132.245 41.3043 131.617 40.6148 131.021 41.8684C126.846 49.2016 120.724 54.9679 113.944 57.663Z" fill="#3F017F"/>
<path d="M68.9573 69.5707C73.8228 73.5194 76.0202 78.847 75.8946 85.5221L78.9082 86.4622L79.8499 85.4281C80.0382 79.0663 77.2444 71.1063 72.2533 67.0323C66.446 62.1435 54.2349 60.5139 46.0419 61.7361C45.728 61.7988 45.5711 62.2689 47.737 62.1748C56.2753 62.3002 63.3697 64.9013 68.9573 69.5707Z" fill="#3F017F"/>
<path d="M94.7307 136.26C90.4929 136.291 86.2551 135.727 82.1743 134.63C81.2954 134.379 80.542 133.847 79.9769 133.126C79.4433 132.405 79.1294 131.528 79.1294 130.619V84.7704C79.1608 81.6052 78.4388 78.4714 77.089 75.5882C75.7078 72.7364 73.6988 70.2293 71.2189 68.255C64.1559 62.6454 53.2005 60.6084 42.559 62.9274C41.4917 63.1782 40.3617 62.9901 39.4199 62.3947C38.4782 61.7993 37.819 60.8591 37.5679 59.7936C37.3795 59.0101 37.4423 58.164 37.7248 57.4119C39.0746 53.5886 40.7383 49.9219 42.716 46.3807C44.8192 42.6827 47.4246 39.3295 50.4381 36.3524C51.0973 35.7256 51.9449 35.3182 52.8238 35.2242C53.7342 35.1301 54.6445 35.2868 55.4293 35.7569L94.197 58.1013L95.2329 58.6967C97.9639 60.295 101.04 61.2665 104.242 61.4859C107.413 61.7052 110.583 61.2038 113.534 60.013C121.915 56.7224 129.166 48.261 132.494 37.9193C132.651 37.3865 132.933 36.9164 133.279 36.4777C133.624 36.0703 134.063 35.7256 134.566 35.4435C135.068 35.1928 135.602 35.0361 136.135 34.9735C136.669 34.9108 137.234 34.9735 137.768 35.1615C138.552 35.4122 139.212 35.8509 139.745 36.4777C142.382 39.5489 144.736 42.8708 146.808 46.3493C148.974 50.016 150.606 53.9333 151.674 58.0386C151.893 58.9161 151.799 59.8563 151.454 60.6711C151.109 61.5172 150.481 62.2067 149.696 62.6454L110.677 85.1465L109.61 85.7733C106.879 87.3715 104.556 89.5652 102.83 92.1663C101.072 94.7988 99.9729 97.7759 99.5335 100.91C98.2778 109.747 101.982 120.214 109.265 128.206C109.767 128.77 110.112 129.428 110.269 130.18C110.426 130.901 110.363 131.684 110.144 132.374C109.892 133.094 109.453 133.721 108.888 134.191C108.323 134.661 107.632 135.006 106.879 135.131C102.861 135.821 98.7801 136.197 94.7307 136.26Z" fill="white"/>
</svg>
