<?xml version="1.0" encoding="UTF-8"?>
<svg version="1.1" xmlns="http://www.w3.org/2000/svg" width="42" height="42">
<path d="M0 0 C1.97610386 2.04424538 3 3.1176825 3 6 C4.11375 5.95875 5.2275 5.9175 6.375 5.875 C10 6 10 6 12 8 C12.4375 11.4375 12.4375 11.4375 12 15 C9.5 16.8125 9.5 16.8125 7 18 C7 18.66 7 19.32 7 20 C8.2375 20.5259375 8.2375 20.5259375 9.5 21.0625 C12 23 12 23 12.40234375 25.125 C12.43651883 27.4944721 12.42068394 29.66631118 12 32 C10 34 10 34 7.6171875 34.1953125 C6.25980469 34.16050781 6.25980469 34.16050781 4.875 34.125 C3.96492188 34.10695312 3.05484375 34.08890625 2.1171875 34.0703125 C1.41851563 34.04710937 0.71984375 34.02390625 0 34 C-0.28875 33.195625 -0.5775 32.39125 -0.875 31.5625 C-1.73262568 28.8673532 -1.73262568 28.8673532 -4 28 C-4.66 29.98 -5.32 31.96 -6 34 C-7.47906892 34.02689216 -8.95827483 34.04634621 -10.4375 34.0625 C-11.67306641 34.07990234 -11.67306641 34.07990234 -12.93359375 34.09765625 C-15 34 -15 34 -16 33 C-16.14115161 30.32941149 -16.04247107 27.67567762 -16 25 C-16.804375 24.690625 -17.60875 24.38125 -18.4375 24.0625 C-21 23 -21 23 -22 22 C-22.1875 19.0625 -22.1875 19.0625 -22 16 C-21.34 15.34 -20.68 14.68 -20 14 C-18.68 14 -17.36 14 -16 14 C-16 11.69 -16 9.38 -16 7 C-13.29120665 5.64560332 -10.99066732 5.93498549 -8 6 C-7.87625 5.195625 -7.7525 4.39125 -7.625 3.5625 C-7.41875 2.716875 -7.2125 1.87125 -7 1 C-4.4254716 -0.2872642 -2.85291355 -0.34791629 0 0 Z M-3 3 C-3.66 3.66 -4.32 4.32 -5 5 C-5 6.32 -5 7.64 -5 9 C-7.64 9.33 -10.28 9.66 -13 10 C-13.061875 10.94875 -13.12375 11.8975 -13.1875 12.875 C-13.455625 13.90625 -13.72375 14.9375 -14 16 C-16.5625 17.375 -16.5625 17.375 -19 18 C-18.67 18.99 -18.34 19.98 -18 21 C-16.35 21.33 -14.7 21.66 -13 22 C-13 24.97 -13 27.94 -13 31 C-11.35 31 -9.7 31 -8 31 C-7.34 29.35 -6.68 27.7 -6 26 C-3.1875 25.6875 -3.1875 25.6875 0 26 C1.03013277 27.64821244 2.03114628 29.31503702 3 31 C5.62694422 31.41780879 5.62694422 31.41780879 8 31 C8 28.69 8 26.38 8 24 C6.35 23.67 4.7 23.34 3 23 C3.25 19.625 3.25 19.625 4 16 C6.0625 14.5625 6.0625 14.5625 8 14 C8 12.68 8 11.36 8 10 C6.906875 9.95875 5.81375 9.9175 4.6875 9.875 C1 9 1 9 -0.9375 5.9375 C-1.288125 4.968125 -1.63875 3.99875 -2 3 C-2.33 3 -2.66 3 -3 3 Z " fill="#FFFFFF" transform="translate(28,4)"/>
</svg>
