<svg width="36" height="36" viewBox="0 0 36 36" fill="none" xmlns="http://www.w3.org/2000/svg">
<rect width="36" height="36" rx="18" fill="#8D33E5"/>
<path d="M28.4484 14.5154C28.4484 14.3883 28.4263 14.2666 28.3875 14.1505C28.2269 13.6529 27.6786 12.3093 26.7647 11.1868C26.5986 10.9601 26.4047 10.7445 26.2164 10.5178L26.0724 10.3519C26.0115 10.2856 25.945 10.2303 25.8675 10.186C25.718 10.0976 25.5407 10.0533 25.3635 10.0589C25.2749 10.0644 25.1918 10.081 25.1087 10.1086C25.07 10.1197 25.0312 10.1363 24.9924 10.1584C24.9924 10.1584 18.9499 13.4372 18.0139 13.9238C17.0779 13.4372 11.0687 10.1418 10.9192 10.1308C10.8361 10.1031 10.753 10.0865 10.6644 10.081C10.4872 10.0755 10.3155 10.1197 10.1604 10.2082C10.0828 10.2524 10.0108 10.3077 9.95546 10.374L9.81146 10.5399C9.62315 10.7556 9.44038 10.9712 9.26315 11.209C8.57638 11.9996 7.8176 13.5423 7.66253 14.0233C7.59053 14.1726 7.55176 14.3385 7.55176 14.5154C7.55176 14.8748 7.71791 15.2011 7.97822 15.4112C8.00591 15.4333 8.02807 15.4554 8.05576 15.472L8.1333 15.5218L8.24961 15.5992L9.19669 16.1908L11.0798 17.363L12.9684 18.5518L14.5302 19.5028L14.5524 26.1545L14.5635 26.8733L14.5801 27.2382C14.5801 27.2991 14.5801 27.3709 14.5912 27.4483C14.6022 27.581 14.6299 27.7082 14.6798 27.8299C14.7795 28.0455 14.929 28.239 15.1173 28.3828C15.3056 28.5265 15.5327 28.6205 15.7653 28.6869C15.9979 28.7477 16.1973 28.7809 16.4853 28.8307C17.5044 28.9744 18.5346 28.9744 19.5536 28.8307C19.9136 28.7698 20.0189 28.7477 20.2626 28.6924C20.545 28.6261 20.7278 28.5321 20.9161 28.3828C21.1044 28.239 21.2539 28.0455 21.3536 27.8299C21.4035 27.7082 21.4312 27.581 21.4423 27.4483C21.4478 27.3654 21.4533 27.3046 21.4533 27.2382C21.4533 27.2382 21.5364 21.2501 21.5087 19.5084L23.065 18.5573L24.9536 17.3575L26.8423 16.1632L27.7894 15.5715L27.8004 15.5549C28.177 15.3669 28.4484 14.9744 28.4484 14.5154Z" fill="#3F017F"/>
<path d="M15.2621 19.1323C15.2677 18.5738 15.1458 18.0209 14.9021 17.5122C14.6584 17.0091 14.304 16.5667 13.8664 16.2184C12.6203 15.2286 10.6873 14.8692 8.8098 15.2784C8.68796 15.3005 8.34457 15.0959 8.22273 15.0683C8.21165 15.0628 8.19503 15.0462 8.26149 15.107C8.27811 15.1236 8.31134 15.2121 8.32796 15.2231L15.2621 19.1986V19.1323Z" fill="#F4A900"/>
<path d="M21.3381 14.7641C22.8168 14.1836 24.0962 12.6907 24.6833 10.866C24.7276 10.7333 24.9602 10.7001 25.0654 10.6117C25.0987 10.584 24.9879 10.4679 25.0267 10.4458L18.0205 14.4766L18.1091 14.5264C18.591 14.8084 19.1337 14.9798 19.6987 15.0185C20.2581 15.0627 20.8174 14.9743 21.3381 14.7641Z" fill="#78B6E4"/>
<path d="M20.6393 19.3093C20.1574 19.5913 19.7476 19.9784 19.443 20.4373C19.1328 20.9017 18.939 21.427 18.8614 21.9799C18.6399 23.5392 19.2934 25.386 20.5784 26.7959C20.678 26.901 20.6725 27.0945 20.6947 27.2327C20.7002 27.2714 20.7334 27.2714 20.7722 27.2935L20.7999 19.2264L20.6393 19.3093Z" fill="#20B5AC"/>
<path d="M19.1937 22.284C19.3321 21.1892 20.0687 20.2824 21.0823 19.6686L20.7943 19.2208L20.6392 19.3148C20.1574 19.5968 19.7475 19.9838 19.4429 20.4427C19.1327 20.9072 18.9389 21.4325 18.8614 21.9854C18.662 23.3566 19.1494 24.9546 20.1463 26.2816C19.382 24.9988 19.022 23.5502 19.1937 22.284Z" fill="#3F017F"/>
<path d="M21.4038 14.3495C20.3791 14.7698 19.2327 14.5818 18.197 14.0012L17.9478 14.4712L18.1084 14.5652C18.5902 14.8416 19.1275 15.0075 19.6813 15.0462C20.2351 15.0849 20.7945 14.9965 21.3096 14.7919C22.5779 14.2998 23.957 12.9672 24.6216 11.4909C24.6327 11.4633 24.5219 11.3416 24.4167 11.5628C23.6801 12.8567 22.6001 13.874 21.4038 14.3495Z" fill="#3F017F"/>
<path d="M13.4668 16.4505C14.3253 17.1472 14.713 18.0872 14.6908 19.2649L15.2225 19.4308L15.3887 19.2483C15.4219 18.1259 14.929 16.7214 14.0484 16.0026C13.0238 15.1401 10.8693 14.8526 9.42375 15.0682C9.36837 15.0793 9.34068 15.1622 9.72283 15.1456C11.2293 15.1677 12.481 15.6266 13.4668 16.4505Z" fill="#3F017F"/>
<path d="M18.0142 28.217C17.2665 28.2225 16.5188 28.123 15.7988 27.9294C15.6438 27.8852 15.5108 27.7912 15.4111 27.664C15.317 27.5369 15.2616 27.382 15.2616 27.2217V19.1324C15.2671 18.5739 15.1398 18.021 14.9016 17.5123C14.6579 17.0092 14.3035 16.5668 13.8659 16.2185C12.6198 15.2288 10.6868 14.8694 8.80928 15.2785C8.62097 15.3228 8.42159 15.2896 8.25543 15.1845C8.08928 15.0795 7.97297 14.9136 7.92866 14.7256C7.89543 14.5874 7.90651 14.4381 7.95636 14.3054C8.19451 13.6308 8.48805 12.9839 8.83697 12.3591C9.20805 11.7066 9.66774 11.115 10.1994 10.5897C10.3157 10.4791 10.4653 10.4073 10.6204 10.3907C10.781 10.3741 10.9416 10.4017 11.0801 10.4847L17.9201 14.427L18.1028 14.5321C18.5847 14.8141 19.1275 14.9855 19.6924 15.0242C20.2518 15.0629 20.8112 14.9744 21.3318 14.7643C22.8106 14.1837 24.0899 12.6908 24.677 10.8662C24.7047 10.7722 24.7546 10.6892 24.8155 10.6118C24.8764 10.54 24.9539 10.4791 25.0426 10.4294C25.1312 10.3851 25.2253 10.3575 25.3195 10.3464C25.4136 10.3354 25.5133 10.3464 25.6075 10.3796C25.7459 10.4238 25.8623 10.5013 25.9564 10.6118C26.4216 11.1537 26.837 11.7398 27.2026 12.3535C27.5847 13.0005 27.8727 13.6916 28.061 14.416C28.0998 14.5708 28.0832 14.7367 28.0223 14.8804C27.9613 15.0297 27.8506 15.1513 27.7121 15.2288L20.8278 19.1988L20.6395 19.3093C20.1576 19.5913 19.7478 19.9784 19.4432 20.4373C19.133 20.9018 18.9392 21.427 18.8616 21.98C18.6401 23.5392 19.2936 25.386 20.5785 26.7959C20.6672 26.8955 20.7281 27.0116 20.7558 27.1443C20.7835 27.2715 20.7724 27.4097 20.7336 27.5313C20.6893 27.6585 20.6118 27.7691 20.5121 27.852C20.4124 27.935 20.2905 27.9958 20.1576 28.0179C19.4487 28.1395 18.7287 28.2059 18.0142 28.217Z" fill="white"/>
</svg>
