<svg width="13" height="12" viewBox="0 0 13 12" fill="none" xmlns="http://www.w3.org/2000/svg">
<path d="M5.80937 0.5C4.88889 0.5 4.1427 1.24619 4.1427 2.16667H5.1427C5.1427 1.79848 5.44118 1.5 5.80937 1.5V0.5ZM7.47604 2.16667C7.47604 1.24619 6.72984 0.5 5.80937 0.5V1.5C6.17756 1.5 6.47604 1.79848 6.47604 2.16667H7.47604ZM8.64283 2.56894H7.87831V3.56894H8.64283V2.56894ZM10.1428 4.68968V4.06894H9.14283V4.68968H10.1428ZM12.1428 6.68967C12.1428 5.74698 11.3786 4.98278 10.4359 4.98278V5.98278C10.8263 5.98278 11.1428 6.29927 11.1428 6.68967H12.1428ZM10.4359 8.39657C11.3786 8.39657 12.1428 7.63237 12.1428 6.68967H11.1428C11.1428 7.08008 10.8263 7.39657 10.4359 7.39657V8.39657ZM10.1428 9.99998V8.68967H9.14283V9.99998H10.1428ZM7.71909 11.5H8.64283V10.5H7.71909V11.5ZM5.80973 9.59062C6.17792 9.59062 6.4764 9.88909 6.4764 10.2573H7.4764C7.4764 9.33681 6.73021 8.59062 5.80973 8.59062V9.59062ZM5.14307 10.2573C5.14307 9.88909 5.44154 9.59062 5.80973 9.59062V8.59062C4.88926 8.59062 4.14307 9.33681 4.14307 10.2573H5.14307ZM2.64282 11.5H3.90038V10.5H2.64282V11.5ZM1.14282 8.60274V9.99998H2.14282V8.60274H1.14282ZM3.07845 6.66711C3.07845 7.05752 2.76196 7.37401 2.37156 7.37401V8.37401C3.31425 8.37401 4.07845 7.6098 4.07845 6.66711H3.07845ZM2.37156 5.96022C2.76196 5.96022 3.07845 6.2767 3.07845 6.66711H4.07845C4.07845 5.72442 3.31425 4.96022 2.37156 4.96022V5.96022ZM1.14282 4.06894V4.73148H2.14282V4.06894H1.14282ZM3.74043 2.56894H2.64282V3.56894H3.74043V2.56894ZM3.74043 3.56894C4.51488 3.56894 5.1427 2.94112 5.1427 2.16667H4.1427C4.1427 2.38884 3.9626 2.56894 3.74043 2.56894V3.56894ZM2.14282 8.60274C2.14282 8.47642 2.24523 8.37401 2.37156 8.37401V7.37401C1.69295 7.37401 1.14282 7.92413 1.14282 8.60274H2.14282ZM2.14282 4.06894C2.14282 3.7928 2.36668 3.56894 2.64282 3.56894V2.56894C1.8144 2.56894 1.14282 3.24051 1.14282 4.06894H2.14282ZM7.71909 10.5C7.58506 10.5 7.4764 10.3913 7.4764 10.2573H6.4764C6.4764 10.9436 7.03277 11.5 7.71909 11.5V10.5ZM2.37156 4.96022C2.24523 4.96022 2.14282 4.85781 2.14282 4.73148H1.14282C1.14282 5.41009 1.69294 5.96022 2.37156 5.96022V4.96022ZM9.14283 9.99998C9.14283 10.2761 8.91897 10.5 8.64283 10.5V11.5C9.47125 11.5 10.1428 10.8284 10.1428 9.99998H9.14283ZM2.64282 10.5C2.36668 10.5 2.14282 10.2761 2.14282 9.99998H1.14282C1.14282 10.8284 1.8144 11.5 2.64282 11.5V10.5ZM9.14283 4.68968C9.14283 5.40384 9.72177 5.98278 10.4359 5.98278V4.98278C10.2741 4.98278 10.1428 4.85155 10.1428 4.68968H9.14283ZM10.4359 7.39657C9.72177 7.39657 9.14283 7.97551 9.14283 8.68967H10.1428C10.1428 8.5278 10.2741 8.39657 10.4359 8.39657V7.39657ZM4.14307 10.2573C4.14307 10.3913 4.03441 10.5 3.90038 10.5V11.5C4.58669 11.5 5.14307 10.9436 5.14307 10.2573H4.14307ZM8.64283 3.56894C8.91897 3.56894 9.14283 3.7928 9.14283 4.06894H10.1428C10.1428 3.24051 9.47125 2.56894 8.64283 2.56894V3.56894ZM6.47604 2.16667C6.47604 2.94112 7.10385 3.56894 7.87831 3.56894V2.56894C7.65614 2.56894 7.47604 2.38884 7.47604 2.16667H6.47604Z" fill="#0B0118"/>
</svg>
