<svg width="12" height="12" viewBox="0 0 12 12" fill="none" xmlns="http://www.w3.org/2000/svg">
<path fill-rule="evenodd" clip-rule="evenodd" d="M6.96967 10.0303C7.26256 10.3232 7.73744 10.3232 8.03033 10.0303L10.5303 7.53033C10.8232 7.23744 10.8232 6.76256 10.5303 6.46967L8.03033 3.96967C7.73744 3.67678 7.26256 3.67678 6.96967 3.96967C6.67678 4.26256 6.67678 4.73744 6.96967 5.03033L8.18934 6.25H8.1875H8.17188H8.15625H8.14062H8.125H8.10938H8.09375H8.07812H8.0625H8.04688H8.03125H8.01562H8H7.98438H7.96875H7.95312H7.9375H7.92188H7.90625H7.89062H7.875H7.85938H7.84375H7.82812H7.8125H7.79688H7.78125H7.76562H7.75H7.73438H7.71875H7.70312H7.6875H7.67188H7.65625H7.64062H7.625H7.60938H7.59375H7.57812H7.5625H7.54688H7.53125H7.51562H7.5H7.48438H7.46875H7.45312H7.4375H7.42188H7.40625H7.39062H7.375H7.35938H7.34375H7.32812H7.3125H7.29688H7.28125H7.26562H7.25H7.23438H7.21875H7.20312H7.1875H7.17188H7.15625H7.14062H7.125H7.10938H7.09375H7.07812H7.0625H7.04688H7.03125H7.01562H7H6.98438H6.96875H6.95312H6.9375H6.92188H6.90625H6.89062H6.875H6.85938H6.84375H6.82812H6.8125H6.79688H6.78125H6.76562H6.75H6.73438H6.71875H6.70312H6.6875H6.67188H6.65625H6.64062H6.625H6.60938H6.59375H6.57812H6.5625H6.54688H6.53125H6.51562H6.5H6.48438H6.46875H6.45312H6.4375H6.42188H6.40625H6.39062H6.375H6.35938H6.34375H6.32812H6.3125H6.29688H6.28125H6.26562H6.25H6.23438H6.21875H6.20312H6.1875H6.17188H6.15625H6.14062H6.125H6.10938H6.09375H6.07812H6.0625H6.04688H6.03125H6.01562H6H5.98438H5.96875H5.95312H5.9375H5.92188H5.90625H5.89062H5.875H5.85938H5.84375H5.82812H5.8125H5.79688H5.78125H5.76562H5.75H5.73438H5.71875H5.70312H5.6875H5.67188H5.65625H5.64062H5.625H5.60938H5.59375H5.57812H5.5625H5.54688H5.53125H5.51562H5.5H5.48438H5.46875H5.45312H5.4375H5.42188H5.40625H5.39062H5.375H5.35938H5.34375H5.32812H5.3125H5.29688H5.28125H5.26562H5.25H5.23438H5.21875H5.20312H5.1875H5.17188H5.15625H5.14062H5.125H5.10938H5.09375H5.07812H5.0625H5.04688H5.03125H5.01562H5H4.98438H4.96875H4.95312H4.9375H4.92188H4.90625H4.89062H4.875H4.85938H4.84375H4.82812H4.8125H4.79688H4.78125H4.76562H4.75H4.73438H4.71875H4.70312H4.6875H4.67188H4.65625H4.64062H4.625H4.60938H4.59375H4.57812H4.5625H4.54688H4.53125H4.51562H4.5H4.48438H4.46875H4.45312H4.4375H4.42188H4.40625H4.39062H4.375H4.35938H4.34375H4.32812H4.3125H4.29688H4.28125H4.26562H4.25H4.23438H4.21875H4.20312H4.1875H4.17188H4.15625H4.14062H4.125H4.10938H4.09375H4.07812H4.0625H4.04688H4.03125H4.01562H4H3.98438H3.96875H3.95312H3.9375H3.92188H3.90625H3.89062H3.875H3.85938H3.84375H3.82812H3.8125H3.79688H3.78125H3.76562H3.75H3.73438H3.71875H3.70312H3.6875H3.67188H3.65625H3.64062H3.625H3.60938H3.59375H3.57812H3.5625H3.54688H3.53125H3.51562H3.5H3.48438H3.46875H3.45312H3.4375H3.42188H3.40625H3.39062H3.375H3.35938H3.34375H3.32812H3.3125H3.29688H3.28125H3.26562H3.25H3.23438H3.21875H3.20312H3.1875H3.17188H3.15625H3.14062H3.125H3.10938H3.09375H3.07812H3.0625H3.04688H3.03125H3.01562H3H2.98438H2.96875H2.95312H2.9375H2.92188H2.90625H2.89062H2.875H2.85938H2.84375H2.82812H2.8125H2.79688H2.78125H2.76562H2.75V1.5C2.75 1.08579 2.41421 0.75 2 0.75C1.58579 0.75 1.25 1.08579 1.25 1.5V7C1.25 7.41421 1.58579 7.75 2 7.75H2.01562H2.03125H2.04688H2.0625H2.07812H2.09375H2.10938H2.125H2.14062H2.15625H2.17188H2.1875H2.20312H2.21875H2.23438H2.25H2.26562H2.28125H2.29688H2.3125H2.32812H2.34375H2.35938H2.375H2.39062H2.40625H2.42188H2.4375H2.45312H2.46875H2.48438H2.5H2.51562H2.53125H2.54688H2.5625H2.57812H2.59375H2.60938H2.625H2.64062H2.65625H2.67188H2.6875H2.70312H2.71875H2.73438H2.75H2.76562H2.78125H2.79688H2.8125H2.82812H2.84375H2.85938H2.875H2.89062H2.90625H2.92188H2.9375H2.95312H2.96875H2.98438H3H3.01562H3.03125H3.04688H3.0625H3.07812H3.09375H3.10938H3.125H3.14062H3.15625H3.17188H3.1875H3.20312H3.21875H3.23438H3.25H3.26562H3.28125H3.29688H3.3125H3.32812H3.34375H3.35938H3.375H3.39062H3.40625H3.42188H3.4375H3.45312H3.46875H3.48438H3.5H3.51562H3.53125H3.54688H3.5625H3.57812H3.59375H3.60938H3.625H3.64062H3.65625H3.67188H3.6875H3.70312H3.71875H3.73438H3.75H3.76562H3.78125H3.79688H3.8125H3.82812H3.84375H3.85938H3.875H3.89062H3.90625H3.92188H3.9375H3.95312H3.96875H3.98438H4H4.01562H4.03125H4.04688H4.0625H4.07812H4.09375H4.10938H4.125H4.14062H4.15625H4.17188H4.1875H4.20312H4.21875H4.23438H4.25H4.26562H4.28125H4.29688H4.3125H4.32812H4.34375H4.35938H4.375H4.39062H4.40625H4.42188H4.4375H4.45312H4.46875H4.48438H4.5H4.51562H4.53125H4.54688H4.5625H4.57812H4.59375H4.60938H4.625H4.64062H4.65625H4.67188H4.6875H4.70312H4.71875H4.73438H4.75H4.76562H4.78125H4.79688H4.8125H4.82812H4.84375H4.85938H4.875H4.89062H4.90625H4.92188H4.9375H4.95312H4.96875H4.98438H5H5.01562H5.03125H5.04688H5.0625H5.07812H5.09375H5.10938H5.125H5.14062H5.15625H5.17188H5.1875H5.20312H5.21875H5.23438H5.25H5.26562H5.28125H5.29688H5.3125H5.32812H5.34375H5.35938H5.375H5.39062H5.40625H5.42188H5.4375H5.45312H5.46875H5.48438H5.5H5.51562H5.53125H5.54688H5.5625H5.57812H5.59375H5.60938H5.625H5.64062H5.65625H5.67188H5.6875H5.70312H5.71875H5.73438H5.75H5.76562H5.78125H5.79688H5.8125H5.82812H5.84375H5.85938H5.875H5.89062H5.90625H5.92188H5.9375H5.95312H5.96875H5.98438H6H6.01562H6.03125H6.04688H6.0625H6.07812H6.09375H6.10938H6.125H6.14062H6.15625H6.17188H6.1875H6.20312H6.21875H6.23438H6.25H6.26562H6.28125H6.29688H6.3125H6.32812H6.34375H6.35938H6.375H6.39062H6.40625H6.42188H6.4375H6.45312H6.46875H6.48438H6.5H6.51562H6.53125H6.54688H6.5625H6.57812H6.59375H6.60938H6.625H6.64062H6.65625H6.67188H6.6875H6.70312H6.71875H6.73438H6.75H6.76562H6.78125H6.79688H6.8125H6.82812H6.84375H6.85938H6.875H6.89062H6.90625H6.92188H6.9375H6.95312H6.96875H6.98438H7H7.01562H7.03125H7.04688H7.0625H7.07812H7.09375H7.10938H7.125H7.14062H7.15625H7.17188H7.1875H7.20312H7.21875H7.23438H7.25H7.26562H7.28125H7.29688H7.3125H7.32812H7.34375H7.35938H7.375H7.39062H7.40625H7.42188H7.4375H7.45312H7.46875H7.48438H7.5H7.51562H7.53125H7.54688H7.5625H7.57812H7.59375H7.60938H7.625H7.64062H7.65625H7.67188H7.6875H7.70312H7.71875H7.73438H7.75H7.76562H7.78125H7.79688H7.8125H7.82812H7.84375H7.85938H7.875H7.89062H7.90625H7.92188H7.9375H7.95312H7.96875H7.98438H8H8.01562H8.03125H8.04688H8.0625H8.07812H8.09375H8.10938H8.125H8.14062H8.15625H8.17188H8.1875H8.18934L6.96967 8.96967C6.67678 9.26256 6.67678 9.73744 6.96967 10.0303Z" fill="#000000"/>
</svg>
