<svg width="16" height="16" viewBox="0 0 16 16" fill="none" xmlns="http://www.w3.org/2000/svg">
<path d="M8.64286 9.25965V12.1008C8.64286 12.3217 8.46377 12.5 8.24286 12.5H7.75714C7.53623 12.5 7.35714 12.3218 7.35714 12.1009V9.75913C7.35714 9.48299 7.13317 9.26263 6.85713 9.25504C6.01272 9.23181 5.38136 9.09181 4.75 8.25C4.1124 7.39986 3.75029 6.13109 3.59373 5.4658C3.53853 5.23124 3.71237 5.01577 3.95316 5.02469C4.69805 5.05228 6.18021 5.21033 7 6C8 6.96326 8.64286 8.01336 8.64286 9.25965Z" stroke="#66B7E7" stroke-linejoin="round"/>
<path d="M8.75 6.75C8.66126 6.56841 8.53686 6.3928 8.41247 6.23835C8.17287 5.94085 8.09084 5.54302 8.30269 5.22516C8.58518 4.80132 9.00163 4.3344 9.5 4.02523C10.1089 3.64749 10.5279 3.60931 11.2143 3.52671C11.5146 3.49057 11.8412 3.4979 12.1005 3.50948C12.3212 3.51934 12.5024 3.706 12.4887 3.92649C12.4672 4.2748 12.4107 4.61757 12.2857 5.02226C12.0027 5.93831 11.7927 6.20617 11.2143 6.75C10.9105 7.03564 10.44 7.27922 10.0357 7.45445C9.59003 7.64759 9.08859 7.43456 8.87283 6.99939C8.83141 6.91584 8.78983 6.8315 8.75 6.75Z" stroke="#66B7E7" stroke-linejoin="round"/>
</svg>
