<svg width="14" height="14" viewBox="0 0 14 14" fill="none" xmlns="http://www.w3.org/2000/svg">
<path fill-rule="evenodd" clip-rule="evenodd" d="M2.5 6.41667C2.5 4.25355 4.25355 2.5 6.41667 2.5C8.57978 2.5 10.3333 4.25355 10.3333 6.41667C10.3333 8.57978 8.57978 10.3333 6.41667 10.3333C4.25355 10.3333 2.5 8.57978 2.5 6.41667ZM6.41667 1C3.42512 1 1 3.42512 1 6.41667C1 9.40821 3.42512 11.8333 6.41667 11.8333C7.64199 11.8333 8.77228 11.4265 9.67982 10.7405L11.1363 12.197C11.4292 12.4899 11.9041 12.4899 12.197 12.197C12.4899 11.9041 12.4899 11.4292 12.197 11.1363L10.7405 9.67982C11.4265 8.77228 11.8333 7.64199 11.8333 6.41667C11.8333 3.42512 9.40821 1 6.41667 1Z" fill="#A8A6A6"/>
</svg>
