<svg width="16" height="16" viewBox="0 0 16 16" fill="none" xmlns="http://www.w3.org/2000/svg">
<g clip-path="url(#clip0_2518_11376)">
<path d="M10.3599 9.65121C12.5533 9.65121 14.3315 11.4295 14.3315 13.6229C14.3312 14.9263 13.2746 15.983 11.9712 15.9832H3.9165C2.61307 15.983 1.55646 14.9263 1.55615 13.6229C1.55615 11.4295 3.33441 9.65121 5.52783 9.65121H10.3599ZM5.52783 11.1512C4.16284 11.1512 3.05615 12.2579 3.05615 13.6229C3.05646 14.0979 3.4415 14.483 3.9165 14.4832H11.9712C12.4462 14.483 12.8312 14.0979 12.8315 13.6229C12.8315 12.2579 11.7249 11.1512 10.3599 11.1512H5.52783ZM7.94385 -0.0138245C10.1372 -0.0137457 11.9155 1.76449 11.9155 3.95786C11.9154 6.15116 10.1371 7.92946 7.94385 7.92953C5.75049 7.92952 3.97225 6.1512 3.97217 3.95786C3.97217 1.76445 5.75044 -0.0138114 7.94385 -0.0138245ZM7.94385 1.48618C6.57887 1.48619 5.47217 2.59287 5.47217 3.95786C5.47225 5.32277 6.57892 6.42952 7.94385 6.42953C9.30872 6.42946 10.4154 5.32273 10.4155 3.95786C10.4155 2.59291 9.30877 1.48625 7.94385 1.48618Z" fill="#26C3F2"/>
</g>
<defs>
<clipPath id="clip0_2518_11376">
<rect width="16" height="16" fill="white"/>
</clipPath>
</defs>
</svg>
