<svg width="16" height="16" viewBox="0 0 16 16" fill="none" xmlns="http://www.w3.org/2000/svg">
<g clip-path="url(#clip0_2518_11384)">
<path d="M7.99928 0.340912C8.19813 0.340912 8.38891 0.420069 8.52955 0.560638L15.803 7.83408L15.8538 7.89072C16.0939 8.18528 16.0775 8.62007 15.803 8.89462C15.5284 9.16901 15.0936 9.18555 14.7991 8.9454L14.7415 8.89462L13.8401 7.99228V14.9093C13.84 15.3234 13.5043 15.6593 13.0901 15.6593H2.90846C2.49438 15.6592 2.15855 15.3233 2.15846 14.9093V7.99326L1.25709 8.89462C0.964286 9.18704 0.489347 9.18704 0.196543 8.89462C-0.0962317 8.60185 -0.0959949 8.127 0.196543 7.83408L2.37135 5.65829L7.469 0.560638L7.58326 0.466888C7.7055 0.385381 7.85019 0.340965 7.99928 0.340912ZM4.90162 5.24814C4.8988 5.25105 4.89669 5.25502 4.89381 5.2579L3.65846 6.49326V14.1593H12.3401V6.49228L7.99928 2.15146L4.90162 5.24814Z" fill="#26C3F2"/>
</g>
<defs>
<clipPath id="clip0_2518_11384">
<rect width="16" height="16" fill="white"/>
</clipPath>
</defs>
</svg>
