<svg width="16" height="16" viewBox="0 0 16 16" fill="none" xmlns="http://www.w3.org/2000/svg">
<g clip-path="url(#clip0_2518_11364)">
<path d="M6.83301 1L6.83301 0.25L6.83286 0.25L6.83301 1ZM13.3105 7.27539L13.3106 6.52539H13.3105V7.27539ZM15 8.96582L15.75 8.96595L15.75 8.96582L15 8.96582ZM13.3105 10.6553L13.3105 11.4053L13.3106 11.4053L13.3105 10.6553ZM8.4668 13.96L9.2168 13.96L9.2168 13.9598L8.4668 13.96ZM6.83398 12.3271L6.83417 11.5771H6.83398V12.3271ZM5.2002 13.96L4.4502 13.9598V13.96H5.2002ZM2.02051 10.623L2.02051 11.373L2.02062 11.373L2.02051 10.623ZM3.70996 8.93359L4.45996 8.93359L4.45996 8.93345L3.70996 8.93359ZM2.02051 7.24414L2.02062 6.49414H2.02051V7.24414ZM6.83301 1V1.75C7.32086 1.75 7.7168 2.14594 7.7168 2.63379H8.4668H9.2168C9.2168 1.31751 8.14929 0.25 6.83301 0.25V1ZM8.4668 2.63379H7.7168V2.89648H8.4668H9.2168V2.63379H8.4668ZM9.4668 3.89648V4.64648H11.2002V3.89648V3.14648H9.4668V3.89648ZM12.2002 4.89648H11.4502V6.27539H12.2002H12.9502V4.89648H12.2002ZM13.2002 7.27539V8.02539H13.3105V7.27539V6.52539H13.2002V7.27539ZM13.3105 7.27539L13.3105 8.02539C13.8289 8.02545 14.25 8.44644 14.25 8.96582L15 8.96582L15.75 8.96582C15.75 7.61898 14.6583 6.52554 13.3106 6.52539L13.3105 7.27539ZM15 8.96582L14.25 8.96569C14.2499 9.4846 13.8293 9.90522 13.3105 9.90527L13.3105 10.6553L13.3106 11.4053C14.6578 11.4051 15.7498 10.313 15.75 8.96595L15 8.96582ZM13.3105 10.6553V9.90527H13.2002V10.6553V11.4053H13.3105V10.6553ZM12.2002 11.6553H11.4502V14H12.2002H12.9502V11.6553H12.2002ZM11.2002 15V14.25H9.4668V15V15.75H11.2002V15ZM8.4668 14H9.2168V13.96H8.4668H7.7168V14H8.4668ZM8.4668 13.96L9.2168 13.9598C9.21658 12.6439 8.14996 11.5775 6.83417 11.5771L6.83398 12.3271L6.8338 13.0771C7.32158 13.0773 7.71672 13.4725 7.7168 13.9601L8.4668 13.96ZM6.83398 12.3271V11.5771C5.51826 11.5771 4.45041 12.6433 4.4502 13.9598L5.2002 13.96L5.9502 13.9601C5.95028 13.4727 6.34576 13.0771 6.83398 13.0771V12.3271ZM5.2002 13.96H4.4502V14H5.2002H5.9502V13.96H5.2002ZM4.2002 15V14.25H2V15V15.75H4.2002V15ZM1 14H1.75V11.623H1H0.25V14H1ZM2 10.623V11.373H2.02051V10.623V9.87305H2V10.623ZM2.02051 10.623L2.02062 11.373C3.36768 11.3728 4.45996 10.281 4.45996 8.93359L3.70996 8.93359L2.95996 8.93359C2.95996 9.45235 2.53943 9.87297 2.02039 9.87305L2.02051 10.623ZM3.70996 8.93359L4.45996 8.93345C4.45971 7.58644 3.36772 6.49434 2.02062 6.49414L2.02051 7.24414L2.02039 7.99414C2.53919 7.99422 2.95986 8.41488 2.95996 8.93373L3.70996 8.93359ZM2.02051 7.24414V6.49414H2V7.24414V7.99414H2.02051V7.24414ZM1 6.24414H1.75V4.89648H1H0.25V6.24414H1ZM2 3.89648V4.64648H4.2002V3.89648V3.14648H2V3.89648ZM5.2002 2.89648H5.9502V2.63379H5.2002H4.4502V2.89648H5.2002ZM5.2002 2.63379H5.9502C5.9502 2.14561 6.34578 1.7501 6.83316 1.75L6.83301 1L6.83286 0.25C5.51641 0.250262 4.4502 1.31806 4.4502 2.63379H5.2002ZM4.2002 3.89648V4.64648C5.16669 4.64648 5.9502 3.86298 5.9502 2.89648H5.2002H4.4502C4.4502 3.03456 4.33827 3.14648 4.2002 3.14648V3.89648ZM1 11.623H1.75C1.75 11.485 1.86193 11.373 2 11.373V10.623V9.87305C1.0335 9.87305 0.25 10.6565 0.25 11.623H1ZM1 4.89648H1.75C1.75 4.75841 1.86193 4.64648 2 4.64648V3.89648V3.14648C1.0335 3.14648 0.25 3.92999 0.25 4.89648H1ZM9.4668 15V14.25C9.32873 14.25 9.2168 14.1381 9.2168 14H8.4668H7.7168C7.7168 14.9665 8.5003 15.75 9.4668 15.75V15ZM2 7.24414V6.49414C1.86193 6.49414 1.75 6.38221 1.75 6.24414H1H0.25C0.25 7.21064 1.0335 7.99414 2 7.99414V7.24414ZM12.2002 14H11.4502C11.4502 14.1381 11.3383 14.25 11.2002 14.25V15V15.75C12.1667 15.75 12.9502 14.9665 12.9502 14H12.2002ZM2 15V14.25C1.86193 14.25 1.75 14.1381 1.75 14H1H0.25C0.25 14.9665 1.0335 15.75 2 15.75V15ZM12.2002 6.27539H11.4502C11.4502 7.24189 12.2337 8.02539 13.2002 8.02539V7.27539V6.52539C13.0621 6.52539 12.9502 6.41346 12.9502 6.27539H12.2002ZM13.2002 10.6553V9.90527C12.2337 9.90527 11.4502 10.6888 11.4502 11.6553H12.2002H12.9502C12.9502 11.5172 13.0621 11.4053 13.2002 11.4053V10.6553ZM5.2002 14H4.4502C4.4502 14.1381 4.33827 14.25 4.2002 14.25V15V15.75C5.16669 15.75 5.9502 14.9665 5.9502 14H5.2002ZM11.2002 3.89648V4.64648C11.3383 4.64648 11.4502 4.75841 11.4502 4.89648H12.2002H12.9502C12.9502 3.92999 12.1667 3.14648 11.2002 3.14648V3.89648ZM8.4668 2.89648H7.7168C7.7168 3.86298 8.5003 4.64648 9.4668 4.64648V3.89648V3.14648C9.32873 3.14648 9.2168 3.03456 9.2168 2.89648H8.4668Z" fill="#26C3F2"/>
</g>
<defs>
<clipPath id="clip0_2518_11364">
<rect width="16" height="16" fill="white"/>
</clipPath>
</defs>
</svg>
