<svg width="16" height="16" viewBox="0 0 16 16" fill="none" xmlns="http://www.w3.org/2000/svg">
<g clip-path="url(#clip0_2518_11388)">
<path d="M8.59961 0.0499878C9.56602 0.0500938 10.3496 0.833554 10.3496 1.79999V3.00018C10.3495 3.70661 9.92993 4.31265 9.32715 4.58905L13.9902 11.2502H14.2002C15.1665 11.2504 15.9502 12.0338 15.9502 13.0002V14.2004C15.95 15.1666 15.1664 15.9502 14.2002 15.9504H13C12.084 15.9504 11.3339 15.2461 11.2578 14.3498H4.74219C4.66612 15.2461 3.91591 15.9503 3 15.9504H1.7998C0.833438 15.9504 0.0500158 15.1667 0.0498047 14.2004V13.0002C0.0498052 12.0337 0.833306 11.2502 1.7998 11.2502H2.00977L6.6709 4.58905C6.06889 4.31237 5.64949 3.70609 5.64941 3.00018V1.79999C5.64941 0.833621 6.43309 0.0501988 7.39941 0.0499878H8.59961ZM1.7998 12.7502C1.66173 12.7502 1.54981 12.8621 1.5498 13.0002V14.2004C1.55002 14.3383 1.66186 14.4504 1.7998 14.4504H3C3.13785 14.4503 3.24979 14.3382 3.25 14.2004V13.0002C3.25 12.8622 3.13798 12.7503 3 12.7502H1.7998ZM13 12.7502C12.8619 12.7502 12.75 12.8621 12.75 13.0002V14.2004C12.7502 14.3383 12.8621 14.4504 13 14.4504H14.2002C14.338 14.4502 14.45 14.3381 14.4502 14.2004V13.0002C14.4502 12.8622 14.3381 12.7504 14.2002 12.7502H13ZM3.72656 11.4094C4.28678 11.6657 4.68754 12.2076 4.74219 12.8498H11.2578C11.3124 12.2081 11.712 11.666 12.2715 11.4094L7.99902 5.30682L3.72656 11.4094ZM7.39941 1.54999C7.26152 1.5502 7.14941 1.66205 7.14941 1.79999V3.00018C7.14952 3.13803 7.26159 3.24997 7.39941 3.25018H8.59961C8.73752 3.25008 8.8495 3.1381 8.84961 3.00018V1.79999C8.84961 1.66198 8.73759 1.55009 8.59961 1.54999H7.39941Z" fill="#26C3F2"/>
</g>
<defs>
<clipPath id="clip0_2518_11388">
<rect width="16" height="16" fill="white"/>
</clipPath>
</defs>
</svg>
