<svg width="16" height="16" viewBox="0 0 16 16" fill="none" xmlns="http://www.w3.org/2000/svg">
<g clip-path="url(#clip0_2518_11380)">
<path d="M7.72671 11.501C8.01918 11.7939 8.01946 12.2688 7.72671 12.5615L4.50405 15.7842C4.36353 15.9247 4.17247 16.0038 3.97378 16.0039C3.77507 16.0039 3.58412 15.9246 3.44351 15.7842L0.219874 12.5615L0.168116 12.5039C-0.0716634 12.2095 -0.0542085 11.7754 0.219874 11.501C0.494487 11.2264 0.929199 11.2089 1.22378 11.4492L1.28042 11.501L3.22378 13.4434L3.22378 3.97363L3.22769 3.89648C3.26619 3.51839 3.58552 3.22363 3.97378 3.22363C4.36182 3.2239 4.68142 3.51852 4.71987 3.89648L4.72378 3.97363L4.72378 13.4434L6.66616 11.501C6.95906 11.2081 7.43382 11.2081 7.72671 11.501ZM15.7843 3.44238C16.0772 3.73522 16.077 4.21002 15.7843 4.50293C15.4914 4.79582 15.0167 4.79582 14.7238 4.50293L12.7814 2.56055L12.7814 12.0303L12.7775 12.1074C12.739 12.4854 12.4195 12.7801 12.0314 12.7803C11.6431 12.7803 11.3238 12.4855 11.2853 12.1074L11.2814 12.0303L11.2814 2.56055L9.33804 4.50293L9.2814 4.55469C8.98682 4.79502 8.5521 4.77754 8.27749 4.50293C8.00333 4.22846 7.98593 3.79446 8.22573 3.5L8.27749 3.44238L11.5011 0.219726C11.6418 0.0791882 11.8326 -1.82335e-07 12.0314 -1.73644e-07C12.2302 9.63776e-05 12.4211 0.0791601 12.5617 0.219726L15.7843 3.44238Z" fill="#26C3F2"/>
</g>
<defs>
<clipPath id="clip0_2518_11380">
<rect width="16.0038" height="16.0036" fill="white"/>
</clipPath>
</defs>
</svg>
