<svg width="50" height="51" viewBox="0 0 50 51" fill="none" xmlns="http://www.w3.org/2000/svg">
<g opacity="0.7">
<path fill-rule="evenodd" clip-rule="evenodd" d="M24.1667 18.8799C20.899 18.8799 18.25 21.5289 18.25 24.7966C18.25 28.0642 20.899 30.7132 24.1667 30.7132C27.4344 30.7132 30.0833 28.0642 30.0833 24.7966C30.0833 21.5289 27.4344 18.8799 24.1667 18.8799ZM16.75 24.7966C16.75 20.7004 20.0706 17.3799 24.1667 17.3799C28.2628 17.3799 31.5833 20.7004 31.5833 24.7966C31.5833 26.5745 30.9577 28.2063 29.9147 29.4839L32.197 31.7662C32.4899 32.0591 32.4899 32.534 32.197 32.8269C31.9041 33.1198 31.4292 33.1198 31.1363 32.8269L28.854 30.5445C27.5764 31.5876 25.9446 32.2132 24.1667 32.2132C20.0706 32.2132 16.75 28.8927 16.75 24.7966ZM24.5397 19.8313C24.3053 19.6985 24.0183 19.6986 23.784 19.8317L20.0841 21.9335C19.8446 22.0696 19.6966 22.3238 19.6966 22.5993V26.9158C19.6966 27.1869 19.84 27.4378 20.0736 27.5755L23.7735 29.7555C24.0131 29.8966 24.3105 29.8968 24.5502 29.7559L28.2588 27.5759C28.4927 27.4383 28.6364 27.1872 28.6364 26.9158V22.5993C28.6364 22.3235 28.4881 22.0691 28.2483 21.9332L24.5397 19.8313ZM22.0027 22.6047L24.1626 21.3777L26.3276 22.6047L24.1626 23.852L22.0027 22.6047ZM24.9278 25.1784L27.1051 23.924V26.4778L24.9278 27.7576V25.1784ZM23.3966 25.1778V27.756L21.2279 26.4783V23.9255L23.3966 25.1778Z" fill="#26C3F2"/>
<path d="M5 2.62988H45V0.629883H5V2.62988ZM48 5.62988V45.6299H50V5.62988H48ZM45 48.6299H5V50.6299H45V48.6299ZM2 45.6299V5.62988H0V45.6299H2ZM5 48.6299C3.34315 48.6299 2 47.2867 2 45.6299H0C0 48.3913 2.23858 50.6299 5 50.6299V48.6299ZM48 45.6299C48 47.2867 46.6569 48.6299 45 48.6299V50.6299C47.7614 50.6299 50 48.3913 50 45.6299H48ZM45 2.62988C46.6569 2.62988 48 3.97303 48 5.62988H50C50 2.86846 47.7614 0.629883 45 0.629883V2.62988ZM5 0.629883C2.23858 0.629883 0 2.86846 0 5.62988H2C2 3.97303 3.34315 2.62988 5 2.62988V0.629883Z" fill="#26C3F2"/>
</g>
</svg>
