<svg width="297" height="22" viewBox="0 0 297 22" fill="none" xmlns="http://www.w3.org/2000/svg">
<path d="M17.9992 3.7862V0.307998H0.87V3.7862H7.415V22H11.4168V3.7862H17.9992ZM40.3501 22V0.307998H36.5353V9.3214H27.7837V0.307998H23.9689V22H27.7837V12.9118H36.5353V22H40.3501ZM61.5056 22V18.5218H51.1832V12.9492H59.1868V9.3962H51.1832V3.7862H61.5056V0.307998H47.4432V22H61.5056ZM99.083 5.2074V0.307998H95.2308V4.983C95.2308 5.6562 95.0812 5.918 94.5202 6.4042L91.2664 9.2092L87.1524 6.2546C86.6662 5.8806 86.6288 5.731 86.6288 4.983V0.307998H82.814V5.0952C82.814 7.04 83.4498 7.975 84.5718 8.7604L87.6012 11.0044L84.497 13.585C83.0758 14.7818 82.814 15.7542 82.814 17.6242V22H86.6288V17.7738C86.6288 16.577 86.7036 16.4274 87.302 15.9412L90.6306 13.1362L94.5202 15.9412C95.156 16.39 95.1934 16.5022 95.1934 17.6242V22H99.0456V17.325C99.0456 15.455 98.6342 14.52 97.3252 13.5476L94.2958 11.341L97.2504 8.8726C98.3724 7.9376 99.083 7.1148 99.083 5.2074ZM122.41 6.105V0.307998H118.633V5.9554C118.633 6.7408 118.633 6.853 118.147 7.3018L114.257 11.2288L110.405 7.3018C109.919 6.853 109.919 6.7408 109.919 5.9554V0.307998H106.179V6.105C106.179 7.6384 106.478 8.4986 107.6 9.5832L112.387 14.333V22H116.202V14.333L120.989 9.5832C122.111 8.4986 122.41 7.6384 122.41 6.105ZM147.384 22V0.307998H144.28C144.28 0.307998 138.707 6.7782 138.558 7.227L132.611 0.307998H129.507V22H133.322V6.5164L137.286 11.0792H139.605L143.569 6.5164V22H147.384ZM182.514 3.7862V0.307998H168.676V22H172.416V12.9492H180.195V9.3962H172.416V3.7862H182.514ZM205.319 8.7978C205.319 7.2644 205.058 6.292 203.898 5.2074L198.737 0.307998H195.446L190.285 5.2074C189.125 6.292 188.863 7.2644 188.863 8.7978V22H192.641V15.1558H201.542V22H205.319V8.7978ZM201.542 11.8646H192.641V8.9848C192.641 8.1994 192.678 8.0124 193.127 7.5636C193.127 7.5636 196.867 3.8984 197.054 3.5992L201.056 7.5636C201.505 8.0124 201.542 8.1994 201.542 8.9848V11.8646ZM228.792 16.951V0.307998H224.902V17.138C224.902 17.886 224.267 18.5218 223.593 18.5218H217.609C216.936 18.5218 216.3 17.886 216.3 17.138V0.307998H212.411V16.951C212.411 19.8682 214.655 22 217.722 22H223.481C226.548 22 228.792 19.8682 228.792 16.951ZM252.266 16.951V15.4176H248.452V17.1006C248.452 17.8486 247.816 18.4844 247.143 18.4844H241.009C240.336 18.4844 239.7 17.8486 239.7 17.1006V5.2448C239.7 4.4968 240.336 3.861 241.009 3.861H247.143C247.816 3.861 248.452 4.4968 248.452 5.2448V6.8904H252.266V5.5814C252.266 2.7016 250.135 0.307998 247.03 0.307998H241.196C238.129 0.307998 235.885 2.4398 235.885 5.357V16.951C235.885 19.8682 238.129 22 241.196 22H246.956C250.022 22 252.266 19.8682 252.266 16.951ZM273.422 22V18.5218H263.1V12.9492H271.103V9.3962H263.1V3.7862H273.422V0.307998H259.36V22H273.422ZM296.54 3.7862V0.307998H279.411V3.7862H285.956V22H289.958V3.7862H296.54Z" fill="#26C3F2"/>
</svg>