<svg width="1649" height="1960" viewBox="0 0 1649 1960" fill="none" xmlns="http://www.w3.org/2000/svg">
<path d="M542.871 497.5C543.705 500 564.955 552.083 620.371 558.333L621.621 558.75C622.455 558.75 639.121 563.75 655.371 574.583C657.871 576.25 659.955 579.167 660.371 582.5C660.788 585.833 659.538 587.5 658.288 588.75C671.205 582.5 684.121 578.333 696.621 575.833V555C696.621 548.333 702.038 542.917 708.705 542.917H710.371C718.288 542.917 724.955 549.583 724.955 557.5V572.083C734.121 571.667 742.871 571.667 751.205 572.5C751.621 539.583 728.288 534.167 728.288 534.167C745.788 530 755.371 536.25 755.371 536.25C771.621 547.083 772.455 566.25 771.621 575C787.455 577.5 799.955 581.25 807.038 583.75C809.538 580.833 814.538 576.25 821.621 570.833C817.871 560.833 799.538 524.583 719.955 517.083H714.538L691.621 522.917C689.121 523.333 687.038 524.583 684.538 525.833L675.788 530.833C668.705 536.667 662.038 542.5 654.955 548.333C653.288 550 650.371 547.083 652.038 545.417C655.788 540.833 659.538 536.667 663.705 532.5L662.038 521.25C661.205 517.083 659.955 513.333 657.455 510.417L642.038 487.917C639.538 484.167 639.538 479.167 642.455 475.833L643.705 474.167C647.038 470 651.621 467.5 656.621 466.667L705.371 457.917L692.871 447.083C689.955 444.583 690.371 440 693.705 438.333L747.038 407.917C750.788 405.833 754.538 404.583 758.705 404.583L779.955 404.167L843.705 345L859.955 339.167C869.121 331.25 878.705 323.333 888.288 315.417C889.955 313.75 892.871 316.667 891.205 318.333C874.955 337.5 857.871 355.833 840.371 374.167L839.538 378.75L806.205 421.667H794.121C778.705 436.667 763.288 451.667 747.871 466.667C742.455 471.667 736.621 477.083 731.205 482.083L729.955 506.667C803.288 516.25 825.788 550 832.455 565C843.288 558.75 857.455 552.083 875.371 547.083L876.621 539.583C877.871 532.083 881.205 525.417 886.621 520.833C887.455 519.583 889.121 517.917 889.955 516.667C892.871 510.833 894.955 504.167 896.621 497.5C899.955 481.667 899.955 465.417 898.288 449.167C897.455 440.833 896.205 432.5 894.538 424.583C894.121 422.083 897.871 420.833 898.705 423.333C902.455 433.75 905.371 444.583 907.455 455.833L936.205 459.583C948.705 439.583 956.621 421.667 960.788 412.5C944.955 401.667 930.371 386.25 920.788 363.75C910.371 374.167 902.038 386.667 898.705 401.25C898.288 403.75 894.538 402.917 894.538 400.417C895.371 387.917 899.121 375.833 905.371 365C908.705 359.167 912.455 353.75 916.621 348.75V348.333L918.705 346.25C922.038 342.5 925.788 338.75 929.955 335.417C931.205 334.583 932.038 334.167 933.288 333.75C939.955 328.75 947.038 324.167 954.538 320.417L954.955 320C955.371 320 975.788 310.833 994.955 300C960.371 294.167 933.705 280 916.205 257.083C906.621 245 900.788 231.667 897.455 218.75C888.705 230.833 846.205 288.333 812.038 310.417C793.288 324.167 770.371 337.917 748.288 340H736.205C736.205 345 734.121 350.833 733.705 355L731.621 361.667C731.205 363.75 729.955 366.25 729.121 368.333C726.621 374.583 723.288 381.25 718.705 386.667C712.038 396.25 702.455 403.75 692.455 409.167C684.121 413.333 675.788 415.833 666.621 417.083C665.371 417.083 664.538 416.25 664.121 415.417C664.121 414.167 664.955 413.333 665.788 412.917C687.871 407.917 707.038 391.25 714.538 370C714.955 368.333 715.788 365.417 716.621 362.917C701.205 350.417 691.205 330.833 691.205 309.583C691.205 280.417 709.538 255.417 735.371 245.417C701.621 249.583 675.788 278.333 675.788 312.917C675.788 327.917 680.788 342.5 689.955 354.583C692.038 357.5 691.621 361.25 688.705 363.333C687.455 364.167 686.205 364.583 684.955 364.583C682.871 364.583 681.205 363.75 679.955 362.083C669.121 347.917 663.288 330.833 663.288 312.917C663.288 300.417 666.205 288.333 671.621 277.917C652.871 285 641.621 295.833 636.205 302.917C641.205 310 644.955 317.5 647.038 325.417C650.788 337.083 651.621 349.167 649.955 360.833C648.288 372.5 644.121 383.75 637.871 393.333C636.621 395.417 633.288 393.75 634.121 391.25C643.288 366.667 639.538 340.833 626.621 320C605.788 300.417 536.621 310 536.621 310C403.705 319.583 344.121 273.75 344.121 273.75C337.871 268.75 332.455 267.083 329.121 266.667C329.538 278.75 329.955 296.667 327.038 316.667C327.038 317.5 326.621 318.333 326.621 319.583C326.205 322.917 328.288 326.667 331.621 327.5C411.621 355.417 494.538 377.083 578.288 390.417C590.371 392.083 603.288 394.583 615.371 393.75C616.621 393.75 617.455 394.583 617.455 395.833C617.455 397.5 614.538 398.333 609.955 399.167C607.871 404.583 603.705 409.167 598.288 411.25L576.621 420.417C564.538 425.833 550.788 426.667 537.871 423.333L502.871 414.167C495.371 412.083 488.288 408.333 482.871 403.333L456.205 378.75C434.121 374.167 412.038 368.75 389.955 362.917C380.788 360.417 371.205 357.917 362.038 355L352.871 356.667C349.538 357.083 346.621 358.75 343.705 361.25L307.871 393.333C304.955 395.833 301.621 397.5 297.871 397.917C294.538 402.5 291.205 406.667 287.455 410.833C286.205 412.083 287.038 414.167 288.705 414.583C299.121 415.833 313.705 417.083 331.621 415.833C337.038 415.417 466.621 405.833 508.288 456.25C511.621 459.583 530.788 480.417 540.371 495.833C541.205 495 542.038 496.25 542.871 497.5ZM669.121 384.583C668.705 385 668.705 385 669.121 384.583V384.583ZM300.788 362.083L299.538 348.333C299.121 343.333 296.205 338.75 292.038 336.25L263.705 319.167C261.205 317.5 259.955 314.583 260.371 311.667L260.788 310C261.205 307.5 263.288 305.833 265.371 305.833L282.038 306.25C287.871 306.25 292.455 302.083 292.871 296.25L294.538 277.5C294.955 274.167 296.621 271.25 299.538 269.583L315.371 259.583C315.371 259.167 315.371 259.167 315.371 258.75L313.288 255C312.871 254.583 287.455 207.5 234.538 178.333C224.538 175.833 214.538 175 206.621 175C237.455 194.167 264.538 226.25 284.538 251.667C286.205 253.75 283.288 256.25 281.205 254.167L269.121 241.25C249.121 220.833 226.621 200.833 201.205 187.5C196.621 185 191.621 182.917 186.621 180.833C183.288 179.583 179.538 180.417 176.621 182.917L165.371 192.917C160.371 197.5 156.621 203.75 154.538 210.417L142.871 253.75L158.705 273.333C159.955 275 159.955 277.5 158.705 278.75L158.288 279.583C155.788 282.083 152.038 282.5 149.121 280.833L132.038 270.833L91.6212 317.5C84.5379 325.833 83.7046 338.333 89.9546 347.083L115.371 383.75C119.121 389.167 125.371 392.917 132.038 393.333L267.871 404.583C270.788 405 274.121 403.75 276.205 401.667C285.788 391.667 292.871 380 298.705 367.917C300.371 367.083 300.788 364.583 300.788 362.083ZM189.538 353.333L186.205 359.167C184.538 362.083 182.038 363.75 179.121 364.583L168.705 367.083C165.788 367.917 162.455 367.083 159.955 365L154.538 360C151.621 357.5 150.788 353.333 152.871 350L155.788 344.583C157.455 341.667 160.371 340 163.705 340.417L172.871 340.833C174.121 340.833 175.371 341.25 176.621 341.667L187.038 345C189.538 346.667 191.205 350.417 189.538 353.333ZM239.538 314.583L220.788 328.75C212.871 334.583 202.871 336.25 193.705 333.333L169.121 325.417C163.705 323.75 160.788 318.333 162.038 312.917L167.455 289.167C168.288 285 172.455 282.917 176.205 284.167L237.871 303.75C242.455 305.417 243.705 311.667 239.538 314.583ZM661.621 717.917C664.121 715 664.955 711.25 664.955 707.5L663.705 657.917L672.871 652.917L709.955 653.75L706.205 661.25V724.167C685.371 724.583 667.455 726.25 652.871 729.167L661.621 717.917ZM807.455 643.333L694.538 640.833V630.417C694.538 617.083 701.205 604.583 712.038 597.083L731.205 584.167C762.038 583.75 788.288 590.417 800.788 594.583L805.788 598.333C807.455 599.583 809.121 600.833 810.788 602.083V645L807.455 643.333ZM852.455 920.417C884.538 952.083 895.371 997.917 898.288 1014.17C893.288 1015.83 888.705 1017.5 884.121 1019.17C878.288 960 852.455 920.417 852.455 920.417ZM925.371 249.167C942.871 271.667 970.788 285 1008.29 289.167L1013.29 287.917L1017.87 286.667C1038.7 285 1056.62 278.333 1074.54 267.5L1075.37 267.083C1096.2 255 1112.87 237.5 1124.54 216.667L1132.04 203.333C1142.04 185.417 1146.2 165.417 1144.95 145L1144.12 134.167C1141.62 103.333 1122.87 75.4167 1094.95 61.6667L1078.29 53.75C1059.95 44.5834 1039.54 40.8334 1019.12 42.0834C1008.29 53.3334 989.955 79.1667 981.621 131.667C1009.95 162.083 1075.79 180 1112.45 189.583C1114.95 190 1114.54 194.167 1111.62 193.75C1105.79 192.917 1099.95 191.667 1094.12 190.833L1063.7 225.833C1059.12 231.25 1051.2 232.917 1044.54 230L1014.95 215.833C1009.12 212.917 1005.37 207.083 1004.95 200.833L1003.29 163.75C999.955 162.5 997.038 160.833 993.705 159.167C989.955 157.5 979.121 151.25 970.788 143.75C955.788 144.167 926.621 152.083 917.871 201.25C917.871 201.25 914.538 215.417 915.371 233.333C918.288 238.75 921.205 244.167 925.371 249.167ZM983.705 240L996.205 229.167C999.955 226.25 1004.95 225.417 1009.12 227.5L1036.2 240C1040.37 242.083 1041.2 247.5 1037.87 250.417L1032.87 254.583C1023.7 262.5 1010.37 264.167 999.538 258.75L984.955 251.667C980.788 249.167 979.955 243.333 983.705 240ZM545.371 661.25C557.871 661.25 569.955 657.917 580.788 652.083C574.538 699.583 533.705 736.667 484.121 736.667C453.288 736.667 424.538 722.5 405.788 697.5C405.371 697.083 405.371 696.667 404.955 696.25L407.871 669.583C409.121 658.333 414.121 647.5 422.455 639.583L442.455 620.417C444.955 617.917 447.871 616.667 451.205 615.833C455.788 636.25 468.288 653.75 485.371 664.167C480.371 673.75 466.621 695.417 441.621 702.083C441.621 702.083 461.621 725.833 513.288 713.75C513.288 713.75 509.538 693.333 518.705 674.583C519.538 674.583 520.788 674.583 521.621 674.583C524.955 674.583 528.288 674.167 531.205 673.75C534.121 673.333 536.621 670.417 536.205 667.5C535.788 664.583 532.871 662.083 529.955 662.5C527.455 662.917 524.538 662.917 521.621 662.917C487.871 662.917 459.955 633.333 459.955 597.083C459.955 577.083 468.705 558.333 483.288 545.833C475.788 557.5 472.038 571.667 472.038 585.833C472.455 627.5 505.371 661.25 545.371 661.25ZM1101.62 584.167C959.955 532.5 896.621 540.833 893.705 541.25C893.288 541.25 892.871 541.667 892.038 541.667V540.417C892.455 537.083 894.121 534.167 896.621 532.083C912.038 518.333 925.371 502.917 936.205 487.083C947.871 487.083 954.955 490.833 954.955 490.833C984.538 512.917 1029.95 530 1029.95 530C1063.7 545 1124.95 547.083 1144.12 547.083C1137.04 559.583 1122.45 578.333 1101.62 584.167ZM952.038 463.333C962.455 445.417 969.955 430 974.121 420.417C999.538 433.75 1023.29 436.25 1024.95 436.667C1116.62 445.417 1137.04 450.417 1140.37 451.25C1144.95 454.167 1172.45 476.667 1151.2 532.917C1133.7 517.083 1096.62 507.917 1096.62 507.917C1022.87 495.417 969.538 471.667 952.038 463.333ZM1165.79 542.917C1164.95 544.583 1149.95 579.167 1119.12 595L1128.29 601.25C1158.7 622.083 1197.04 630 1233.29 622.917L1249.95 619.583C1271.2 615.417 1289.95 602.083 1300.79 583.75C1313.7 562.083 1317.87 536.25 1312.87 511.667L1312.04 507.083C1307.45 485.833 1295.37 467.5 1277.45 455.417L1267.87 448.75C1252.04 437.917 1232.87 432.917 1214.12 434.167L1185.37 435.833C1175.79 436.25 1166.62 439.167 1158.29 444.167C1170.37 457.083 1188.29 487.5 1165.79 542.917ZM1189.54 526.25C1232.45 540.417 1270.37 534.583 1270.37 534.583C1292.87 525.833 1297.04 530.417 1297.04 530.417C1297.04 542.917 1277.87 553.75 1277.87 553.75C1247.04 578.333 1179.54 570.417 1179.54 570.417C1182.45 581.25 1203.29 591.667 1203.29 591.667C1199.54 597.917 1192.87 601.25 1185.79 600.417C1164.95 597.917 1145.79 587.5 1145.79 587.5C1166.2 572.083 1176.2 544.583 1179.95 531.25C1181.2 527.5 1185.37 525 1189.54 526.25ZM537.038 1741.25C535.788 1745 530.788 1746.25 527.871 1743.33L506.621 1720.42L484.121 1732.5C475.788 1737.08 474.121 1748.33 480.788 1755.42L499.538 1774.17C502.871 1777.5 500.371 1782.92 495.788 1782.92L419.538 1778.75C295.788 1808.75 232.455 1738.75 232.455 1738.75L155.788 1757.92C151.205 1759.17 147.038 1754.17 149.121 1750L179.955 1686.25C181.621 1682.5 186.205 1681.25 189.538 1682.92L223.705 1699.17C187.455 1662.5 164.955 1612.08 164.955 1555.83C164.955 1494.17 192.038 1437.08 239.121 1398.33L239.955 1397.92C240.788 1397.5 304.538 1356.25 402.455 1307.08L370.788 1287.08C361.621 1281.25 350.371 1280 339.955 1282.92L173.288 1335.83L223.288 1370.83C228.288 1374.17 227.871 1381.25 222.871 1384.58L205.371 1395C198.705 1398.75 189.955 1397.08 185.371 1390.83L150.371 1343.75L134.538 1348.75C130.788 1350 127.871 1352.5 126.205 1355.83L47.4546 1528.33C41.2046 1542.08 40.7879 1558.33 47.0379 1572.08L125.371 1751.25C128.705 1759.17 134.538 1765.83 142.038 1770L292.455 1858.33C299.955 1862.92 309.538 1863.75 317.871 1860.83L519.538 1793.33C524.121 1791.67 527.871 1788.75 530.788 1784.58C541.205 1769.17 566.621 1730 583.288 1675.42L556.621 1687.5L537.038 1741.25ZM133.705 1712.92L87.8712 1607.92C86.2046 1603.75 91.6212 1600.42 94.5379 1603.75L149.955 1672.92C154.538 1678.75 155.371 1687.08 152.038 1693.75C149.121 1699.58 145.371 1707.08 142.455 1712.92C140.788 1717.08 135.371 1717.08 133.705 1712.92ZM1029.12 1550.83C1022.45 1515.83 989.538 1350.42 949.955 1285C949.955 1285 930.371 1257.92 897.455 1257.92C897.455 1257.92 868.288 1258.75 839.955 1276.67C839.955 1276.67 766.205 1322.08 679.955 1354.17C639.538 1369.17 594.538 1349.17 578.288 1309.17L541.205 1218.33C539.121 1213.33 532.455 1213.75 530.371 1218.33L502.455 1292.5C489.538 1326.67 465.371 1355 434.121 1373.33L325.371 1435C278.705 1461.67 249.538 1511.25 249.121 1565C249.121 1579.58 250.788 1594.17 254.538 1608.33C258.705 1623.33 265.371 1642.5 277.455 1660L252.455 1650.42C252.455 1650.42 263.705 1715 338.288 1723.75C338.288 1723.75 387.455 1730.42 460.788 1711.25L439.955 1720.83C415.371 1732.92 389.121 1739.17 361.621 1739.17C262.038 1739.17 180.788 1656.25 180.788 1554.17C180.788 1497.92 205.371 1445.42 248.288 1410C254.121 1406.25 322.871 1362.5 425.788 1312.08C429.538 1310.42 433.288 1307.92 436.621 1305.83L442.038 1302.08C531.621 1247.92 534.538 1132.5 534.538 1127.5V1127.08V1126.67C534.121 1123.75 534.121 1120.83 533.705 1117.92C544.955 1152.92 559.538 1182.5 559.538 1182.5C590.788 1250.42 665.788 1230.83 665.788 1230.83C689.121 1226.67 783.288 1194.17 783.288 1194.17C839.538 1171.67 892.871 1188.33 892.871 1188.33C945.788 1210.83 975.371 1266.25 985.371 1287.5C986.205 1289.58 989.121 1288.75 989.121 1286.67C985.371 1193.33 909.121 1149.58 909.121 1149.58C839.121 1112.5 773.288 1138.75 773.288 1138.75C758.288 1144.17 734.121 1154.58 714.538 1163.75L714.955 1152.92C718.288 1149.58 720.788 1144.58 723.705 1142.08L728.288 1136.25C731.205 1132.5 733.705 1130.42 738.288 1127.92C744.538 1124.17 751.621 1119.58 758.288 1116.25C813.288 1085.83 872.038 1062.92 931.621 1042.92C932.871 1042.5 933.288 1041.67 932.871 1040.42C932.455 1039.17 931.621 1038.75 930.371 1038.75C869.121 1054.58 808.288 1075 751.205 1102.5C744.121 1105.83 736.621 1110 729.955 1113.75C725.371 1115.83 720.371 1120 716.621 1123.75L717.038 1117.08C717.455 1111.67 720.371 1107.08 724.955 1104.58C750.371 1090.42 824.121 1052.92 963.288 1010.42C1036.62 992.083 1118.7 980.417 1196.2 1010L1207.45 1014.17C1270.37 1038.33 1325.37 1079.58 1365.79 1132.92L1376.62 1147.5C1427.04 1214.17 1458.7 1293.33 1467.87 1376.25L1486.62 1541.25C1482.45 1539.58 1476.62 1537.92 1469.95 1536.25L1442.04 1358.75C1442.04 1358.75 1434.54 1226.67 1299.54 1102.08C1299.54 1102.08 1217.45 1025.42 1099.95 1011.67C1099.95 1011.67 1083.29 1007.08 1037.87 1010.83L1006.2 1021.25C989.538 1026.67 979.955 1044.58 984.955 1061.67L1007.04 1138.33C990.371 1105.83 969.955 1076.25 944.121 1051.67C943.288 1051.25 942.455 1050.83 941.621 1051.67C940.788 1052.5 940.371 1053.75 941.205 1054.58C965.371 1087.08 983.288 1124.17 999.121 1161.25C1014.54 1198.75 1028.7 1237.08 1039.54 1276.25C1041.62 1284.58 1045.37 1297.08 1046.62 1305.42C1059.54 1376.67 1068.29 1448.75 1073.29 1520.83L1074.12 1522.5L1081.2 1535.42C1063.7 1540 1045.37 1545 1029.12 1550.83ZM1191.2 1521.25C1194.12 1516.25 1194.95 1509.17 1191.2 1499.17C1191.2 1499.17 1147.45 1356.25 1168.29 1192.5C1169.95 1178.33 1181.2 1167.5 1195.37 1165.83L1214.95 1163.33C1223.7 1162.5 1232.45 1163.75 1240.79 1167.08C1268.7 1179.58 1332.04 1219.17 1370.79 1330L1412.87 1489.58C1413.7 1492.92 1415.37 1495.83 1417.45 1498.33L1421.62 1503.33C1424.54 1507.08 1426.62 1511.67 1427.04 1516.67L1428.29 1528.33C1387.04 1522.08 1324.54 1517.08 1231.62 1518.75C1229.12 1519.17 1213.7 1519.58 1191.2 1521.25ZM1647.45 1743.75L1640.79 1684.58C1635.37 1636.67 1611.2 1572.5 1527.87 1532.08L1509.54 1372.5C1499.54 1282.08 1464.95 1195.42 1409.95 1122.92L1399.12 1108.33C1353.7 1048.33 1292.45 1002.5 1222.45 975.833L1211.2 971.667C1174.95 957.917 1134.95 950.833 1092.45 950.833C1057.45 950.833 1020.79 955.417 977.871 964.583L977.455 962.917L958.705 968.75C953.288 951.25 944.955 930.417 931.205 908.75C932.038 904.583 932.455 900.417 932.455 896.25V837.917L932.038 834.167V832.917C930.371 824.167 924.955 811.25 897.455 780.833C899.538 775 900.371 769.167 900.371 762.917V707.083C900.371 694.167 895.788 681.667 887.871 671.667L876.621 657.5V629.167C876.621 616.25 872.038 604.167 864.121 594.167C873.288 589.583 885.371 585.417 900.371 582.5C901.621 582.5 904.121 582.083 908.288 582.083C928.288 582.083 985.788 586.25 1086.2 622.5L1104.95 635.417C1134.54 655.833 1170.79 667.083 1207.04 667.083C1218.7 667.083 1230.37 665.833 1241.62 663.75L1258.29 660.417C1291.2 653.75 1319.95 633.75 1337.04 605C1355.37 574.167 1361.62 537.917 1354.12 502.917L1353.29 498.333C1346.62 466.667 1327.87 439.167 1301.2 420.833L1291.62 414.167C1270.79 400 1244.95 392.083 1219.54 392.083C1217.04 392.083 1214.54 392.083 1211.62 392.5L1182.87 394.167C1167.04 395 1151.62 399.583 1137.87 407.5C1117.04 403.75 1080.79 399.583 1029.95 394.583C1029.54 394.583 1008.7 392.083 988.288 379.583C987.871 379.583 987.455 379.167 987.455 379.167C979.121 373.75 972.038 367.5 966.621 360.417C968.705 359.167 970.788 357.917 972.871 357.083C980.371 353.75 1009.54 340.417 1030.79 326.25C1053.7 322.917 1075.79 315 1095.79 303.333L1096.62 302.917C1123.7 287.083 1146.2 264.167 1161.2 236.667L1168.7 223.333C1182.45 198.333 1188.7 170 1186.62 141.667L1185.79 130.833C1182.45 85 1154.54 44.1667 1113.29 24.1667L1096.62 16.25C1074.95 5.83337 1050.79 0 1026.2 0C1012.87 0 999.538 1.66665 986.621 4.99999C959.955 11.6667 936.205 26.25 916.621 47.5L906.621 58.3333C885.371 81.6667 871.621 110.417 867.038 141.25C857.038 148.75 841.621 165 816.205 203.75C814.538 205.833 809.538 212.083 802.455 219.583C776.621 201.25 744.538 191.25 710.371 191.25C674.121 191.25 639.538 202.917 612.455 224.167L607.455 227.917C604.955 230 602.871 232.083 600.371 234.167C575.371 254.583 540.788 255.833 533.705 255.833C533.288 255.833 532.871 255.833 532.455 255.833C427.038 250 382.455 230.417 371.621 224.583C361.205 219.167 349.538 216.25 337.871 216.25H337.455C322.871 195.833 295.788 164.583 253.705 141.667C229.955 128.333 202.455 121.667 174.121 121.667C162.455 121.667 150.371 122.917 138.705 125.417L133.705 126.25C98.2879 133.75 67.8712 156.25 50.3712 188.333C36.6212 213.333 19.9545 250.833 17.8712 287.917C17.0379 297.5 12.0379 388.333 95.7879 439.167C107.038 445.833 119.538 450.417 132.455 451.667C144.121 452.917 164.121 454.583 191.621 454.583C214.955 454.583 239.955 453.333 266.205 451.25C275.371 453.333 292.455 456.667 315.788 456.667C321.621 456.667 327.871 456.667 334.121 456.25C334.121 456.25 344.538 455.417 360.788 455.417C418.288 455.417 462.455 465.417 475.371 481.667L476.621 483.333C480.371 487.083 485.371 492.917 490.371 498.75L488.288 500.417C486.621 500.417 484.955 500.417 483.705 500.417C444.121 500.417 406.205 517.083 379.955 546.25C363.705 564.167 354.538 587.083 354.121 611.667L352.871 662.083C352.455 684.167 359.121 705.833 371.621 722.917C398.288 758.333 438.705 778.75 483.288 778.75C517.038 778.75 548.288 766.25 572.455 745.833V753.333C572.455 757.5 572.871 762.083 574.121 766.25L562.038 773.333C544.121 783.75 533.288 803.333 533.288 823.75V905.417C514.955 931.25 479.538 999.167 492.871 1129.17C492.455 1136.25 490.371 1160.83 480.371 1189.17C467.455 1225.42 446.621 1251.67 419.121 1267.92L392.455 1251.25C379.955 1243.33 365.371 1239.17 350.371 1239.17C342.455 1239.17 334.121 1240.42 326.621 1242.92L121.205 1307.92C106.621 1312.5 94.1212 1323.33 87.8712 1337.5L8.70454 1509.58C-2.54546 1534.17 -2.96211 1562.5 7.87122 1587.5L86.2046 1766.67C93.2879 1782.92 104.955 1795.83 119.955 1804.58L270.371 1892.92C281.621 1899.58 294.121 1902.92 307.038 1902.92C314.955 1902.92 322.455 1901.67 329.955 1899.17L531.621 1831.67C544.955 1827.08 556.621 1818.33 564.538 1806.67C575.788 1789.58 604.955 1745.42 623.288 1683.33L714.955 1641.25L736.205 1630.83C808.705 1597.5 895.371 1557.08 956.205 1527.5L962.038 1560.42L939.955 1578.33C892.455 1616.67 865.371 1673.75 865.371 1735V1772.08C865.371 1829.58 894.538 1882.5 943.288 1912.92C978.288 1935 1018.29 1948.75 1059.54 1952.5C1109.95 1957.5 1161.2 1960 1211.62 1960C1341.62 1960 1456.62 1943.33 1553.29 1910.42C1559.12 1908.33 1580.37 1900.83 1597.87 1887.92C1605.37 1882.5 1612.04 1876.25 1617.45 1869.17L1623.7 1860.83C1655.79 1814.58 1648.7 1753.33 1647.45 1743.75ZM1583.7 1867.5C1568.7 1878.75 1549.54 1885.42 1545.79 1886.67C1434.95 1924.17 1313.29 1934.58 1212.04 1934.58C1152.87 1934.58 1101.2 1930.83 1062.45 1927.08C1025.37 1923.33 988.705 1910.83 957.038 1891.25C915.371 1865 890.788 1820.42 890.788 1771.25V1734.17C890.788 1680.83 914.538 1630.83 956.205 1597.08L989.538 1570L974.955 1490C909.955 1522.92 790.788 1577.92 704.121 1617.92V1618.33L602.038 1665.42C584.955 1730 554.955 1775.42 543.705 1792.92C539.121 1800 532.038 1805.42 524.121 1807.92L322.455 1875.42C309.538 1879.58 295.371 1878.33 283.288 1871.25L132.871 1782.92C122.455 1776.67 114.121 1767.5 109.121 1756.25L30.7879 1577.08C22.8712 1558.75 22.8712 1537.92 31.2045 1519.58L109.955 1347.08C113.288 1339.58 119.955 1333.33 128.288 1330.83L334.121 1265.42C349.121 1260.42 365.788 1262.92 379.121 1271.25L417.871 1295.83C457.871 1277.5 487.038 1244.17 504.121 1196.67C516.621 1162.08 517.871 1131.25 518.288 1127.5C503.288 987.917 547.038 926.25 558.288 912.917V822.917C558.288 811.25 564.538 800 574.955 793.75L607.871 774.167L605.371 771.25C600.371 765.833 597.871 759.167 597.871 752.083V703.333C597.871 694.583 602.038 686.25 608.705 680.833L622.871 669.583C618.288 664.167 615.371 657.083 615.371 650V628.75C615.371 625.417 615.788 622.083 617.038 619.167L597.871 642.083C596.205 703.333 545.788 752.917 483.705 752.917C447.455 752.917 414.121 736.25 392.038 707.083C382.871 694.583 377.871 678.333 378.288 661.667L379.538 611.25C379.955 592.917 387.038 575.417 399.121 562.083C423.705 535 459.955 521.25 496.621 525L525.788 502.5C518.288 490.833 502.038 472.5 495.371 465.417L494.955 465C459.121 421.25 333.705 430.417 332.455 430.417C297.871 432.5 274.955 427.083 268.705 425.417C200.788 431.667 156.205 428.75 135.788 426.25C126.621 425.417 117.455 422.083 109.538 417.083C36.2045 372.5 43.2879 292.083 43.7045 288.75C45.3712 256.667 60.3712 222.5 72.8712 199.583C86.6212 174.167 110.788 156.25 139.121 150.417L144.121 149.583C177.871 142.5 212.871 147.5 242.038 163.333C289.955 189.583 316.621 228.333 324.955 242.083L332.455 241.25C342.038 240 351.205 242.083 359.955 246.25C375.788 254.583 423.705 274.167 531.621 280.417C532.038 280.417 581.621 282.5 617.038 252.5C619.121 250.417 621.205 248.333 623.288 246.667L627.455 243.333C650.371 225.417 679.538 215.833 710.371 215.833C746.205 215.833 779.955 229.167 803.288 252.5C820.788 237.917 834.538 220 836.205 217.917C852.038 193.333 873.288 164.583 885.788 158.333L889.538 155L891.205 146.25C894.955 119.583 906.621 95 924.538 75.4167L934.538 64.5833C950.371 47.0833 970.371 35 992.038 29.5834C1022.87 21.6667 1055.79 25 1084.95 39.1667L1101.62 47.0834C1134.95 63.3334 1157.45 96.25 1159.95 133.333L1160.79 144.167C1162.45 167.917 1157.45 191.25 1145.79 211.667L1138.29 225C1125.37 248.333 1106.2 267.917 1082.87 281.667L1082.04 282.083C1063.29 292.917 1042.04 300 1020.37 302.5L1019.95 302.917C998.705 317.917 964.538 333.333 960.788 335C950.788 340.417 941.621 346.667 933.705 353.333L934.538 356.25C943.288 377.083 958.288 391.25 973.705 400.833L974.121 401.25C999.538 416.667 1025.79 419.583 1026.2 419.583C1103.29 427.083 1131.62 431.667 1142.04 434.167C1154.12 425.417 1168.29 420 1183.7 419.167L1212.45 417.5C1234.95 416.25 1257.87 422.5 1276.62 435L1286.2 441.667C1307.87 456.25 1322.45 478.333 1327.87 503.333L1328.7 507.917C1334.95 536.667 1329.95 566.667 1314.54 592.083C1301.2 614.583 1278.29 630.833 1252.45 635.833L1235.79 639.167C1195.37 647.083 1152.45 638.333 1118.29 615L1096.62 600C958.705 549.583 896.205 557.5 895.788 557.5C854.955 565 832.038 581.667 822.455 590.417C830.788 597.083 837.455 602.917 842.038 607.917C847.455 613.333 850.371 620.833 850.371 628.75V665.833L867.038 687.083C871.621 692.917 874.121 700 874.121 707.083V762.917C874.121 770 871.621 777.083 866.621 782.083L864.955 783.75C899.955 820 905.371 832.917 906.205 837.083V838.75V895.833C906.205 901.25 904.955 907.083 902.455 912.083C927.455 946.667 936.621 982.5 939.538 999.167C945.788 997.5 952.038 995.833 958.288 994.167C959.121 993.75 959.538 993.75 960.371 993.333C1035.79 974.583 1120.79 962.917 1201.62 994.167L1212.87 998.333C1278.7 1023.75 1336.2 1066.67 1378.7 1122.5L1389.54 1137.08C1442.04 1206.25 1474.54 1287.92 1484.12 1374.17L1504.12 1547.08L1505.37 1548.75C1587.45 1584.17 1610.37 1643.33 1615.37 1686.67L1622.04 1746.25C1623.29 1751.67 1633.7 1830.83 1583.7 1867.5ZM1497.04 1564.17L1496.2 1563.75C1494.95 1563.75 1493.7 1563.33 1492.45 1562.5C1491.62 1562.08 1439.54 1532.08 1231.62 1535.83C1229.95 1535.83 1055.37 1539.17 998.705 1585.42C997.455 1586.25 966.621 1610.42 966.621 1610.42C929.121 1640.83 907.455 1686.25 907.455 1734.58V1771.67C907.455 1815 929.121 1854.58 965.788 1877.5C975.371 1883.33 985.371 1888.75 995.788 1893.33C984.538 1887.92 978.288 1882.08 978.288 1875.83C978.288 1846.67 1113.7 1823.33 1280.37 1823.33C1419.54 1823.33 1528.29 1832.08 1560.79 1851.67L1540.79 1854.17C1534.54 1855 1528.29 1856.25 1522.04 1857.92C1340.79 1909.17 1165.79 1892.08 1124.95 1886.67C1118.29 1885.83 1111.2 1885 1104.54 1884.58L1075.37 1882.5C1067.04 1882.08 1059.95 1887.5 1058.29 1895.83C1057.87 1899.17 1058.7 1902.5 1061.2 1904.58L1068.29 1911.25C1173.29 1921.25 1369.54 1928.75 1539.95 1870.83C1547.87 1868.33 1559.54 1863.33 1569.12 1857.08L1569.54 1833.75C1569.54 1828.75 1572.04 1824.17 1575.79 1820.83C1598.7 1800.42 1604.12 1761.67 1605.37 1744.17L1599.12 1689.17C1594.95 1650 1573.29 1595.83 1497.04 1564.17ZM942.038 1826.25C922.038 1825.83 919.538 1789.17 919.538 1789.17C914.955 1745 920.788 1712.08 920.788 1712.08C923.705 1664.58 962.455 1622.08 962.455 1622.08L963.288 1623.33C967.038 1628.33 967.455 1634.58 964.955 1640.42C935.788 1702.5 944.955 1747.5 944.955 1747.5C954.955 1794.58 984.955 1805.42 997.871 1807.92C1001.62 1808.75 1005.37 1811.25 1007.45 1814.58L1013.29 1824.17C987.871 1821.25 942.038 1826.25 942.038 1826.25ZM1566.2 1784.17L1547.87 1775.42L1522.87 1765.83C1516.62 1763.33 1509.54 1762.92 1502.87 1764.17L1456.2 1772.92C1449.12 1774.17 1443.29 1778.33 1439.54 1784.58C1435.79 1790.42 1429.95 1794.58 1423.29 1795.42L1371.62 1803.33C1368.7 1803.75 1366.2 1803.33 1363.29 1802.5C1324.54 1790 1273.29 1789.17 1245.79 1789.58C1237.87 1789.58 1233.29 1780.83 1238.29 1774.58L1252.87 1755C1257.04 1749.58 1263.29 1745.83 1270.37 1745C1303.29 1740.83 1342.04 1742.08 1362.45 1743.75C1371.62 1744.17 1380.79 1747.5 1388.29 1752.92L1407.45 1766.67C1409.54 1767.92 1412.04 1768.75 1414.54 1768.75L1428.29 1767.5L1450.79 1746.67C1453.29 1744.58 1456.2 1743.33 1459.54 1743.33H1498.7C1502.04 1743.33 1504.95 1743.75 1507.87 1745L1527.87 1753.33C1527.87 1696.67 1520.37 1660.83 1515.37 1643.33C1513.29 1635.42 1508.29 1628.75 1501.2 1624.17L1473.29 1605.83C1466.2 1600.83 1457.45 1597.92 1449.12 1597.08C1346.2 1586.67 1273.29 1589.17 1232.87 1592.08C1222.87 1603.75 1198.7 1631.25 1193.7 1636.67C1179.54 1652.08 1183.29 1673.33 1183.29 1692.5C1183.29 1700 1181.62 1707.92 1184.54 1715C1186.2 1721.67 1193.29 1729.17 1197.45 1734.58C1202.87 1741.25 1208.29 1748.33 1213.29 1755C1214.95 1756.67 1212.04 1759.58 1210.37 1757.92C1203.7 1752.5 1197.04 1747.08 1190.37 1741.67C1172.45 1728.33 1165.79 1715 1166.2 1692.92C1166.2 1684.17 1166.62 1675.83 1166.62 1667.08C1166.62 1652.5 1172.04 1637.5 1181.62 1626.25C1184.95 1622.08 1198.29 1607.08 1209.12 1594.58C1199.95 1595.83 1195.37 1596.67 1195.37 1596.67L1175.79 1612.5C1160.37 1625 1151.62 1643.75 1151.62 1663.33V1705.42C1151.62 1714.58 1144.95 1722.08 1135.79 1723.33L1115.37 1725.83C1104.95 1727.08 1097.45 1736.67 1098.29 1747.08L1099.12 1753.75C1099.95 1763.33 1104.12 1772.08 1111.2 1778.75L1130.79 1798.33C1165.79 1796.25 1200.79 1796.25 1236.2 1797.92C1259.12 1799.17 1281.62 1801.67 1304.12 1806.25C1305.37 1806.67 1305.79 1807.5 1305.79 1808.75C1305.37 1809.58 1304.54 1810.42 1303.7 1810.42C1238.7 1809.58 1166.62 1813.75 1101.2 1817.5C1078.7 1818.75 1056.2 1820 1033.7 1820.83C1032.45 1820.83 1031.2 1820.42 1030.37 1820C1029.12 1820 1028.7 1820.42 1028.7 1820.42C989.121 1753.33 999.955 1642.92 999.955 1642.92L1054.54 1582.5C1113.7 1565 1164.54 1562.5 1164.54 1562.5C1322.87 1549.17 1421.62 1561.67 1421.62 1561.67C1494.95 1567.5 1533.7 1611.67 1533.7 1611.67C1567.87 1645.83 1569.12 1687.5 1569.12 1687.5C1589.54 1764.17 1566.2 1784.17 1566.2 1784.17ZM705.788 864.167C683.705 874.167 667.038 886.667 654.955 898.333L655.371 892.917C655.788 886.25 657.871 879.583 662.455 874.167L671.205 862.917C674.955 858.333 679.955 855.417 685.788 854.583L696.205 853.333C699.121 852.917 701.621 854.583 702.871 857.083L705.788 864.167ZM726.621 1085C722.871 1087.08 719.538 1088.75 716.621 1090.42C716.205 1090.83 715.788 1090.83 715.371 1091.25C708.288 1094.17 697.871 1098.75 689.955 1102.08C674.955 1108.33 657.455 1102.08 650.371 1087.08C649.538 1085 649.121 1083.75 649.121 1083.75C658.288 1086.25 705.788 1085.42 726.621 1085ZM629.538 579.583L581.621 635.833V636.25C571.205 644.167 558.705 648.75 545.371 648.75C513.705 648.75 487.871 623.75 484.955 592.083L489.121 590.833C495.371 589.167 501.205 585.833 505.788 581.25L549.538 538.75C563.705 555 585.788 571.25 617.455 575C619.121 575.417 623.705 577.083 629.538 579.583ZM628.288 772.083L618.705 761.667C619.121 760 620.371 758.333 622.038 756.667C629.121 749.167 649.955 736.25 712.038 736.25C714.955 736.25 717.038 734.167 717.871 731.667C718.288 730.833 718.288 730 718.288 729.167V663.75L722.871 653.75L785.788 655L807.038 678.333C812.038 683.75 814.538 690.833 814.538 697.917V739.167L856.621 767.917C856.205 769.167 855.371 770.417 854.538 771.25L842.038 784.583L847.455 790.417C850.788 793.75 853.705 797.083 856.621 800V867.083L844.538 869.583C844.538 869.583 812.455 850.833 772.038 864.583V873.333C772.038 873.333 854.538 907.5 861.621 1027.08C820.371 1042.08 788.288 1055.83 764.121 1066.67L734.538 1068.75C724.955 1069.58 715.371 1066.67 707.455 1060.42C688.288 1045.42 679.538 1024.58 679.538 1024.58C658.705 976.25 677.038 924.583 677.038 924.583C699.121 862.5 761.205 863.75 761.205 863.75L778.705 855C769.955 853.333 760.371 852.917 752.038 853.75L744.955 768.75L783.288 761.667L834.955 775L839.538 772.5L810.371 748.75C806.621 745.833 802.455 743.75 797.455 743.333L735.788 737.083C729.955 736.667 725.371 740.833 725.371 746.667V758.75C665.788 758.75 639.538 767.083 628.288 772.083ZM565.788 1066.67C561.205 1000.83 578.288 924.167 584.538 899.583L631.205 866.25L626.621 933.75C605.788 964.583 604.538 1014.17 604.538 1014.17C599.955 1085 642.455 1115.83 642.455 1115.83L661.205 1120C672.455 1122.5 684.121 1121.67 694.955 1117.92L700.371 1115.83V1116.25L697.871 1171.67C688.705 1175.83 682.871 1178.75 682.871 1178.75C651.621 1192.5 632.871 1188.33 632.871 1188.33C574.121 1170 565.788 1066.67 565.788 1066.67Z" fill="#26C3F2"/>
</svg>
